{"glyphs":{"0":{"ha":732,"x_min":86,"x_max":646,"o":"m 86 283 l 86 724 q 162 945 86 875 q 365 1015 238 1015 q 569 945 492 1015 q 646 724 646 875 l 646 283 q 569 62 646 132 q 365 -8 492 -8 q 162 62 238 -8 q 86 283 86 132 m 156 283 q 365 58 156 58 q 522 115 467 58 q 576 283 576 171 l 576 724 q 522 892 576 836 q 365 949 467 949 q 156 724 156 949 l 156 283 m 333 469 q 326 476 333 469 q 319 503 319 483 q 333 535 319 522 q 367 549 346 549 q 399 535 386 549 q 413 503 413 522 q 399 469 413 483 q 367 456 386 456 q 333 469 346 456 z "},"1":{"ha":306,"x_min":22,"x_max":206,"o":"m 22 788 q 39 824 22 803 l 142 993 q 175 1015 154 1015 q 206 986 206 1015 l 206 31 q 171 0 206 0 q 136 31 136 0 l 136 874 l 78 774 q 53 756 69 756 q 31 765 40 756 q 22 788 22 775 z "},"2":{"ha":650,"x_min":51,"x_max":607,"o":"m 51 31 l 51 165 q 87 272 51 219 q 175 364 122 324 l 289 450 l 403 538 q 490 635 454 579 q 525 750 525 690 q 472 889 525 829 q 324 949 419 949 q 194 903 243 949 q 144 774 144 858 q 135 753 144 763 q 107 744 125 744 q 75 792 75 744 q 147 951 75 888 q 326 1015 218 1015 q 519 939 444 1015 q 594 753 594 863 q 559 619 594 683 q 472 511 524 556 q 358 419 419 467 l 244 338 q 156 256 192 301 q 121 165 121 210 l 121 67 l 579 67 q 599 57 590 67 q 607 33 607 47 q 598 10 607 21 q 579 0 589 0 l 85 0 q 62 8 72 0 q 51 31 51 17 z "},"3":{"ha":667,"x_min":43,"x_max":603,"o":"m 43 215 q 75 258 43 258 q 111 225 111 258 q 160 112 111 165 q 319 58 208 58 q 533 281 533 58 l 533 307 q 478 454 533 404 q 324 504 422 504 q 293 536 293 504 q 322 568 293 568 q 463 611 417 568 q 508 757 508 654 q 465 902 508 854 q 328 950 421 950 q 180 900 222 950 q 138 788 138 850 q 103 749 138 749 q 76 759 83 749 q 68 796 68 769 q 79 861 68 828 q 117 931 90 894 q 200 992 144 968 q 332 1015 256 1015 q 576 772 576 1015 q 461 536 576 593 q 603 307 603 476 l 603 281 q 526 62 603 132 q 324 -8 449 -8 q 117 60 192 -8 q 43 215 43 129 z "},"4":{"ha":596,"x_min":13,"x_max":579,"o":"m 13 274 q 18 294 13 283 l 371 992 q 406 1015 383 1015 q 428 1007 418 1015 q 439 986 439 999 q 435 969 439 978 l 101 311 l 400 311 l 400 610 q 435 638 400 638 q 469 610 469 638 l 469 311 l 549 311 q 579 278 579 311 q 571 253 579 264 q 549 243 563 243 l 469 243 l 469 31 q 435 0 469 0 q 400 31 400 0 l 400 243 l 43 243 q 13 274 13 243 z "},"5":{"ha":649,"x_min":42,"x_max":601,"o":"m 42 224 q 75 260 42 260 q 111 229 111 260 q 171 104 111 150 q 321 58 231 58 q 477 114 422 58 q 532 282 532 169 l 532 308 q 477 471 532 417 q 322 525 422 525 l 132 525 q 92 553 92 525 q 92 565 92 556 q 93 578 93 575 l 119 985 q 146 1015 122 1015 l 525 1015 q 551 982 551 1015 q 525 949 551 949 l 185 949 l 160 589 l 322 589 q 525 521 449 589 q 601 308 601 453 l 601 282 q 524 62 601 132 q 321 -8 447 -8 q 117 58 193 -8 q 42 224 42 125 z "},"6":{"ha":710,"x_min":86,"x_max":646,"o":"m 86 283 l 86 724 q 163 945 86 875 q 368 1015 240 1015 q 571 947 496 1015 q 646 782 646 879 q 614 747 646 747 q 576 779 576 747 q 516 901 576 854 q 367 949 456 949 q 157 724 157 949 l 157 496 q 372 594 225 594 q 646 319 646 594 l 646 283 q 570 62 646 132 q 367 -8 494 -8 q 163 62 240 -8 q 86 283 86 132 m 157 281 q 367 57 157 57 q 576 281 576 57 l 576 318 q 523 481 576 431 q 367 531 469 531 q 157 331 157 531 l 157 281 z "},"7":{"ha":625,"x_min":42,"x_max":601,"o":"m 42 778 l 42 985 q 52 1006 42 996 q 75 1015 63 1015 l 568 1015 q 590 1006 579 1015 q 601 985 601 996 l 601 876 q 593 851 601 864 l 165 15 q 140 -1 156 -1 q 111 8 124 -1 q 99 31 99 17 q 104 49 99 35 l 532 878 l 532 949 l 111 949 l 111 778 q 101 756 111 765 q 76 747 90 747 q 52 756 63 747 q 42 778 42 765 z "},"8":{"ha":686,"x_min":64,"x_max":622,"o":"m 64 278 l 64 294 q 211 553 64 493 q 90 774 90 606 q 343 1015 90 1015 q 597 774 597 1015 q 476 553 597 606 q 622 294 622 493 l 622 278 q 547 61 622 131 q 343 -8 471 -8 q 140 61 217 -8 q 64 278 64 131 m 133 281 q 189 112 133 168 q 344 56 244 56 q 499 113 444 56 q 553 281 553 169 l 553 299 q 343 519 553 519 q 133 299 133 519 l 133 281 m 160 769 q 343 585 160 585 q 528 769 528 585 q 343 951 528 951 q 160 769 160 951 z "},"9":{"ha":708,"x_min":64,"x_max":622,"o":"m 64 225 q 96 260 64 260 q 132 228 132 260 q 193 106 132 153 q 343 58 254 58 q 553 283 553 58 l 553 511 q 336 413 485 413 q 64 688 64 413 l 64 724 q 140 945 64 875 q 342 1015 215 1015 q 546 945 469 1015 q 622 724 622 875 l 622 283 q 546 62 622 132 q 342 -8 469 -8 q 139 60 214 -8 q 64 225 64 128 m 133 689 q 187 526 133 576 q 343 476 240 476 q 553 676 553 476 l 553 726 q 498 894 553 839 q 342 950 443 950 q 188 894 242 950 q 133 726 133 839 l 133 689 z "},"\u0000":{"ha":0,"x_min":0,"x_max":0,"o":""},"\r":{"ha":0,"x_min":0,"x_max":0,"o":""}," ":{"ha":278,"x_min":0,"x_max":0,"o":""},"!":{"ha":275,"x_min":82,"x_max":193,"o":"m 98 8 q 90 17 98 8 q 82 49 82 25 q 98 89 82 72 q 138 106 114 106 q 176 89 160 106 q 193 49 193 72 q 176 8 193 25 q 138 -8 160 -8 q 98 8 114 -8 m 93 989 q 136 1036 93 1036 q 169 1024 156 1036 q 182 989 182 1011 q 174 615 182 869 q 165 242 165 361 q 156 223 165 231 q 136 215 147 215 q 117 222 125 215 q 108 242 108 229 q 101 615 108 361 q 93 989 93 869 z "},"\"":{"ha":364,"x_min":57,"x_max":307,"o":"m 57 1040 q 69 1059 57 1051 q 94 1067 81 1067 q 122 1059 108 1067 q 135 1040 135 1051 l 121 832 q 94 803 121 803 q 71 832 71 803 l 57 1040 m 229 1040 q 242 1059 229 1051 q 268 1067 254 1067 q 294 1059 282 1067 q 307 1040 307 1051 l 293 832 q 268 803 293 803 q 243 832 243 803 l 229 1040 z "},"#":{"ha":782,"x_min":40,"x_max":743,"o":"m 40 390 q 47 410 40 401 q 63 418 53 418 l 219 418 l 254 653 l 114 653 q 85 681 85 653 q 91 700 85 692 q 107 708 97 708 l 264 708 l 306 972 q 331 990 308 990 q 356 981 347 990 q 365 957 365 971 l 326 708 l 508 708 l 550 972 q 575 990 553 990 q 601 981 592 990 q 610 957 610 971 l 571 708 l 714 708 q 733 700 724 708 q 743 681 743 692 q 736 661 743 669 q 721 653 729 653 l 563 653 l 525 418 l 668 418 q 689 410 679 418 q 699 389 699 401 q 692 370 699 378 q 675 363 685 363 l 515 363 l 472 72 q 442 49 468 49 q 410 82 410 49 l 453 363 l 272 363 l 228 74 q 200 49 224 49 q 167 82 167 49 l 208 363 l 69 363 q 40 390 40 363 m 282 418 l 463 418 l 499 653 l 318 653 l 282 418 z "},"$":{"ha":679,"x_min":57,"x_max":615,"o":"m 57 150 q 67 176 57 164 q 89 189 78 189 q 113 171 97 189 q 150 131 129 153 q 219 91 171 110 q 329 72 267 72 l 329 510 q 255 535 278 526 q 192 566 232 544 q 133 611 151 588 q 98 675 114 635 q 82 767 82 715 q 103 875 82 829 q 163 946 125 921 q 241 983 200 971 q 329 999 282 996 l 329 1042 q 338 1059 329 1051 q 358 1067 346 1067 q 378 1059 369 1067 q 386 1042 386 1051 l 386 1000 q 527 974 464 997 q 590 922 590 950 q 581 896 590 910 q 558 882 571 882 q 531 894 551 882 q 472 918 510 906 q 386 933 433 931 l 386 564 q 472 528 438 546 q 542 477 506 510 q 597 394 578 444 q 615 275 615 343 q 554 88 615 154 q 386 8 493 21 l 386 -47 q 378 -65 386 -57 q 358 -72 369 -72 q 338 -65 346 -72 q 329 -47 329 -57 l 329 6 q 134 57 211 6 q 57 150 57 108 m 149 774 q 163 699 149 731 q 206 645 176 667 q 261 611 235 624 q 332 583 288 599 l 332 933 q 149 774 149 919 m 385 76 q 547 269 547 100 q 505 409 547 361 q 385 489 463 457 l 385 76 z "},"%":{"ha":1039,"x_min":60,"x_max":979,"o":"m 60 649 l 60 863 q 105 978 60 940 q 225 1015 150 1015 q 345 978 300 1015 q 390 863 390 940 l 390 649 q 345 533 390 569 q 225 496 300 496 q 105 533 150 496 q 60 649 60 569 m 118 649 q 225 549 118 549 q 333 649 333 549 l 333 863 q 225 963 333 963 q 118 863 118 963 l 118 649 m 237 -24 q 232 -19 237 -24 q 228 -6 228 -15 q 231 10 228 4 l 768 1053 q 790 1067 774 1067 q 812 1058 801 1067 q 822 1035 822 1049 q 818 1019 822 1028 l 285 -14 q 257 -32 276 -32 q 237 -24 246 -32 m 649 149 l 649 363 q 694 478 649 440 q 814 515 739 515 q 934 478 889 515 q 979 363 979 440 l 979 149 q 934 33 979 69 q 814 -4 889 -4 q 694 33 739 -4 q 649 149 649 69 m 707 149 q 814 49 707 49 q 922 149 922 49 l 922 363 q 814 463 922 463 q 707 363 707 463 l 707 149 z "},"&":{"ha":836,"x_min":53,"x_max":811,"o":"m 53 279 q 108 449 53 379 q 244 554 164 518 q 188 627 208 599 q 149 706 168 656 q 129 807 129 756 q 198 976 129 914 q 369 1039 267 1039 q 526 993 468 1039 q 585 913 585 947 q 576 890 585 899 q 553 881 567 881 q 529 896 543 881 q 501 930 515 911 q 453 964 486 949 q 375 979 419 979 q 250 931 296 979 q 204 801 204 882 q 236 678 204 733 q 331 557 268 624 l 626 229 q 678 500 675 340 q 710 533 678 533 q 739 493 739 533 q 672 181 739 315 l 803 39 q 811 21 811 28 q 801 0 811 8 q 779 -8 792 -8 q 758 1 768 -8 l 639 129 q 363 -14 542 -14 q 136 71 219 -14 q 53 279 53 156 m 124 286 q 191 120 124 189 q 374 51 258 51 q 594 175 521 51 l 285 508 q 230 475 251 490 q 181 433 208 460 q 138 369 153 406 q 124 286 124 332 z "},"'":{"ha":192,"x_min":57,"x_max":135,"o":"m 57 1040 q 69 1059 57 1051 q 94 1067 81 1067 q 122 1059 108 1067 q 135 1040 135 1051 l 121 832 q 94 803 121 803 q 71 832 71 803 l 57 1040 z "},"(":{"ha":401,"x_min":90,"x_max":374,"o":"m 90 204 l 90 815 q 163 992 90 918 q 340 1067 235 1067 q 374 1035 374 1067 q 365 1011 374 1021 q 346 1001 357 1001 q 211 945 261 1001 q 161 815 161 889 l 161 204 q 215 74 161 111 q 346 38 269 38 q 374 6 374 38 q 340 -28 374 -28 q 160 34 229 -28 q 90 204 90 96 z "},")":{"ha":401,"x_min":28,"x_max":311,"o":"m 28 6 q 57 38 28 38 q 188 74 133 38 q 242 204 242 111 l 242 815 q 192 945 242 889 q 57 1001 142 1001 q 37 1011 46 1001 q 28 1035 28 1021 q 37 1057 28 1047 q 61 1067 46 1067 q 239 992 167 1067 q 311 815 311 918 l 311 204 q 242 34 311 96 q 63 -28 174 -28 q 28 6 28 -28 z "},"*":{"ha":586,"x_min":50,"x_max":536,"o":"m 50 829 q 59 853 50 842 q 81 864 68 864 q 89 861 86 864 l 269 799 l 263 986 q 293 1015 263 1015 q 324 986 324 1015 l 317 797 l 497 861 q 507 864 506 864 q 528 853 519 864 q 536 829 536 842 q 517 801 536 807 l 336 750 l 453 596 q 457 581 457 589 q 447 558 457 567 q 422 549 436 549 q 401 560 408 549 l 293 718 l 185 558 q 165 549 176 549 q 141 557 153 549 q 129 579 129 565 q 136 597 129 588 l 250 749 l 68 801 q 50 829 50 807 z "},"+":{"ha":594,"x_min":46,"x_max":549,"o":"m 46 333 q 74 365 46 365 l 265 365 l 265 556 q 274 576 265 567 q 297 586 283 586 q 320 577 311 586 q 329 556 329 568 l 329 365 l 518 365 q 540 356 531 365 q 549 333 549 347 q 540 312 549 321 q 518 303 531 303 l 329 303 l 329 111 q 297 82 329 82 q 274 90 283 82 q 265 111 265 99 l 265 303 l 74 303 q 46 333 46 303 z "},",":{"ha":231,"x_min":58,"x_max":171,"o":"m 58 49 q 74 89 58 72 q 114 106 90 106 q 153 90 136 106 q 171 47 171 74 q 122 -96 171 24 q 99 -111 115 -111 q 71 -89 71 -111 q 72 -76 71 -82 l 99 -6 q 58 49 58 7 z "},"-":{"ha":556,"x_min":68,"x_max":488,"o":"m 76 311 q 72 315 76 311 q 68 333 68 319 q 76 356 68 347 q 97 365 85 365 l 458 365 q 478 356 469 365 q 488 333 488 347 q 478 311 488 319 q 458 303 469 303 l 97 303 q 76 311 85 303 z "},".":{"ha":229,"x_min":58,"x_max":171,"o":"m 74 8 q 66 17 74 8 q 58 49 58 25 q 74 89 58 72 q 115 106 90 106 q 154 88 138 106 q 171 49 171 71 q 154 9 171 26 q 115 -8 138 -8 q 74 8 90 -8 z "},"/":{"ha":653,"x_min":29,"x_max":624,"o":"m 29 -6 q 32 10 29 4 l 568 1053 q 592 1067 575 1067 q 613 1058 603 1067 q 624 1035 624 1049 q 618 1019 624 1026 l 86 -14 q 57 -32 76 -32 q 38 -24 46 -32 q 29 -6 29 -17 z "},":":{"ha":276,"x_min":82,"x_max":194,"o":"m 98 8 q 90 17 98 8 q 82 49 82 25 q 98 89 82 72 q 139 106 114 106 q 178 88 161 106 q 194 49 194 71 q 178 9 194 26 q 139 -8 161 -8 q 98 8 114 -8 m 98 489 q 90 497 98 489 q 82 529 82 506 q 98 569 82 553 q 139 586 114 586 q 178 569 161 586 q 194 529 194 551 q 178 490 194 507 q 139 472 161 472 q 98 489 114 472 z "},";":{"ha":281,"x_min":83,"x_max":199,"o":"m 83 49 q 99 89 83 72 q 139 106 115 106 q 178 90 161 106 q 196 47 196 74 q 147 -96 196 24 q 124 -111 140 -111 q 96 -89 96 -111 q 97 -76 96 -82 l 124 -6 q 83 49 83 7 m 102 489 q 94 497 102 489 q 86 529 86 506 q 102 569 86 553 q 143 586 118 586 q 182 569 165 586 q 199 529 199 551 q 182 490 199 507 q 143 472 165 472 q 102 489 118 472 z "},"<":{"ha":550,"x_min":38,"x_max":482,"o":"m 38 385 q 56 417 38 407 l 433 667 q 447 672 439 672 q 471 663 460 672 q 482 639 482 653 q 468 614 482 624 l 124 385 l 468 157 q 482 132 482 147 q 471 108 482 118 q 447 99 460 99 q 433 104 439 99 l 56 354 q 38 385 38 364 z "},"=":{"ha":601,"x_min":97,"x_max":504,"o":"m 106 215 q 101 219 106 215 q 97 238 97 224 q 106 261 97 251 q 126 271 114 271 l 475 271 q 495 261 486 271 q 504 238 504 251 q 495 216 504 225 q 475 207 486 207 l 126 207 q 106 215 114 207 m 106 497 q 101 501 106 497 q 97 519 97 506 q 106 543 97 533 q 126 553 114 553 l 475 553 q 495 543 486 553 q 504 519 504 533 q 495 497 504 506 q 475 489 486 489 l 126 489 q 106 497 114 489 z "},">":{"ha":550,"x_min":68,"x_max":513,"o":"m 68 132 q 82 157 68 147 l 426 385 l 82 614 q 68 639 68 624 q 78 663 68 653 q 101 672 89 672 q 117 667 110 672 l 494 417 q 513 385 513 404 q 494 354 513 364 l 117 104 q 101 99 110 99 q 78 108 89 99 q 68 132 68 118 z "},"?":{"ha":543,"x_min":33,"x_max":493,"o":"m 33 943 q 95 1006 33 975 q 236 1036 157 1036 q 427 966 361 1036 q 493 786 493 896 q 469 667 493 724 q 419 582 446 611 q 353 514 393 553 q 301 461 313 475 q 267 384 274 429 q 260 243 260 339 q 229 215 260 215 q 200 247 200 215 q 213 412 200 360 q 253 494 225 464 q 303 544 264 507 q 365 607 343 582 q 408 680 388 632 q 429 782 429 728 q 378 924 429 874 q 231 975 328 975 q 142 960 178 975 q 89 928 107 944 q 61 913 71 913 q 42 922 51 913 q 33 943 33 931 m 190 8 q 182 17 190 8 q 174 49 174 25 q 190 89 174 72 q 229 106 207 106 q 268 89 251 106 q 285 49 285 72 q 269 8 285 25 q 229 -8 253 -8 q 190 8 206 -8 z "},"@":{"ha":986,"x_min":79,"x_max":925,"o":"m 79 303 q 185 641 79 511 q 507 771 290 771 q 817 656 708 771 q 925 326 925 542 q 888 129 925 207 q 767 51 851 51 q 681 77 718 51 q 633 138 643 103 q 558 82 594 99 q 465 65 522 65 q 290 214 290 65 q 357 335 290 303 q 561 368 424 368 l 625 368 l 625 396 q 482 518 625 518 q 392 502 428 518 q 351 486 356 486 q 333 497 340 486 q 325 517 325 507 q 380 560 325 542 q 496 578 435 578 q 637 532 588 578 q 686 403 686 486 l 686 174 q 715 124 689 144 q 771 103 740 103 q 846 167 824 103 q 868 321 868 232 q 776 609 868 507 q 503 711 685 711 q 329 678 403 711 q 215 586 256 644 q 155 458 174 528 q 136 304 136 388 q 214 32 136 140 q 460 -76 292 -76 q 597 -56 535 -76 l 660 -33 q 677 -41 669 -33 q 685 -57 685 -49 q 610 -108 685 -82 q 453 -133 535 -133 q 313 -108 378 -133 q 194 -31 247 -82 q 110 107 140 21 q 79 303 79 193 m 353 213 q 385 142 353 165 q 468 118 417 118 q 583 153 539 118 q 626 231 626 189 l 626 317 l 565 317 q 481 313 514 317 q 415 300 447 310 q 368 269 383 290 q 353 213 353 247 z "},"A":{"ha":736,"x_min":32,"x_max":704,"o":"m 32 31 q 33 39 32 36 l 331 999 q 369 1024 339 1024 q 408 999 400 1024 l 703 39 q 703 35 703 38 q 704 31 704 33 q 692 9 704 18 q 664 0 679 0 q 636 21 642 0 l 568 242 l 168 242 l 101 21 q 71 0 94 0 q 44 8 56 0 q 32 31 32 17 m 186 306 l 549 306 l 369 899 l 186 306 z "},"B":{"ha":739,"x_min":110,"x_max":669,"o":"m 110 29 l 110 985 q 143 1015 110 1015 l 360 1015 q 570 966 496 1015 q 644 782 644 917 q 613 634 644 694 q 526 550 581 574 q 633 465 596 521 q 669 308 669 410 l 669 283 q 595 67 669 135 q 396 0 521 0 l 143 0 q 119 8 128 0 q 110 29 110 17 m 179 67 l 390 67 q 600 286 600 67 l 600 310 q 547 469 600 419 q 390 518 493 518 l 179 518 l 179 67 m 179 582 l 367 582 q 526 626 476 582 q 575 776 575 669 q 521 913 575 876 q 361 949 467 949 l 179 949 l 179 582 z "},"C":{"ha":718,"x_min":100,"x_max":660,"o":"m 100 283 l 100 724 q 178 944 100 874 q 383 1015 257 1015 q 585 949 511 1015 q 660 790 660 883 q 651 754 660 764 q 625 744 643 744 q 590 774 590 744 q 580 828 589 803 q 551 884 571 854 q 488 931 531 914 q 383 949 444 949 q 169 724 169 949 l 169 283 q 388 58 169 58 q 474 71 438 58 q 531 99 511 83 q 565 144 551 115 q 582 189 578 172 q 590 235 586 206 q 624 264 593 264 q 651 254 643 264 q 660 217 660 244 q 584 58 660 125 q 379 -8 508 -8 q 177 63 254 -8 q 100 283 100 133 z "},"D":{"ha":769,"x_min":110,"x_max":669,"o":"m 110 29 l 110 986 q 119 1006 110 997 q 143 1015 129 1015 l 389 1015 q 592 945 515 1015 q 669 724 669 875 l 669 292 q 592 70 669 140 q 389 0 515 0 l 143 0 q 119 9 129 0 q 110 29 110 18 m 179 67 l 389 67 q 545 123 490 67 q 600 292 600 179 l 600 724 q 545 892 600 836 q 389 949 490 949 l 179 949 l 179 67 z "},"E":{"ha":699,"x_min":110,"x_max":667,"o":"m 110 31 l 110 985 q 143 1015 110 1015 l 638 1015 q 667 983 667 1015 q 658 959 667 969 q 638 949 650 949 l 179 949 l 179 540 l 400 540 q 421 531 413 540 q 429 507 429 521 q 400 476 429 476 l 179 476 l 179 67 l 638 67 q 658 56 650 67 q 667 32 667 46 q 638 0 667 0 l 143 0 q 110 31 110 0 z "},"F":{"ha":683,"x_min":110,"x_max":665,"o":"m 110 29 l 110 985 q 143 1015 110 1015 l 636 1015 q 658 1006 650 1015 q 665 983 665 996 q 657 959 665 969 q 636 949 649 949 l 179 949 l 179 540 l 400 540 q 421 531 413 540 q 429 507 429 521 q 400 476 429 476 l 179 476 l 179 29 q 144 0 179 0 q 110 29 110 0 z "},"G":{"ha":744,"x_min":100,"x_max":660,"o":"m 100 283 l 100 724 q 176 945 100 875 q 378 1015 251 1015 q 583 949 507 1015 q 660 781 660 883 q 625 744 660 744 q 590 774 592 744 q 379 949 567 949 q 169 724 169 949 l 169 283 q 379 58 169 58 q 535 115 481 58 q 590 283 590 171 l 590 469 l 385 469 q 365 479 372 469 q 357 501 357 489 q 365 524 357 514 q 385 533 372 533 l 631 533 q 651 524 643 533 q 660 501 660 514 l 660 283 q 583 62 660 132 q 379 -8 506 -8 q 176 62 251 -8 q 100 283 100 132 z "},"H":{"ha":782,"x_min":110,"x_max":672,"o":"m 110 31 l 110 986 q 144 1015 110 1015 q 179 986 179 1015 l 179 558 l 603 558 l 603 986 q 638 1015 603 1015 q 672 986 672 1015 l 672 31 q 638 0 672 0 q 603 31 603 0 l 603 494 l 179 494 l 179 31 q 144 0 179 0 q 110 31 110 0 z "},"I":{"ha":289,"x_min":110,"x_max":179,"o":"m 110 31 l 110 986 q 144 1015 110 1015 q 179 986 179 1015 l 179 31 q 144 0 179 0 q 110 31 110 0 z "},"J":{"ha":699,"x_min":33,"x_max":593,"o":"m 33 228 q 68 264 33 264 q 103 235 103 264 q 163 104 104 150 q 314 58 221 58 q 524 283 524 58 l 524 949 l 315 949 q 286 983 286 949 q 315 1015 286 1015 l 560 1015 q 593 985 593 1015 l 593 283 q 517 62 593 132 q 315 -8 442 -8 q 110 58 188 -8 q 33 228 33 125 z "},"K":{"ha":714,"x_min":110,"x_max":706,"o":"m 110 31 l 110 986 q 144 1015 110 1015 q 179 986 179 1015 l 179 467 l 606 1004 q 629 1015 613 1015 q 655 1004 643 1015 q 667 979 667 993 q 660 963 667 968 l 350 576 l 700 49 q 706 33 706 43 q 694 9 706 19 q 667 -1 682 -1 q 640 15 650 -1 l 304 518 l 179 363 l 179 31 q 144 0 179 0 q 110 31 110 0 z "},"L":{"ha":635,"x_min":110,"x_max":615,"o":"m 110 31 l 110 986 q 144 1015 110 1015 q 179 986 179 1015 l 179 67 l 589 67 q 615 33 615 67 q 589 0 615 0 l 143 0 q 110 31 110 0 z "},"M":{"ha":915,"x_min":110,"x_max":806,"o":"m 110 31 l 110 982 q 144 1015 110 1015 q 203 958 172 1015 l 457 461 l 713 958 q 771 1015 743 1015 q 806 982 806 1015 l 806 31 q 771 0 806 0 q 736 31 736 0 l 736 857 l 489 385 q 457 356 472 356 q 425 385 439 356 l 179 858 l 179 31 q 144 0 179 0 q 110 31 110 0 z "},"N":{"ha":782,"x_min":110,"x_max":672,"o":"m 110 31 l 110 986 q 144 1015 110 1015 q 201 958 171 1015 l 603 165 l 603 986 q 638 1015 603 1015 q 672 986 672 1015 l 672 31 q 638 0 672 0 q 588 51 615 0 l 179 851 l 179 31 q 144 0 179 0 q 110 31 110 0 z "},"O":{"ha":760,"x_min":100,"x_max":660,"o":"m 100 283 l 100 724 q 176 945 100 875 q 379 1015 251 1015 q 583 945 506 1015 q 660 724 660 875 l 660 283 q 583 62 660 132 q 379 -8 506 -8 q 176 62 251 -8 q 100 283 100 132 m 169 283 q 379 58 169 58 q 535 115 481 58 q 590 283 590 171 l 590 724 q 535 892 590 836 q 379 949 481 949 q 169 724 169 949 l 169 283 z "},"P":{"ha":721,"x_min":110,"x_max":671,"o":"m 110 31 l 110 986 q 142 1015 110 1013 l 392 1015 q 594 945 518 1015 q 671 725 671 875 l 671 710 q 594 489 671 560 q 390 418 517 418 l 179 418 l 179 31 q 144 0 179 0 q 110 31 110 0 m 179 482 l 390 482 q 547 538 492 482 q 601 708 601 594 l 601 724 q 547 892 601 836 q 390 949 492 949 l 179 949 l 179 482 z "},"Q":{"ha":760,"x_min":100,"x_max":660,"o":"m 100 283 l 100 724 q 176 945 100 875 q 379 1015 251 1015 q 583 945 506 1015 q 660 724 660 875 l 660 283 q 592 70 660 140 q 410 -7 525 0 l 410 -121 q 401 -144 410 -136 q 381 -151 392 -151 q 350 -121 350 -151 l 350 -7 q 167 70 235 0 q 100 283 100 140 m 169 283 q 350 60 169 75 l 350 169 q 381 199 350 199 q 410 169 410 199 l 410 61 q 590 283 590 76 l 590 724 q 535 892 590 836 q 379 949 481 949 q 169 724 169 949 l 169 283 z "},"R":{"ha":717,"x_min":110,"x_max":671,"o":"m 110 31 l 110 986 q 118 1007 110 999 q 140 1015 126 1015 l 378 1015 q 590 952 508 1015 q 671 746 671 889 q 444 481 671 513 l 667 50 q 671 33 671 42 q 660 9 671 19 q 633 -1 650 -1 q 590 47 617 -1 l 372 474 l 179 474 l 179 31 q 144 0 179 0 q 110 31 110 0 m 179 538 l 378 538 q 601 744 601 538 q 378 949 601 949 l 179 949 l 179 538 z "},"S":{"ha":676,"x_min":54,"x_max":614,"o":"m 54 136 q 65 163 54 150 q 86 175 75 175 q 111 157 94 175 l 149 117 q 216 76 169 94 q 324 58 263 58 q 488 111 431 58 q 544 267 544 164 q 510 396 544 344 q 424 469 475 447 q 312 515 372 492 q 200 562 251 539 q 114 638 149 585 q 79 771 79 690 q 106 894 79 843 q 176 970 132 944 q 266 1006 221 996 q 363 1017 311 1017 q 517 992 446 1017 q 589 938 589 968 q 579 911 589 925 q 557 897 569 897 q 526 910 550 897 q 459 937 503 924 q 361 950 415 950 q 210 910 271 950 q 149 776 149 871 q 174 681 149 719 q 241 622 200 643 q 331 585 282 601 q 431 547 381 568 q 522 496 481 526 q 588 409 563 465 q 614 274 614 353 q 537 62 614 132 q 331 -8 460 -8 q 133 43 211 -8 q 54 136 54 94 z "},"T":{"ha":650,"x_min":21,"x_max":629,"o":"m 29 958 q 25 963 29 958 q 21 982 21 968 q 29 1006 21 996 q 50 1015 38 1015 l 600 1015 q 629 983 629 1015 q 600 949 629 949 l 361 949 l 361 31 q 326 0 361 0 q 292 31 292 0 l 292 949 l 50 949 q 29 958 38 949 z "},"U":{"ha":774,"x_min":106,"x_max":668,"o":"m 106 283 l 106 986 q 140 1015 106 1015 q 175 986 175 1015 l 175 283 q 230 115 175 171 q 386 58 285 58 q 543 115 488 58 q 599 283 599 171 l 599 986 q 633 1015 599 1015 q 668 986 668 1015 l 668 283 q 591 62 668 132 q 386 -8 514 -8 q 182 62 258 -8 q 106 283 106 132 z "},"V":{"ha":733,"x_min":31,"x_max":703,"o":"m 31 985 q 42 1007 31 999 q 69 1015 54 1015 q 100 994 93 1015 l 368 117 l 635 994 q 663 1015 640 1015 q 690 1006 678 1015 q 703 985 703 997 q 702 980 703 982 q 701 976 701 978 l 407 17 q 368 -8 400 -8 q 329 17 338 -8 l 32 976 q 31 985 31 979 z "},"W":{"ha":1058,"x_min":33,"x_max":1025,"o":"m 33 986 q 45 1007 33 999 q 71 1015 57 1015 q 103 994 97 1015 l 349 117 l 490 643 q 528 671 497 671 q 567 643 558 671 l 713 117 l 956 994 q 988 1015 961 1015 q 1013 1007 1001 1015 q 1025 986 1025 999 q 1024 976 1025 981 l 751 17 q 711 -8 743 -8 q 674 17 678 -8 l 531 536 l 388 17 q 349 -8 381 -8 q 310 17 317 -8 l 35 976 q 33 986 33 981 z "},"X":{"ha":646,"x_min":36,"x_max":610,"o":"m 36 33 q 42 51 36 38 l 281 508 l 46 961 q 38 988 38 975 q 76 1017 38 1017 q 121 968 97 1017 l 322 575 l 525 968 q 531 981 525 969 l 539 994 q 547 1004 542 997 q 558 1014 553 1011 q 569 1017 564 1017 q 608 988 608 1017 q 600 961 608 975 l 364 508 l 604 51 q 610 33 610 38 q 598 9 610 19 q 571 -1 586 -1 q 563 0 567 -1 q 556 6 558 3 l 549 11 q 542 19 546 14 q 538 28 539 25 q 533 38 538 31 q 529 46 529 44 l 322 443 l 117 46 q 113 38 117 44 q 108 28 108 31 q 103 19 107 25 q 97 11 100 14 l 92 6 q 84 1 89 3 q 75 -1 79 -1 q 49 9 61 -1 q 36 33 36 19 z "},"Y":{"ha":722,"x_min":29,"x_max":692,"o":"m 29 985 q 39 1007 29 999 q 63 1015 49 1015 q 94 990 81 1015 l 361 456 l 629 990 q 661 1015 642 1015 q 683 1007 674 1015 q 692 985 692 999 q 686 958 692 969 l 397 393 q 396 383 396 390 l 396 31 q 361 0 396 0 q 326 31 326 0 l 326 383 q 324 393 326 388 l 36 958 q 29 985 29 976 z "},"Z":{"ha":658,"x_min":36,"x_max":624,"o":"m 36 28 q 43 51 36 42 l 518 949 l 81 949 q 51 982 51 949 q 81 1015 51 1015 l 579 1015 q 608 990 608 1015 q 600 961 608 975 l 126 67 l 594 67 q 624 33 624 67 q 594 0 624 0 l 65 0 q 36 28 36 0 z "},"[":{"ha":407,"x_min":99,"x_max":379,"o":"m 99 0 l 99 1038 q 108 1058 99 1050 q 132 1067 118 1067 l 351 1067 q 372 1057 364 1067 q 379 1035 379 1047 q 371 1011 379 1021 q 351 1001 363 1001 l 168 1001 l 168 36 l 351 36 q 371 26 363 36 q 379 3 379 17 q 372 -19 379 -10 q 351 -29 364 -29 l 132 -29 q 108 -21 118 -29 q 99 0 99 -12 z "},"\\":{"ha":478,"x_min":36,"x_max":442,"o":"m 36 1015 q 46 1038 36 1029 q 68 1047 56 1047 q 93 1032 86 1047 l 440 36 q 442 26 442 33 q 433 8 442 15 q 413 0 424 0 q 385 19 390 0 l 39 1004 q 36 1015 36 1013 z "},"]":{"ha":408,"x_min":28,"x_max":310,"o":"m 28 3 q 36 26 28 17 q 57 36 44 36 l 240 36 l 240 1001 l 57 1001 q 36 1011 44 1001 q 28 1035 28 1021 q 36 1057 28 1047 q 57 1067 44 1067 l 276 1067 q 300 1058 290 1067 q 310 1038 310 1050 l 310 0 q 300 -21 310 -12 q 276 -29 290 -29 l 57 -29 q 36 -19 44 -29 q 28 3 28 -10 z "},"^":{"ha":367,"x_min":0,"x_max":367,"o":"m 0 860 q 15 883 0 875 l 160 961 q 183 968 171 968 q 207 961 196 968 l 351 885 q 367 857 367 876 q 359 838 367 846 q 340 829 351 829 l 328 833 l 183 910 l 39 832 q 33 830 38 832 q 28 828 29 828 q 8 837 17 828 q 0 860 0 846 z "},"_":{"ha":475,"x_min":-14,"x_max":489,"o":"m -6 -54 q -10 -50 -6 -54 q -14 -32 -14 -46 q -6 -9 -14 -18 q 15 0 3 0 l 460 0 q 480 -9 471 0 q 489 -32 489 -18 q 481 -53 489 -44 q 460 -62 472 -62 l 15 -62 q -6 -54 3 -62 z "},"`":{"ha":199,"x_min":0,"x_max":199,"o":"m 0 936 q 8 958 0 949 q 28 968 15 968 q 38 965 32 968 l 186 881 q 199 860 199 875 q 190 838 199 847 q 168 828 181 828 q 154 832 163 828 l 15 908 q 0 936 0 918 z "},"a":{"ha":599,"x_min":46,"x_max":513,"o":"m 46 175 q 128 320 46 279 q 369 361 211 361 l 444 361 l 444 397 q 401 541 444 481 q 269 601 357 601 q 171 582 217 601 q 124 563 125 563 q 101 575 110 563 q 93 600 93 588 q 151 644 93 624 q 272 664 208 664 q 454 588 396 664 q 513 397 513 513 l 513 31 q 503 9 513 18 q 479 0 493 0 q 456 9 465 0 q 446 31 446 18 l 446 97 q 238 -8 354 -8 q 99 38 153 -8 q 46 175 46 85 m 114 178 q 151 84 114 115 q 247 53 188 53 q 381 103 318 53 q 444 203 444 154 l 444 306 l 376 306 q 276 301 317 306 q 196 285 236 297 q 135 247 156 274 q 114 178 114 219 z "},"b":{"ha":660,"x_min":92,"x_max":594,"o":"m 92 31 l 92 1035 q 101 1056 92 1047 q 125 1064 111 1064 q 150 1056 140 1064 q 160 1035 160 1047 l 160 558 q 233 634 185 604 q 344 664 281 664 q 521 590 447 664 q 594 410 594 515 l 594 249 q 520 69 594 147 q 347 -8 446 -8 q 234 22 286 -8 q 158 97 182 53 l 158 31 q 149 10 158 19 q 125 0 139 0 q 101 9 111 0 q 92 31 92 18 m 160 201 q 215 108 160 161 q 342 56 271 56 q 471 115 415 56 q 526 249 526 174 l 526 410 q 471 542 526 483 q 340 600 415 600 q 215 547 269 600 q 160 410 160 494 l 160 201 z "},"c":{"ha":564,"x_min":68,"x_max":525,"o":"m 68 249 l 68 407 q 134 592 68 521 q 329 664 200 664 q 463 635 408 664 q 517 579 517 607 q 507 556 517 567 q 485 546 497 546 q 460 559 478 546 q 410 586 443 572 q 331 600 376 600 q 187 549 238 600 q 136 407 136 497 l 136 249 q 186 106 136 157 q 332 56 236 56 q 415 69 381 56 q 468 97 450 83 q 494 111 486 111 q 516 101 507 111 q 525 78 525 90 q 469 20 525 49 q 329 -8 413 -8 q 135 63 201 -8 q 68 249 68 133 z "},"d":{"ha":661,"x_min":67,"x_max":569,"o":"m 67 249 l 67 410 q 140 590 67 515 q 317 664 214 664 q 428 634 381 664 q 501 558 476 604 l 501 1035 q 511 1056 501 1047 q 536 1064 521 1064 q 560 1056 550 1064 q 569 1035 569 1047 l 569 31 q 560 9 569 18 q 536 0 550 0 q 513 10 522 0 q 503 31 503 19 l 503 97 q 427 22 479 53 q 314 -8 375 -8 q 141 69 215 -8 q 67 249 67 147 m 135 249 q 190 115 135 174 q 319 56 246 56 q 446 108 390 56 q 501 201 501 161 l 501 410 q 447 547 501 494 q 321 600 392 600 q 190 542 246 600 q 135 410 135 483 l 135 249 z "},"e":{"ha":626,"x_min":67,"x_max":575,"o":"m 67 249 l 67 414 q 142 590 67 517 q 322 664 217 664 q 500 592 425 664 q 575 413 575 519 q 566 352 575 375 q 538 319 557 329 q 502 308 518 310 q 457 306 486 306 l 135 306 l 135 247 q 197 107 135 160 q 358 54 260 54 q 443 68 408 54 q 496 96 478 82 q 524 110 514 110 q 546 99 536 110 q 556 76 556 88 q 498 21 556 50 q 356 -8 440 -8 q 147 63 228 -8 q 67 249 67 133 m 135 363 l 431 363 q 493 372 478 363 q 508 413 508 382 q 456 544 508 486 q 322 603 403 603 q 190 549 244 603 q 135 419 135 494 l 135 363 z "},"f":{"ha":411,"x_min":92,"x_max":394,"o":"m 92 29 l 92 813 q 165 989 92 914 q 339 1064 239 1064 l 363 1064 q 385 1054 376 1064 q 394 1031 394 1044 q 385 1008 394 1017 q 363 1000 376 1000 l 344 1000 q 214 945 267 1000 q 160 815 161 890 l 160 656 l 365 656 q 386 647 378 656 q 394 626 394 638 q 386 605 394 614 q 365 596 378 596 l 160 596 l 160 29 q 149 8 160 17 q 124 0 139 0 q 92 29 92 0 z "},"g":{"ha":622,"x_min":39,"x_max":607,"o":"m 39 -144 q 161 8 39 -36 q 81 106 81 35 q 149 204 81 169 q 75 379 75 269 l 75 436 q 139 600 75 536 q 306 664 203 664 q 469 601 407 664 q 517 664 489 640 q 571 688 546 688 q 598 678 589 688 q 607 656 607 668 q 582 628 607 631 q 501 565 533 625 q 538 436 538 517 l 538 379 q 472 214 538 279 q 304 149 407 149 q 194 175 242 149 q 144 114 144 150 q 190 62 144 78 q 299 41 235 46 q 426 25 363 36 q 535 -25 490 14 q 581 -133 581 -64 q 508 -276 581 -225 q 314 -326 436 -326 q 115 -276 192 -326 q 39 -144 39 -226 m 106 -137 q 161 -234 106 -197 q 314 -271 217 -271 q 460 -235 408 -271 q 513 -136 513 -199 q 498 -84 513 -106 q 463 -50 483 -62 q 409 -29 442 -37 q 352 -19 376 -21 q 292 -14 328 -17 l 242 -8 q 106 -137 106 -49 m 142 381 q 186 255 142 304 q 307 206 231 206 q 426 254 382 206 q 471 379 471 303 l 471 436 q 426 559 471 511 q 306 607 382 607 q 185 559 229 607 q 142 436 142 511 l 142 381 z "},"h":{"ha":678,"x_min":92,"x_max":593,"o":"m 92 31 l 92 1035 q 101 1056 92 1047 q 125 1064 111 1064 q 150 1056 140 1064 q 160 1035 160 1047 l 160 558 q 231 633 183 603 q 344 664 279 664 q 519 589 446 664 q 593 410 593 514 l 593 31 q 558 0 593 0 q 525 31 525 0 l 525 410 q 469 542 525 483 q 339 600 414 600 q 214 548 268 600 q 160 410 160 496 l 160 31 q 149 10 160 19 q 125 0 139 0 q 101 9 111 0 q 92 31 92 18 z "},"i":{"ha":251,"x_min":72,"x_max":176,"o":"m 72 914 q 88 948 72 933 q 125 963 103 963 q 161 948 146 963 q 176 914 176 933 q 161 878 176 893 q 125 863 146 863 q 88 878 103 863 q 72 914 72 893 m 92 31 l 92 628 q 125 656 92 656 q 160 628 160 656 l 160 31 q 149 10 160 19 q 125 0 139 0 q 101 9 111 0 q 92 31 92 18 z "},"j":{"ha":251,"x_min":-51,"x_max":176,"o":"m -42 -317 q -47 -312 -42 -317 q -51 -293 -51 -307 q -42 -271 -51 -279 q -19 -262 -33 -262 q 69 -212 47 -262 q 92 -64 92 -162 l 92 628 q 125 656 92 656 q 160 628 160 656 l 160 -64 q -17 -326 160 -326 q -42 -317 -32 -326 m 72 914 q 88 948 72 933 q 125 963 103 963 q 161 948 146 963 q 176 914 176 933 q 161 878 176 893 q 125 863 146 863 q 88 878 103 863 q 72 914 72 893 z "},"k":{"ha":618,"x_min":92,"x_max":600,"o":"m 92 31 l 92 1035 q 101 1056 92 1047 q 125 1064 111 1064 q 150 1056 140 1064 q 160 1035 160 1047 l 160 336 l 518 650 q 535 657 525 657 q 560 649 549 657 q 571 625 571 640 q 561 603 571 611 l 346 415 l 596 49 q 600 33 600 42 q 590 10 600 21 q 565 -1 579 -1 q 542 13 551 -1 l 297 371 l 160 251 l 160 31 q 149 10 160 19 q 125 0 139 0 q 101 9 111 0 q 92 31 92 18 z "},"l":{"ha":274,"x_min":103,"x_max":171,"o":"m 103 31 l 103 1035 q 113 1056 103 1047 q 136 1064 122 1064 q 161 1056 151 1064 q 171 1035 171 1047 l 171 31 q 160 10 171 19 q 136 0 150 0 q 113 9 122 0 q 103 31 103 18 z "},"m":{"ha":1075,"x_min":92,"x_max":989,"o":"m 92 31 l 92 628 q 125 656 92 656 q 149 648 139 656 q 158 628 158 640 l 158 558 q 344 664 218 664 q 466 626 413 664 q 547 525 519 589 q 639 628 582 593 q 758 664 696 664 q 921 595 853 664 q 989 410 989 526 l 989 31 q 978 10 989 19 q 954 0 968 0 q 931 10 940 0 q 921 31 921 19 l 921 410 q 869 549 921 499 q 750 600 817 600 q 627 549 681 600 q 574 417 574 497 l 574 29 q 539 0 574 0 q 506 29 506 0 l 506 415 q 456 547 506 493 q 336 600 407 600 q 213 548 267 600 q 160 410 160 496 l 160 31 q 149 10 160 19 q 125 0 139 0 q 101 9 111 0 q 92 31 92 18 z "},"n":{"ha":678,"x_min":92,"x_max":593,"o":"m 92 31 l 92 628 q 125 656 92 656 q 149 648 139 656 q 158 628 158 640 l 158 558 q 231 633 182 603 q 344 664 279 664 q 519 589 446 664 q 593 410 593 514 l 593 31 q 558 0 593 0 q 525 31 525 0 l 525 410 q 469 542 525 483 q 339 600 414 600 q 214 548 268 600 q 160 410 160 496 l 160 31 q 149 10 160 19 q 125 0 139 0 q 101 9 111 0 q 92 31 92 18 z "},"o":{"ha":640,"x_min":65,"x_max":575,"o":"m 65 249 l 65 410 q 140 588 65 513 q 319 664 215 664 q 499 589 422 664 q 575 410 575 514 l 575 249 q 498 69 575 147 q 319 -8 421 -8 q 142 69 218 -8 q 65 249 65 146 m 133 249 q 188 115 133 174 q 319 56 243 56 q 451 115 396 56 q 507 249 507 174 l 507 410 q 451 542 507 483 q 319 600 396 600 q 188 542 243 600 q 133 410 133 483 l 133 249 z "},"p":{"ha":660,"x_min":92,"x_max":594,"o":"m 92 -296 l 92 628 q 125 656 92 656 q 149 648 139 656 q 158 628 158 640 l 158 558 q 344 664 218 664 q 521 590 447 664 q 594 410 594 515 l 594 249 q 520 69 594 147 q 347 -8 446 -8 q 235 22 286 -8 q 160 97 183 53 l 160 -296 q 149 -317 160 -307 q 125 -326 139 -326 q 101 -317 111 -326 q 92 -296 92 -308 m 160 201 q 215 108 160 161 q 342 56 271 56 q 471 115 415 56 q 526 249 526 174 l 526 410 q 470 542 526 483 q 339 600 414 600 q 214 548 268 600 q 160 410 160 496 l 160 201 z "},"q":{"ha":661,"x_min":67,"x_max":569,"o":"m 67 249 l 67 410 q 140 590 67 515 q 317 664 214 664 q 429 633 381 664 q 503 558 478 603 l 503 628 q 513 648 503 640 q 536 656 522 656 q 569 628 569 656 l 569 -296 q 560 -317 569 -308 q 536 -326 550 -326 q 512 -317 522 -326 q 501 -296 501 -307 l 501 97 q 426 22 478 53 q 314 -8 374 -8 q 141 69 215 -8 q 67 249 67 147 m 135 249 q 190 115 135 174 q 319 56 246 56 q 446 108 390 56 q 501 201 501 161 l 501 410 q 447 548 501 496 q 321 600 393 600 q 190 542 246 600 q 135 410 135 483 l 135 249 z "},"r":{"ha":443,"x_min":92,"x_max":428,"o":"m 92 31 l 92 628 q 125 656 92 656 q 149 648 139 656 q 158 628 158 640 l 158 557 q 233 633 183 603 q 347 664 282 664 l 397 664 q 419 655 410 664 q 428 632 428 646 q 419 609 428 618 q 397 600 410 600 l 347 600 q 216 544 272 600 q 160 397 160 488 l 160 31 q 149 10 160 19 q 125 0 139 0 q 101 9 111 0 q 92 31 92 18 z "},"s":{"ha":526,"x_min":50,"x_max":476,"o":"m 50 86 q 58 108 50 97 q 75 118 65 118 q 97 108 83 119 l 129 86 q 181 64 146 75 q 258 53 215 53 q 374 83 336 53 q 411 160 411 113 q 376 247 411 215 q 290 294 340 279 q 188 325 239 308 q 101 379 136 342 q 65 481 65 417 q 119 608 65 553 q 276 664 172 664 q 398 644 342 664 q 454 601 454 624 q 444 578 454 590 q 424 565 435 565 q 375 584 422 565 q 278 603 328 603 q 166 565 203 603 q 129 482 129 528 q 165 408 129 435 q 251 368 200 382 q 354 337 303 354 q 441 277 406 319 q 476 164 476 235 q 419 38 476 83 q 260 -8 363 -8 q 110 23 171 -8 q 50 86 50 54 z "},"t":{"ha":394,"x_min":89,"x_max":368,"o":"m 89 199 l 89 944 q 99 965 89 957 q 122 974 110 974 q 147 965 136 974 q 157 944 157 957 l 157 656 l 342 656 q 360 647 353 656 q 368 625 368 638 q 360 605 368 614 q 342 596 351 596 l 157 596 l 157 199 q 189 94 157 125 q 300 64 221 64 l 335 64 q 358 55 349 64 q 367 32 367 46 q 358 10 367 19 q 335 0 349 0 l 300 0 q 89 199 89 0 z "},"u":{"ha":678,"x_min":85,"x_max":593,"o":"m 85 246 l 85 626 q 95 647 85 638 q 119 656 106 656 q 142 647 132 656 q 153 626 153 638 l 153 246 q 208 113 153 171 q 339 56 263 56 q 470 113 415 56 q 525 246 525 171 l 525 628 q 535 647 525 639 q 560 656 546 656 q 583 647 574 656 q 593 628 593 639 l 593 246 q 518 67 593 143 q 339 -8 443 -8 q 160 68 235 -8 q 85 246 85 144 z "},"v":{"ha":565,"x_min":25,"x_max":540,"o":"m 25 625 q 37 648 25 639 q 64 657 49 657 q 92 640 86 657 l 282 115 l 472 632 q 500 657 482 657 q 527 648 514 657 q 540 626 540 639 l 535 604 l 315 10 q 282 -10 306 -10 q 250 10 258 -10 l 31 604 q 25 625 25 621 z "},"w":{"ha":918,"x_min":25,"x_max":893,"o":"m 25 625 q 37 648 25 639 q 64 657 49 657 q 92 640 83 657 l 279 119 l 431 597 q 461 618 436 618 q 490 597 485 618 l 638 113 l 829 640 q 856 657 833 657 q 882 649 871 657 q 893 626 893 640 q 888 606 893 614 l 671 10 q 643 -10 663 -10 q 615 8 624 -10 l 461 497 l 308 15 q 278 -10 300 -10 q 247 15 256 -10 l 31 606 q 25 625 25 622 z "},"x":{"ha":547,"x_min":35,"x_max":513,"o":"m 35 25 q 40 40 35 32 l 229 332 l 42 615 q 38 629 38 622 q 49 653 38 643 q 76 664 61 664 q 100 653 93 664 l 274 386 l 449 651 q 471 664 457 664 q 497 653 485 664 q 510 629 510 643 q 506 615 510 622 l 317 331 l 507 40 q 513 25 513 32 q 500 2 513 13 q 474 -8 488 -8 q 450 3 458 -8 l 274 275 l 99 3 q 74 -8 88 -8 q 47 2 60 -8 q 35 25 35 13 z "},"y":{"ha":567,"x_min":24,"x_max":542,"o":"m 24 632 q 36 656 24 646 q 64 665 49 665 q 90 647 86 665 l 286 113 l 476 647 q 503 665 486 665 q 529 656 517 665 q 542 632 542 646 q 540 621 542 625 l 321 22 l 292 -56 q 261 -130 283 -78 q 221 -208 239 -182 q 176 -266 203 -233 q 120 -312 150 -299 q 57 -326 90 -326 q 25 -294 25 -326 q 50 -262 25 -262 q 251 22 165 -262 l 26 621 q 24 632 24 629 z "},"z":{"ha":546,"x_min":35,"x_max":511,"o":"m 35 28 q 44 54 35 42 l 400 593 l 78 593 q 57 602 65 593 q 49 624 49 611 q 57 647 49 638 q 78 656 65 656 l 467 656 q 488 647 479 656 q 496 626 496 639 q 488 603 496 614 l 131 64 l 482 64 q 503 54 494 64 q 511 31 511 44 q 503 9 511 18 q 482 0 494 0 l 65 0 q 44 8 53 0 q 35 28 35 17 z "},"{":{"ha":413,"x_min":44,"x_max":385,"o":"m 58 509 q 51 513 58 509 q 44 533 44 517 q 58 558 44 550 q 86 566 71 565 q 115 572 101 567 q 128 593 128 578 q 114 711 128 604 q 100 840 100 818 q 174 999 100 932 q 350 1067 249 1067 q 376 1057 367 1067 q 385 1035 385 1047 q 376 1013 385 1022 q 357 1003 368 1003 q 224 952 279 1003 q 169 833 169 901 q 183 707 169 811 q 197 590 197 603 q 181 553 197 569 q 150 533 165 538 q 182 513 167 528 q 197 478 197 499 q 183 337 197 464 q 169 182 169 210 q 231 72 169 107 q 357 36 293 36 q 385 6 385 36 q 350 -28 385 -28 q 172 31 244 -28 q 100 182 100 90 q 114 335 100 207 q 128 475 128 464 q 115 496 128 490 q 86 501 101 501 q 58 509 71 501 z "},"|":{"ha":267,"x_min":99,"x_max":168,"o":"m 99 0 l 99 1038 q 133 1067 99 1067 q 158 1058 147 1067 q 168 1038 168 1050 l 168 0 q 158 -20 168 -11 q 133 -29 147 -29 q 108 -21 118 -29 q 99 0 99 -12 z "},"}":{"ha":413,"x_min":28,"x_max":368,"o":"m 28 6 q 57 36 28 36 q 183 72 121 36 q 244 182 244 107 q 230 337 244 210 q 215 478 215 464 q 231 513 215 499 q 263 533 246 528 q 231 553 246 538 q 215 590 215 568 q 230 707 215 603 q 244 833 244 811 q 190 952 244 901 q 57 1003 135 1003 q 36 1013 44 1003 q 28 1035 28 1022 q 38 1057 28 1047 q 64 1067 47 1067 q 240 999 165 1067 q 314 840 314 932 q 299 711 314 818 q 285 593 285 604 q 298 572 285 578 q 326 566 311 567 q 355 558 342 565 q 368 533 368 550 q 355 509 368 517 q 326 501 342 501 q 298 496 311 501 q 285 475 285 490 q 299 335 285 464 q 314 182 314 207 q 242 31 314 90 q 64 -28 169 -28 q 38 -19 49 -28 q 28 6 28 -10 z "},"~":{"ha":557,"x_min":68,"x_max":488,"o":"m 68 338 q 110 390 68 368 q 192 413 153 413 q 281 388 226 413 q 371 363 335 363 q 432 384 407 363 q 464 406 457 406 q 481 397 474 406 q 488 379 488 389 q 448 325 488 346 q 371 304 408 304 q 282 329 336 304 q 189 354 228 354 q 125 331 154 354 q 90 308 96 308 q 68 338 68 308 z "}," ":{"ha":278,"x_min":0,"x_max":0,"o":""},"¡":{"ha":275,"x_min":82,"x_max":193,"o":"m 98 939 q 90 947 98 939 q 82 979 82 956 q 98 1019 82 1003 q 138 1036 114 1036 q 176 1019 160 1036 q 193 979 193 1003 q 176 939 193 956 q 138 922 160 922 q 98 939 114 922 m 93 40 q 101 413 93 160 q 108 786 108 665 q 117 805 108 797 q 138 813 126 813 q 158 805 149 813 q 167 786 167 797 q 174 413 167 665 q 182 40 182 160 q 169 4 182 17 q 138 -8 157 -8 q 106 4 118 -8 q 93 40 93 17 z "},"¢":{"ha":567,"x_min":53,"x_max":510,"o":"m 53 496 l 53 522 q 104 692 53 624 q 258 776 156 761 l 258 936 q 267 956 258 947 q 288 964 275 964 q 308 956 299 964 q 317 936 317 947 l 317 779 q 451 753 394 778 q 508 696 508 728 q 499 672 508 682 q 475 663 489 663 q 451 676 468 663 q 399 703 433 689 q 317 717 365 717 l 317 303 q 399 317 365 303 q 450 344 433 331 q 475 357 467 357 q 499 347 489 357 q 510 324 510 338 q 450 265 510 290 q 317 239 390 240 l 317 83 q 308 64 317 72 q 288 56 299 56 q 267 64 275 56 q 258 83 258 72 l 258 242 q 105 325 157 257 q 53 496 53 393 m 117 496 q 258 307 117 333 l 258 711 q 117 522 117 682 l 117 496 z "},"£":{"ha":657,"x_min":35,"x_max":601,"o":"m 43 10 q 39 15 43 10 q 35 33 35 19 q 43 57 35 47 q 65 67 51 67 l 150 67 l 211 510 l 99 510 q 72 539 72 510 q 99 571 72 571 l 221 571 l 256 813 q 356 992 271 917 q 547 1067 442 1067 l 569 1067 q 593 1057 585 1067 q 601 1033 601 1047 q 593 1011 601 1021 q 569 1001 585 1001 l 540 1001 q 397 945 460 1001 q 324 813 335 889 l 289 571 l 506 571 q 532 539 532 571 q 506 510 532 510 l 279 510 l 217 67 l 575 67 q 594 57 588 67 q 601 33 601 47 q 594 10 601 19 q 575 0 588 0 l 65 0 q 43 10 51 0 z "},"¤":{"ha":671,"x_min":90,"x_max":585,"o":"m 99 424 q 94 428 99 424 q 90 442 90 432 q 97 458 90 451 l 143 504 q 92 656 92 574 q 142 806 92 738 l 106 843 q 99 861 99 850 q 107 878 99 871 q 126 886 115 886 q 143 879 136 886 l 178 844 q 338 906 249 906 q 490 850 421 906 l 528 888 q 547 894 535 894 q 565 887 557 894 q 572 869 572 879 q 565 851 572 858 l 526 813 q 585 656 585 746 q 525 499 585 567 l 565 458 q 572 442 572 449 q 565 424 572 432 q 547 417 557 417 q 529 424 536 417 l 490 461 q 338 403 421 403 q 178 467 251 403 l 133 424 q 117 417 126 417 q 99 424 107 417 m 206 788 q 179 759 206 788 q 151 656 151 731 q 206 522 151 581 q 338 463 261 463 q 469 522 414 463 q 525 656 525 581 q 469 788 525 729 q 338 846 414 846 q 206 788 261 846 z "},"¥":{"ha":681,"x_min":35,"x_max":646,"o":"m 35 985 q 46 1006 35 996 q 71 1017 57 1017 q 99 999 89 1017 l 335 533 l 583 999 q 611 1017 594 1017 q 635 1007 624 1017 q 646 985 646 997 q 643 974 646 979 l 385 490 l 543 490 q 563 481 554 490 q 572 460 572 472 q 563 439 572 447 q 543 431 554 431 l 368 431 l 368 325 l 543 325 q 563 316 554 325 q 572 294 572 307 q 563 274 572 282 q 543 265 554 265 l 368 265 l 368 29 q 358 8 368 17 q 335 0 349 0 q 310 8 321 0 q 300 29 300 17 l 300 265 l 135 265 q 107 294 107 265 q 115 316 107 307 q 135 325 122 325 l 300 325 l 300 431 l 135 431 q 107 460 107 431 q 135 490 107 490 l 283 490 l 38 974 q 35 985 35 979 z "},"¦":{"ha":268,"x_min":100,"x_max":168,"o":"m 100 0 l 100 385 q 110 404 100 396 q 133 413 119 413 q 158 404 147 413 q 168 385 168 396 l 168 0 q 158 -20 168 -11 q 133 -29 147 -29 q 110 -20 119 -29 q 100 0 100 -11 m 100 653 l 100 1038 q 110 1058 100 1050 q 133 1067 119 1067 q 158 1058 147 1067 q 168 1038 168 1050 l 168 653 q 158 633 168 642 q 133 625 147 625 q 110 633 119 625 q 100 653 100 642 z "},"§":{"ha":643,"x_min":69,"x_max":567,"o":"m 69 138 q 104 172 69 172 q 135 143 135 172 q 147 72 135 107 q 202 4 160 36 q 311 -28 244 -28 q 449 20 401 -28 q 497 157 497 68 q 456 263 497 224 q 354 320 414 301 q 235 361 294 339 q 133 436 175 383 q 92 576 92 489 l 92 754 q 114 883 92 829 q 172 965 136 938 q 246 1003 208 992 q 325 1015 283 1015 q 485 954 429 1015 q 542 794 542 893 q 510 757 542 757 q 475 796 475 757 q 469 844 475 819 q 447 894 463 868 q 401 935 432 919 q 328 951 371 951 q 208 906 258 951 q 158 761 158 860 q 201 655 158 694 q 303 597 243 615 q 422 556 363 578 q 524 481 482 533 q 567 340 567 428 l 567 165 q 498 -28 567 35 q 321 -92 429 -92 q 139 -26 208 -92 q 69 138 69 40 m 157 574 q 198 458 157 501 q 292 401 239 415 q 408 360 344 386 q 503 297 471 333 l 503 342 q 477 438 503 400 q 409 496 451 476 q 322 529 367 515 q 231 565 278 543 q 157 617 183 586 l 157 574 z "},"¨":{"ha":253,"x_min":0,"x_max":253,"o":"m 13 842 q 7 849 13 842 q 0 875 0 856 q 13 907 0 894 q 46 919 26 919 q 78 907 65 919 q 90 875 90 894 q 78 842 90 856 q 46 829 65 829 q 13 842 26 829 m 175 842 q 169 849 175 842 q 163 875 163 856 q 175 907 163 894 q 208 919 188 919 q 240 907 228 919 q 253 875 253 894 q 240 842 253 856 q 208 829 228 829 q 175 842 188 829 z "},"©":{"ha":1006,"x_min":76,"x_max":929,"o":"m 76 497 q 116 698 76 608 q 219 841 156 788 q 358 923 283 894 q 507 951 432 951 q 656 923 582 951 q 791 841 729 894 q 891 699 853 788 q 929 503 929 611 q 890 302 929 392 q 786 159 850 213 q 648 77 722 106 q 499 49 574 49 q 350 77 424 49 q 215 159 276 106 q 115 301 153 213 q 76 497 76 389 m 131 497 q 233 213 131 324 q 499 103 335 103 q 769 214 663 103 q 875 503 875 325 q 773 787 875 676 q 507 897 671 897 q 237 786 343 897 q 131 497 131 675 m 364 396 l 364 622 q 403 746 364 706 q 504 786 442 786 q 607 749 568 786 q 646 656 646 711 q 640 629 646 636 q 617 622 633 622 q 588 644 590 622 q 506 732 583 732 q 421 622 421 732 l 421 396 q 507 286 421 286 q 549 294 532 286 q 573 319 565 303 q 583 347 581 335 q 588 378 586 360 q 617 399 589 399 q 640 392 633 399 q 646 365 646 385 q 607 271 646 308 q 503 233 568 233 q 402 273 440 233 q 364 396 364 313 z "},"ª":{"ha":432,"x_min":51,"x_max":360,"o":"m 51 713 q 104 807 51 781 q 256 833 157 833 l 299 833 l 299 853 q 274 935 299 900 q 199 969 249 969 q 134 956 163 969 q 104 943 106 943 q 87 953 93 943 q 81 975 81 964 q 119 1006 81 992 q 200 1021 157 1021 q 321 973 282 1021 q 360 853 360 925 l 360 628 q 351 611 360 618 q 329 604 343 604 q 310 611 318 604 q 301 628 301 618 l 301 664 q 164 599 243 599 q 83 628 115 599 q 51 713 51 658 m 113 718 q 133 665 113 683 q 186 647 153 647 q 263 678 226 647 q 299 739 299 708 l 299 792 l 258 792 q 151 776 190 792 q 113 718 113 761 z "},"«":{"ha":529,"x_min":51,"x_max":474,"o":"m 63 354 q 51 385 51 372 q 63 415 51 397 l 190 654 q 218 668 200 668 q 243 658 232 668 q 254 635 254 647 q 250 621 254 628 l 122 385 l 250 150 q 254 136 254 144 q 242 113 254 124 q 215 103 231 103 q 190 117 199 103 l 63 354 m 282 354 q 271 385 271 372 q 282 415 271 397 l 410 654 q 438 668 419 668 q 463 658 451 668 q 474 635 474 647 q 469 621 474 628 l 342 385 l 469 150 q 474 136 474 144 q 462 113 474 124 q 435 103 450 103 q 410 117 419 103 l 282 354 z "},"¬":{"ha":671,"x_min":81,"x_max":575,"o":"m 89 311 q 85 315 89 311 q 81 333 81 319 q 89 356 81 347 q 110 365 97 365 l 546 365 q 566 356 557 365 q 575 333 575 346 l 575 117 q 565 96 575 104 q 542 88 556 88 q 517 96 526 88 q 507 117 507 104 l 507 303 l 110 303 q 89 311 97 303 z "},"­":{"ha":639,"x_min":68,"x_max":571,"o":"m 76 311 q 72 315 76 311 q 68 333 68 319 q 76 356 68 347 q 97 365 85 365 l 542 365 q 562 356 553 365 q 571 333 571 347 q 562 311 571 319 q 542 303 553 303 l 97 303 q 76 311 85 303 z "},"®":{"ha":1006,"x_min":76,"x_max":929,"o":"m 76 497 q 116 698 76 608 q 219 841 156 788 q 358 923 283 894 q 507 951 432 951 q 656 923 582 951 q 791 841 729 894 q 891 699 853 788 q 929 503 929 611 q 890 302 929 392 q 786 159 850 213 q 648 77 722 106 q 499 49 574 49 q 350 77 424 49 q 215 159 276 106 q 115 301 153 213 q 76 497 76 389 m 131 497 q 233 213 131 324 q 499 103 335 103 q 769 214 663 103 q 875 503 875 325 q 773 787 875 676 q 507 897 671 897 q 237 786 343 897 q 131 497 131 675 m 375 258 l 375 760 q 396 781 375 778 l 515 781 q 658 632 658 781 q 563 488 658 510 l 657 275 q 660 265 660 267 q 649 245 660 254 q 626 236 639 236 q 603 261 614 236 l 503 481 l 432 481 l 432 258 q 404 238 432 238 q 375 258 375 238 m 432 529 l 515 529 q 603 628 603 529 q 515 728 603 728 l 432 728 l 432 529 z "},"¯":{"ha":361,"x_min":0,"x_max":361,"o":"m 0 919 q 29 950 0 950 l 331 950 q 351 941 342 950 q 361 919 361 932 q 352 899 361 907 q 331 892 343 892 l 29 892 q 0 919 0 892 z "},"°":{"ha":590,"x_min":49,"x_max":542,"o":"m 122 640 q 85 678 122 640 q 49 817 49 717 q 122 992 49 917 q 294 1067 194 1067 q 468 993 394 1067 q 542 817 542 919 q 467 640 542 717 q 294 564 393 564 q 122 640 196 564 m 163 949 q 136 920 163 949 q 108 817 108 892 q 163 683 108 742 q 294 624 218 624 q 426 683 371 624 q 482 817 482 742 q 426 949 482 890 q 294 1007 371 1007 q 163 949 218 1007 z "},"±":{"ha":660,"x_min":78,"x_max":582,"o":"m 86 96 q 82 100 86 96 q 78 118 78 104 q 86 141 78 132 q 107 150 94 150 l 551 150 q 573 140 564 150 q 582 118 582 131 q 573 97 582 106 q 551 88 564 88 l 107 88 q 86 96 94 88 m 78 485 q 86 508 78 499 q 107 517 94 517 l 299 517 l 299 704 q 308 726 299 717 q 331 735 317 735 q 352 726 343 735 q 361 704 361 717 l 361 517 l 551 517 q 573 507 564 517 q 582 485 582 497 q 573 462 582 471 q 551 453 564 453 l 361 453 l 361 264 q 353 243 361 251 q 331 235 344 235 q 308 243 317 235 q 299 264 299 251 l 299 453 l 107 453 q 78 485 78 453 z "},"²":{"ha":421,"x_min":49,"x_max":375,"o":"m 49 521 l 49 589 q 90 666 49 628 q 181 731 131 704 q 272 797 231 758 q 313 875 313 836 q 285 935 313 910 q 210 961 258 961 q 143 941 168 961 q 118 883 118 921 q 110 868 118 875 q 88 861 101 861 q 61 894 61 861 q 104 981 61 947 q 211 1015 147 1015 q 324 976 279 1015 q 369 878 369 936 q 342 799 369 836 q 277 736 315 763 q 200 687 239 710 q 134 639 161 664 q 107 589 107 614 l 107 553 l 354 553 q 369 545 363 553 q 375 526 375 538 q 369 508 375 515 q 354 500 363 500 l 75 500 q 57 506 65 500 q 49 521 49 513 z "},"³":{"ha":429,"x_min":44,"x_max":375,"o":"m 44 615 q 51 636 44 631 q 71 642 57 642 q 101 619 101 642 q 127 571 101 593 q 208 549 153 549 q 319 647 319 549 l 319 660 q 210 746 319 746 q 188 769 188 746 q 210 794 188 794 q 281 813 257 794 q 304 879 304 832 q 213 964 304 964 q 138 943 160 964 q 115 894 115 922 q 88 869 115 869 q 64 876 69 869 q 58 899 58 882 q 94 978 58 942 q 214 1015 131 1015 q 360 890 360 1015 q 296 772 360 799 q 375 660 375 743 l 375 647 q 329 533 375 569 q 210 496 283 496 q 88 533 132 496 q 44 615 44 569 z "},"´":{"ha":199,"x_min":0,"x_max":199,"o":"m 0 860 q 13 881 0 875 l 161 965 q 172 968 167 968 q 192 958 185 968 q 199 936 199 949 q 183 908 199 918 l 44 832 q 31 828 39 828 q 9 838 18 828 q 0 860 0 847 z "},"µ":{"ha":671,"x_min":103,"x_max":604,"o":"m 103 -297 l 103 626 q 113 647 103 638 q 136 656 122 656 q 160 647 150 656 q 171 626 171 638 l 171 217 q 231 112 171 168 q 360 56 292 56 q 483 115 429 56 q 536 246 536 174 l 536 626 q 569 656 536 656 q 604 626 604 656 l 604 246 q 533 66 604 140 q 357 -8 461 -8 q 244 19 294 -8 q 168 89 193 47 l 168 -297 q 158 -318 168 -310 q 136 -326 149 -326 q 113 -318 122 -326 q 103 -297 103 -310 z "},"¶":{"ha":718,"x_min":49,"x_max":607,"o":"m 49 713 l 49 729 q 123 947 49 878 q 321 1015 197 1015 l 578 1015 q 607 985 607 1015 l 607 29 q 578 0 607 0 q 547 29 547 0 l 547 960 l 442 960 l 442 31 q 413 0 442 0 q 382 31 382 0 l 382 425 l 321 425 q 123 494 197 425 q 49 713 49 564 z "},"·":{"ha":246,"x_min":67,"x_max":179,"o":"m 67 417 q 83 456 67 440 q 124 472 99 472 q 163 456 147 472 q 179 417 179 439 q 163 378 179 394 q 124 361 146 361 q 83 378 99 361 q 67 417 67 394 z "},"¸":{"ha":224,"x_min":0,"x_max":224,"o":"m 0 -256 q 6 -237 0 -247 q 19 -226 11 -226 l 44 -236 q 97 -244 69 -244 q 172 -189 172 -244 q 79 -128 172 -135 l 33 -125 l 68 13 l 117 13 l 92 -87 q 191 -117 158 -89 q 224 -186 224 -146 q 192 -258 224 -228 q 106 -289 161 -289 q 36 -280 72 -289 q 0 -256 0 -271 z "},"¹":{"ha":226,"x_min":29,"x_max":153,"o":"m 29 904 q 40 928 29 917 l 108 1007 q 129 1015 119 1015 q 145 1009 138 1015 q 153 994 153 1003 l 153 521 q 125 500 153 500 q 96 521 96 500 l 96 928 l 65 889 q 51 881 60 881 q 29 904 29 881 z "},"º":{"ha":451,"x_min":58,"x_max":393,"o":"m 58 764 l 58 857 q 108 972 58 924 q 226 1021 157 1021 q 343 972 293 1021 q 393 857 393 924 l 393 764 q 343 648 393 699 q 226 597 293 597 q 108 647 158 597 q 58 764 58 697 m 119 764 q 151 686 119 719 q 226 653 182 653 q 301 687 269 653 q 332 764 332 721 l 332 857 q 301 933 332 900 q 226 965 271 965 q 151 933 182 965 q 119 857 119 900 l 119 764 z "},"»":{"ha":529,"x_min":56,"x_max":478,"o":"m 56 136 q 60 150 56 144 l 188 385 l 60 621 q 56 635 56 628 q 67 658 56 647 q 92 668 78 668 q 119 654 110 668 l 247 415 q 258 385 258 397 q 247 354 258 372 l 119 117 q 94 103 111 103 q 68 113 81 103 q 56 136 56 124 m 275 136 q 279 150 275 144 l 407 385 l 279 621 q 275 635 275 628 q 286 658 275 647 q 311 668 297 668 q 339 654 332 668 l 468 415 q 478 385 478 396 q 468 354 478 374 l 339 117 q 314 103 331 103 q 288 113 300 103 q 275 136 275 124 z "},"¼":{"ha":818,"x_min":46,"x_max":783,"o":"m 46 904 q 57 928 46 917 l 125 1007 q 146 1015 136 1015 q 162 1009 154 1015 q 169 994 169 1003 l 169 521 q 142 500 169 500 q 113 521 113 500 l 113 928 l 82 889 q 68 881 76 881 q 46 904 46 881 m 105 -24 q 100 -19 105 -24 q 96 -6 96 -15 q 99 10 96 4 l 636 1053 q 658 1067 642 1067 q 680 1058 669 1067 q 690 1035 690 1049 q 686 1019 690 1028 l 153 -14 q 125 -32 144 -32 q 105 -24 114 -32 m 442 142 q 444 154 442 146 l 640 497 q 667 515 649 515 q 685 508 676 515 q 694 492 694 501 q 692 482 694 488 l 515 174 l 661 174 l 661 294 q 689 314 661 314 q 718 294 718 314 l 718 174 l 761 174 q 783 146 783 174 q 776 128 783 136 q 761 119 769 119 l 718 119 l 718 21 q 689 0 718 0 q 661 21 661 0 l 661 119 l 463 119 q 442 142 442 119 z "},"½":{"ha":851,"x_min":50,"x_max":803,"o":"m 50 904 q 61 928 50 917 l 129 1007 q 150 1015 140 1015 q 166 1009 158 1015 q 174 994 174 1003 l 174 521 q 146 500 174 500 q 117 521 117 500 l 117 928 l 86 889 q 72 881 81 881 q 50 904 50 881 m 87 -24 q 82 -19 87 -24 q 78 -6 78 -15 q 81 10 78 4 l 618 1053 q 640 1067 624 1067 q 662 1058 651 1067 q 672 1035 672 1049 q 668 1019 672 1028 l 135 -14 q 107 -32 126 -32 q 87 -24 96 -32 m 476 21 l 476 89 q 517 166 476 128 q 608 231 558 204 q 699 297 658 258 q 740 375 740 336 q 713 435 740 410 q 638 461 686 461 q 571 441 596 461 q 546 383 546 421 q 538 368 546 375 q 515 361 529 361 q 489 394 489 361 q 532 481 489 447 q 639 515 575 515 q 752 476 707 515 q 797 378 797 436 q 770 299 797 336 q 704 236 743 263 q 627 187 665 210 q 562 139 589 164 q 535 90 535 114 l 535 53 l 782 53 q 797 45 790 53 q 803 26 803 38 q 797 8 803 17 q 782 0 790 0 l 503 0 q 485 6 493 0 q 476 21 476 13 z "},"¾":{"ha":1000,"x_min":47,"x_max":965,"o":"m 47 615 q 53 636 47 631 q 74 642 60 642 q 104 619 104 642 q 130 571 104 593 q 211 549 156 549 q 322 647 322 549 l 322 660 q 213 746 322 746 q 190 769 190 746 q 213 794 190 794 q 283 813 260 794 q 307 879 307 832 q 215 964 307 964 q 140 943 163 964 q 118 894 118 922 q 90 869 118 869 q 67 876 72 869 q 61 899 61 882 q 97 978 61 942 q 217 1015 133 1015 q 363 890 363 1015 q 299 772 363 799 q 378 660 378 743 l 378 647 q 332 533 378 569 q 213 496 286 496 q 91 533 135 496 q 47 615 47 569 m 277 -24 q 273 -19 277 -24 q 268 -6 268 -15 q 271 10 268 4 l 808 1053 q 831 1067 814 1067 q 852 1058 842 1067 q 863 1035 863 1049 q 858 1019 863 1028 l 325 -14 q 297 -32 317 -32 q 277 -24 286 -32 m 624 142 q 626 154 624 146 l 822 497 q 849 515 831 515 q 867 508 858 515 q 876 492 876 501 q 874 482 876 488 l 697 174 l 843 174 l 843 294 q 871 314 843 314 q 900 294 900 314 l 900 174 l 943 174 q 965 146 965 174 q 958 128 965 136 q 943 119 951 119 l 900 119 l 900 21 q 871 0 900 0 q 843 21 843 0 l 843 119 l 644 119 q 624 142 624 119 z "},"¿":{"ha":542,"x_min":50,"x_max":508,"o":"m 50 242 q 74 360 50 304 q 124 446 97 417 q 190 514 150 475 q 242 567 231 553 q 276 644 269 599 q 283 785 283 689 q 314 813 283 813 q 343 781 343 813 q 331 616 343 668 q 290 533 318 564 q 239 483 278 519 q 178 422 200 447 q 135 348 156 396 q 114 246 114 300 q 165 103 114 154 q 313 53 215 53 q 401 68 365 53 q 454 99 436 83 q 482 115 472 115 q 500 106 492 115 q 508 85 508 97 q 447 22 508 53 q 307 -8 386 -8 q 116 62 182 -8 q 50 242 50 132 m 275 939 q 267 947 275 939 q 258 979 258 956 q 274 1019 258 1003 q 314 1036 290 1036 q 353 1019 338 1036 q 369 979 369 1003 q 353 939 369 956 q 314 922 336 922 q 275 939 292 922 z "},"À":{"ha":736,"x_min":32,"x_max":704,"o":"m 32 31 q 33 39 32 36 l 331 999 q 369 1024 339 1024 q 408 999 400 1024 l 703 39 q 703 35 703 38 q 704 31 704 33 q 692 9 704 18 q 664 0 679 0 q 636 21 642 0 l 568 242 l 168 242 l 101 21 q 71 0 94 0 q 44 8 56 0 q 32 31 32 17 m 186 306 l 549 306 l 369 899 l 186 306 m 267 1293 q 274 1315 267 1306 q 294 1325 282 1325 q 304 1322 299 1325 l 453 1238 q 465 1217 465 1232 q 456 1194 465 1204 q 435 1185 447 1185 q 421 1189 429 1185 l 282 1265 q 267 1293 267 1275 z "},"Á":{"ha":736,"x_min":32,"x_max":704,"o":"m 32 31 q 33 39 32 36 l 331 999 q 369 1024 339 1024 q 408 999 400 1024 l 703 39 q 703 35 703 38 q 704 31 704 33 q 692 9 704 18 q 664 0 679 0 q 636 21 642 0 l 568 242 l 168 242 l 101 21 q 71 0 94 0 q 44 8 56 0 q 32 31 32 17 m 186 306 l 549 306 l 369 899 l 186 306 m 275 1217 q 288 1238 275 1232 l 436 1322 q 447 1325 442 1325 q 467 1315 460 1325 q 474 1293 474 1306 q 458 1265 474 1275 l 319 1189 q 306 1185 314 1185 q 284 1194 293 1185 q 275 1217 275 1204 z "},"Â":{"ha":736,"x_min":32,"x_max":704,"o":"m 32 31 q 33 39 32 36 l 331 999 q 369 1024 339 1024 q 408 999 400 1024 l 703 39 q 703 35 703 38 q 704 31 704 33 q 692 9 704 18 q 664 0 679 0 q 636 21 642 0 l 568 242 l 168 242 l 101 21 q 71 0 94 0 q 44 8 56 0 q 32 31 32 17 m 185 1217 q 200 1240 185 1233 l 344 1318 q 368 1325 356 1325 q 392 1318 381 1325 l 536 1242 q 551 1214 551 1233 q 544 1194 551 1203 q 525 1186 536 1186 l 513 1190 l 368 1267 l 224 1189 q 218 1187 222 1189 q 213 1185 214 1185 q 193 1194 201 1185 q 185 1217 185 1203 m 186 306 l 549 306 l 369 899 l 186 306 z "},"Ã":{"ha":736,"x_min":32,"x_max":704,"o":"m 32 31 q 33 39 32 36 l 331 999 q 369 1024 339 1024 q 408 999 400 1024 l 703 39 q 703 35 703 38 q 704 31 704 33 q 692 9 704 18 q 664 0 679 0 q 636 21 642 0 l 568 242 l 168 242 l 101 21 q 71 0 94 0 q 44 8 56 0 q 32 31 32 17 m 160 1243 q 202 1296 160 1274 q 283 1318 244 1318 q 372 1293 318 1318 q 463 1268 426 1268 q 524 1290 499 1268 q 556 1311 549 1311 q 572 1303 565 1311 q 579 1285 579 1294 q 540 1231 579 1251 q 463 1210 500 1210 q 374 1235 428 1210 q 281 1260 319 1260 q 217 1237 246 1260 q 182 1214 188 1214 q 160 1243 160 1214 m 186 306 l 549 306 l 369 899 l 186 306 z "},"Ä":{"ha":736,"x_min":32,"x_max":704,"o":"m 32 31 q 33 39 32 36 l 331 999 q 369 1024 339 1024 q 408 999 400 1024 l 703 39 q 703 35 703 38 q 704 31 704 33 q 692 9 704 18 q 664 0 679 0 q 636 21 642 0 l 568 242 l 168 242 l 101 21 q 71 0 94 0 q 44 8 56 0 q 32 31 32 17 m 186 306 l 549 306 l 369 899 l 186 306 m 255 1199 q 248 1206 255 1199 q 242 1232 242 1213 q 255 1264 242 1251 q 288 1276 268 1276 q 319 1264 307 1276 q 332 1232 332 1251 q 319 1199 332 1213 q 288 1186 307 1186 q 255 1199 268 1186 m 417 1199 q 410 1206 417 1199 q 404 1232 404 1213 q 417 1264 404 1251 q 450 1276 429 1276 q 482 1264 469 1276 q 494 1232 494 1251 q 482 1199 494 1213 q 450 1186 469 1186 q 417 1199 429 1186 z "},"Å":{"ha":736,"x_min":32,"x_max":704,"o":"m 32 31 q 33 39 32 36 l 331 999 q 369 1024 339 1024 q 408 999 400 1024 l 703 39 q 703 35 703 38 q 704 31 704 33 q 692 9 704 18 q 664 0 679 0 q 636 21 642 0 l 568 242 l 168 242 l 101 21 q 71 0 94 0 q 44 8 56 0 q 32 31 32 17 m 186 306 l 549 306 l 369 899 l 186 306 m 242 1296 q 278 1385 242 1347 q 368 1424 315 1424 q 456 1385 418 1424 q 494 1296 494 1347 q 456 1205 494 1244 q 368 1165 418 1165 q 279 1204 317 1165 q 242 1296 242 1243 m 281 1296 q 307 1232 281 1261 q 368 1203 333 1203 q 428 1231 403 1203 q 454 1296 454 1260 q 428 1355 454 1328 q 368 1382 403 1382 q 307 1355 333 1382 q 281 1296 281 1328 z "},"Æ":{"ha":968,"x_min":106,"x_max":931,"o":"m 106 38 l 106 724 q 182 945 106 875 q 385 1015 258 1015 l 903 1015 q 931 983 931 1015 q 903 949 931 949 l 575 949 l 575 540 l 789 540 q 810 531 801 540 q 818 507 818 521 q 789 476 818 476 l 575 476 l 575 67 l 903 67 q 931 32 931 67 q 903 0 931 0 l 539 0 q 506 31 506 0 l 506 476 l 174 476 l 174 38 q 139 0 174 0 q 106 38 106 0 m 174 540 l 506 540 l 506 949 l 385 949 q 228 892 283 949 q 174 724 174 836 l 174 540 z "},"Ç":{"ha":718,"x_min":100,"x_max":660,"o":"m 100 283 l 100 724 q 178 944 100 874 q 383 1015 257 1015 q 585 949 511 1015 q 660 790 660 883 q 651 754 660 764 q 625 744 643 744 q 590 774 590 744 q 580 828 589 803 q 551 884 571 854 q 488 931 531 914 q 383 949 444 949 q 169 724 169 949 l 169 283 q 388 58 169 58 q 474 71 438 58 q 531 99 511 83 q 565 144 551 115 q 582 189 578 172 q 590 235 586 206 q 624 264 593 264 q 651 254 643 264 q 660 217 660 244 q 598 72 660 135 q 429 -4 536 8 l 408 -87 q 508 -117 475 -89 q 540 -186 540 -146 q 509 -258 540 -228 q 422 -289 478 -289 q 353 -280 389 -289 q 317 -256 317 -271 q 322 -237 317 -247 q 336 -226 328 -226 l 361 -236 q 414 -244 386 -244 q 489 -189 489 -244 q 396 -128 489 -135 l 350 -125 l 379 -8 q 177 63 254 -8 q 100 283 100 133 z "},"È":{"ha":699,"x_min":110,"x_max":667,"o":"m 110 31 l 110 985 q 143 1015 110 1015 l 638 1015 q 667 983 667 1015 q 658 959 667 969 q 638 949 650 949 l 179 949 l 179 540 l 400 540 q 421 531 413 540 q 429 507 429 521 q 400 476 429 476 l 179 476 l 179 67 l 638 67 q 658 56 650 67 q 667 32 667 46 q 638 0 667 0 l 143 0 q 110 31 110 0 m 288 1293 q 295 1315 288 1306 q 315 1325 303 1325 q 325 1322 319 1325 l 474 1238 q 486 1217 486 1232 q 477 1194 486 1204 q 456 1185 468 1185 q 442 1189 450 1185 l 303 1265 q 288 1293 288 1275 z "},"É":{"ha":699,"x_min":110,"x_max":667,"o":"m 110 31 l 110 985 q 143 1015 110 1015 l 638 1015 q 667 983 667 1015 q 658 959 667 969 q 638 949 650 949 l 179 949 l 179 540 l 400 540 q 421 531 413 540 q 429 507 429 521 q 400 476 429 476 l 179 476 l 179 67 l 638 67 q 658 56 650 67 q 667 32 667 46 q 638 0 667 0 l 143 0 q 110 31 110 0 m 292 1217 q 304 1238 292 1232 l 453 1322 q 464 1325 458 1325 q 483 1315 476 1325 q 490 1293 490 1306 q 475 1265 490 1275 l 336 1189 q 322 1185 331 1185 q 301 1194 310 1185 q 292 1217 292 1204 z "},"Ê":{"ha":699,"x_min":110,"x_max":667,"o":"m 110 31 l 110 985 q 143 1015 110 1015 l 638 1015 q 667 983 667 1015 q 658 959 667 969 q 638 949 650 949 l 179 949 l 179 540 l 400 540 q 421 531 413 540 q 429 507 429 521 q 400 476 429 476 l 179 476 l 179 67 l 638 67 q 658 56 650 67 q 667 32 667 46 q 638 0 667 0 l 143 0 q 110 31 110 0 m 206 1217 q 221 1240 206 1233 l 365 1318 q 389 1325 376 1325 q 413 1318 401 1325 l 557 1242 q 572 1214 572 1233 q 565 1194 572 1203 q 546 1186 557 1186 l 533 1190 l 389 1267 l 244 1189 q 239 1187 243 1189 q 233 1185 235 1185 q 214 1194 222 1185 q 206 1217 206 1203 z "},"Ë":{"ha":699,"x_min":110,"x_max":667,"o":"m 110 31 l 110 985 q 143 1015 110 1015 l 638 1015 q 667 983 667 1015 q 658 959 667 969 q 638 949 650 949 l 179 949 l 179 540 l 400 540 q 421 531 413 540 q 429 507 429 521 q 400 476 429 476 l 179 476 l 179 67 l 638 67 q 658 56 650 67 q 667 32 667 46 q 638 0 667 0 l 143 0 q 110 31 110 0 m 274 1199 q 268 1206 274 1199 q 261 1232 261 1213 q 274 1264 261 1251 q 307 1276 288 1276 q 339 1264 326 1276 q 351 1232 351 1251 q 339 1199 351 1213 q 307 1186 326 1186 q 274 1199 288 1186 m 436 1199 q 430 1206 436 1199 q 424 1232 424 1213 q 436 1264 424 1251 q 469 1276 449 1276 q 501 1264 489 1276 q 514 1232 514 1251 q 501 1199 514 1213 q 469 1186 489 1186 q 436 1199 449 1186 z "},"Ì":{"ha":289,"x_min":43,"x_max":242,"o":"m 43 1293 q 51 1315 43 1306 q 71 1325 58 1325 q 81 1322 75 1325 l 229 1238 q 242 1217 242 1232 q 233 1194 242 1204 q 211 1185 224 1185 q 197 1189 206 1185 l 58 1265 q 43 1293 43 1275 m 110 31 l 110 986 q 144 1015 110 1015 q 179 986 179 1015 l 179 31 q 144 0 179 0 q 110 31 110 0 z "},"Í":{"ha":289,"x_min":46,"x_max":244,"o":"m 46 1217 q 58 1238 46 1232 l 207 1322 q 218 1325 213 1325 q 238 1315 231 1325 q 244 1293 244 1306 q 229 1265 244 1275 l 90 1189 q 76 1185 83 1185 q 55 1194 64 1185 q 46 1217 46 1204 m 110 31 l 110 986 q 144 1015 110 1015 q 179 986 179 1015 l 179 31 q 144 0 179 0 q 110 31 110 0 z "},"Î":{"ha":289,"x_min":-37,"x_max":329,"o":"m -37 1217 q -22 1240 -37 1233 l 122 1318 q 146 1325 133 1325 q 169 1318 158 1325 l 314 1242 q 329 1214 329 1233 q 322 1194 329 1203 q 303 1186 314 1186 l 290 1190 l 146 1267 l 1 1189 q -4 1187 0 1189 q -10 1185 -8 1185 q -29 1194 -21 1185 q -37 1217 -37 1203 m 110 31 l 110 986 q 144 1015 110 1015 q 179 986 179 1015 l 179 31 q 144 0 179 0 q 110 31 110 0 z "},"Ï":{"ha":289,"x_min":18,"x_max":271,"o":"m 31 1199 q 25 1206 31 1199 q 18 1232 18 1213 q 31 1264 18 1251 q 64 1276 44 1276 q 96 1264 83 1276 q 108 1232 108 1251 q 96 1199 108 1213 q 64 1186 83 1186 q 31 1199 44 1186 m 110 31 l 110 986 q 144 1015 110 1015 q 179 986 179 1015 l 179 31 q 144 0 179 0 q 110 31 110 0 m 193 1199 q 187 1206 193 1199 q 181 1232 181 1213 q 193 1264 181 1251 q 226 1276 206 1276 q 258 1264 246 1276 q 271 1232 271 1251 q 258 1199 271 1213 q 226 1186 246 1186 q 193 1199 206 1186 z "},"Ð":{"ha":783,"x_min":1,"x_max":683,"o":"m 9 512 q 5 516 9 512 q 1 533 1 521 q 9 555 1 546 q 29 564 17 564 l 124 564 l 124 986 q 133 1006 124 997 q 157 1015 143 1015 l 403 1015 q 606 945 529 1015 q 683 724 683 875 l 683 292 q 606 70 683 140 q 403 0 529 0 l 157 0 q 133 9 143 0 q 124 29 124 18 l 124 503 l 29 503 q 9 512 17 503 m 193 67 l 403 67 q 559 123 504 67 q 614 292 614 179 l 614 724 q 559 892 614 836 q 403 949 504 949 l 193 949 l 193 564 l 364 564 q 383 555 375 564 q 392 533 392 546 q 383 512 392 521 q 364 503 375 503 l 193 503 l 193 67 z "},"Ñ":{"ha":782,"x_min":110,"x_max":672,"o":"m 110 31 l 110 986 q 144 1015 110 1015 q 201 958 171 1015 l 603 165 l 603 986 q 638 1015 603 1015 q 672 986 672 1015 l 672 31 q 638 0 672 0 q 588 51 615 0 l 179 851 l 179 31 q 144 0 179 0 q 110 31 110 0 m 181 1243 q 223 1296 181 1274 q 304 1318 265 1318 q 393 1293 339 1318 q 483 1268 447 1268 q 544 1290 519 1268 q 576 1311 569 1311 q 593 1303 586 1311 q 600 1285 600 1294 q 560 1231 600 1251 q 483 1210 521 1210 q 394 1235 449 1210 q 301 1260 340 1260 q 238 1237 267 1260 q 203 1214 208 1214 q 181 1243 181 1214 z "},"Ò":{"ha":760,"x_min":100,"x_max":660,"o":"m 100 283 l 100 724 q 176 945 100 875 q 379 1015 251 1015 q 583 945 506 1015 q 660 724 660 875 l 660 283 q 583 62 660 132 q 379 -8 506 -8 q 176 62 251 -8 q 100 283 100 132 m 169 283 q 379 58 169 58 q 535 115 481 58 q 590 283 590 171 l 590 724 q 535 892 590 836 q 379 949 481 949 q 169 724 169 949 l 169 283 m 278 1293 q 285 1315 278 1306 q 306 1325 293 1325 q 315 1322 310 1325 l 464 1238 q 476 1217 476 1232 q 467 1194 476 1204 q 446 1185 458 1185 q 432 1189 440 1185 l 293 1265 q 278 1293 278 1275 z "},"Ó":{"ha":760,"x_min":100,"x_max":660,"o":"m 100 283 l 100 724 q 176 945 100 875 q 379 1015 251 1015 q 583 945 506 1015 q 660 724 660 875 l 660 283 q 583 62 660 132 q 379 -8 506 -8 q 176 62 251 -8 q 100 283 100 132 m 169 283 q 379 58 169 58 q 535 115 481 58 q 590 283 590 171 l 590 724 q 535 892 590 836 q 379 949 481 949 q 169 724 169 949 l 169 283 m 288 1217 q 300 1238 288 1232 l 449 1322 q 460 1325 454 1325 q 479 1315 472 1325 q 486 1293 486 1306 q 471 1265 486 1275 l 332 1189 q 318 1185 325 1185 q 297 1194 306 1185 q 288 1217 288 1204 z "},"Ô":{"ha":760,"x_min":100,"x_max":660,"o":"m 100 283 l 100 724 q 176 945 100 875 q 379 1015 251 1015 q 583 945 506 1015 q 660 724 660 875 l 660 283 q 583 62 660 132 q 379 -8 506 -8 q 176 62 251 -8 q 100 283 100 132 m 169 283 q 379 58 169 58 q 535 115 481 58 q 590 283 590 171 l 590 724 q 535 892 590 836 q 379 949 481 949 q 169 724 169 949 l 169 283 m 196 1217 q 211 1240 196 1233 l 356 1318 q 379 1325 367 1325 q 403 1318 392 1325 l 547 1242 q 563 1214 563 1233 q 555 1194 563 1203 q 536 1186 547 1186 l 524 1190 l 379 1267 l 235 1189 q 229 1187 233 1189 q 224 1185 225 1185 q 204 1194 213 1185 q 196 1217 196 1203 z "},"Õ":{"ha":760,"x_min":100,"x_max":660,"o":"m 100 283 l 100 724 q 176 945 100 875 q 379 1015 251 1015 q 583 945 506 1015 q 660 724 660 875 l 660 283 q 583 62 660 132 q 379 -8 506 -8 q 176 62 251 -8 q 100 283 100 132 m 169 283 q 379 58 169 58 q 535 115 481 58 q 590 283 590 171 l 590 724 q 535 892 590 836 q 379 949 481 949 q 169 724 169 949 l 169 283 m 169 1243 q 212 1296 169 1274 q 293 1318 254 1318 q 382 1293 328 1318 q 472 1268 436 1268 q 533 1290 508 1268 q 565 1311 558 1311 q 582 1303 575 1311 q 589 1285 589 1294 q 549 1231 589 1251 q 472 1210 510 1210 q 383 1235 438 1210 q 290 1260 329 1260 q 226 1237 256 1260 q 192 1214 197 1214 q 169 1243 169 1214 z "},"Ö":{"ha":760,"x_min":100,"x_max":660,"o":"m 100 283 l 100 724 q 176 945 100 875 q 379 1015 251 1015 q 583 945 506 1015 q 660 724 660 875 l 660 283 q 583 62 660 132 q 379 -8 506 -8 q 176 62 251 -8 q 100 283 100 132 m 169 283 q 379 58 169 58 q 535 115 481 58 q 590 283 590 171 l 590 724 q 535 892 590 836 q 379 949 481 949 q 169 724 169 949 l 169 283 m 266 1199 q 259 1206 266 1199 q 253 1232 253 1213 q 266 1264 253 1251 q 299 1276 279 1276 q 331 1264 318 1276 q 343 1232 343 1251 q 331 1199 343 1213 q 299 1186 318 1186 q 266 1199 279 1186 m 428 1199 q 422 1206 428 1199 q 415 1232 415 1213 q 428 1264 415 1251 q 461 1276 440 1276 q 493 1264 481 1276 q 506 1232 506 1251 q 493 1199 506 1213 q 461 1186 481 1186 q 428 1199 440 1186 z "},"×":{"ha":549,"x_min":86,"x_max":463,"o":"m 86 228 q 94 247 86 236 l 232 382 l 94 517 q 88 538 88 524 q 97 560 88 550 q 119 569 107 569 q 140 563 131 569 l 274 426 l 408 563 q 429 569 418 569 q 451 560 442 569 q 461 538 461 550 q 454 517 461 524 l 317 382 l 454 247 q 463 228 463 236 q 452 205 463 215 q 429 194 442 194 q 410 203 419 194 l 274 338 l 139 203 q 119 194 128 194 q 97 205 107 194 q 86 228 86 215 z "},"Ø":{"ha":760,"x_min":83,"x_max":678,"o":"m 83 -6 q 86 10 83 4 l 138 111 q 100 283 100 179 l 100 724 q 176 945 100 875 q 379 1015 251 1015 q 571 954 500 1015 l 622 1053 q 646 1067 629 1067 q 667 1058 657 1067 q 678 1035 678 1049 q 672 1019 678 1026 l 614 906 q 660 724 660 836 l 660 283 q 583 62 660 132 q 379 -8 506 -8 q 178 60 247 -8 l 140 -14 q 111 -32 131 -32 q 92 -24 100 -32 q 83 -6 83 -17 m 169 283 q 181 193 169 235 l 538 889 q 379 949 483 949 q 169 724 169 949 l 169 283 m 213 126 q 379 58 267 58 q 535 115 481 58 q 590 283 590 171 l 590 724 q 574 828 590 783 l 213 126 z "},"Ù":{"ha":774,"x_min":106,"x_max":668,"o":"m 106 283 l 106 986 q 140 1015 106 1015 q 175 986 175 1015 l 175 283 q 230 115 175 171 q 386 58 285 58 q 543 115 488 58 q 599 283 599 171 l 599 986 q 633 1015 599 1015 q 668 986 668 1015 l 668 283 q 591 62 668 132 q 386 -8 514 -8 q 182 62 258 -8 q 106 283 106 132 m 283 1293 q 291 1315 283 1306 q 311 1325 299 1325 q 321 1322 315 1325 l 469 1238 q 482 1217 482 1232 q 473 1194 482 1204 q 451 1185 464 1185 q 438 1189 446 1185 l 299 1265 q 283 1293 283 1275 z "},"Ú":{"ha":774,"x_min":106,"x_max":668,"o":"m 106 283 l 106 986 q 140 1015 106 1015 q 175 986 175 1015 l 175 283 q 230 115 175 171 q 386 58 285 58 q 543 115 488 58 q 599 283 599 171 l 599 986 q 633 1015 599 1015 q 668 986 668 1015 l 668 283 q 591 62 668 132 q 386 -8 514 -8 q 182 62 258 -8 q 106 283 106 132 m 292 1217 q 304 1238 292 1232 l 453 1322 q 464 1325 458 1325 q 483 1315 476 1325 q 490 1293 490 1306 q 475 1265 490 1275 l 336 1189 q 322 1185 331 1185 q 301 1194 310 1185 q 292 1217 292 1204 z "},"Û":{"ha":774,"x_min":106,"x_max":668,"o":"m 106 283 l 106 986 q 140 1015 106 1015 q 175 986 175 1015 l 175 283 q 230 115 175 171 q 386 58 285 58 q 543 115 488 58 q 599 283 599 171 l 599 986 q 633 1015 599 1015 q 668 986 668 1015 l 668 283 q 591 62 668 132 q 386 -8 514 -8 q 182 62 258 -8 q 106 283 106 132 m 201 1217 q 217 1240 201 1233 l 361 1318 q 385 1325 372 1325 q 408 1318 397 1325 l 553 1242 q 568 1214 568 1233 q 560 1194 568 1203 q 542 1186 553 1186 l 529 1190 l 385 1267 l 240 1189 q 235 1187 239 1189 q 229 1185 231 1185 q 210 1194 218 1185 q 201 1217 201 1203 z "},"Ü":{"ha":774,"x_min":106,"x_max":668,"o":"m 106 283 l 106 986 q 140 1015 106 1015 q 175 986 175 1015 l 175 283 q 230 115 175 171 q 386 58 285 58 q 543 115 488 58 q 599 283 599 171 l 599 986 q 633 1015 599 1015 q 668 986 668 1015 l 668 283 q 591 62 668 132 q 386 -8 514 -8 q 182 62 258 -8 q 106 283 106 132 m 273 1199 q 266 1206 273 1199 q 260 1232 260 1213 q 273 1264 260 1251 q 306 1276 286 1276 q 338 1264 325 1276 q 350 1232 350 1251 q 338 1199 350 1213 q 306 1186 325 1186 q 273 1199 286 1186 m 435 1199 q 428 1206 435 1199 q 422 1232 422 1213 q 435 1264 422 1251 q 468 1276 447 1276 q 500 1264 488 1276 q 513 1232 513 1251 q 500 1199 513 1213 q 468 1186 488 1186 q 435 1199 447 1186 z "},"Ý":{"ha":722,"x_min":29,"x_max":692,"o":"m 29 985 q 39 1007 29 999 q 63 1015 49 1015 q 94 990 81 1015 l 361 456 l 629 990 q 661 1015 642 1015 q 683 1007 674 1015 q 692 985 692 999 q 686 958 692 969 l 397 393 q 396 383 396 390 l 396 31 q 361 0 396 0 q 326 31 326 0 l 326 383 q 324 393 326 388 l 36 958 q 29 985 29 976 m 264 1217 q 276 1238 264 1232 l 425 1322 q 436 1325 431 1325 q 456 1315 449 1325 q 463 1293 463 1306 q 447 1265 463 1275 l 308 1189 q 294 1185 303 1185 q 273 1194 282 1185 q 264 1217 264 1204 z "},"Þ":{"ha":678,"x_min":110,"x_max":613,"o":"m 110 31 l 110 990 q 143 1018 110 1018 q 178 989 178 1018 l 178 754 q 374 860 239 860 q 542 802 472 860 q 613 647 613 744 l 613 400 q 542 244 613 303 q 381 186 471 186 q 255 217 314 186 q 178 294 196 247 l 178 31 q 168 10 178 19 q 144 0 158 0 q 120 10 131 0 q 110 31 110 19 m 178 399 q 233 297 178 343 q 368 250 289 250 q 492 290 439 250 q 544 400 544 329 l 544 647 q 492 756 544 717 q 368 794 440 794 q 234 753 290 794 q 178 647 178 711 l 178 399 z "},"ß":{"ha":749,"x_min":10,"x_max":690,"o":"m 10 625 q 17 647 10 638 q 38 656 25 656 l 144 656 l 144 814 q 199 996 144 925 q 365 1067 253 1067 q 531 1003 468 1067 q 593 817 593 940 q 567 667 593 736 q 493 576 540 599 q 628 482 567 563 q 690 300 690 401 l 690 275 q 619 50 690 128 q 450 -28 549 -28 q 351 -15 401 -28 q 300 28 300 -3 q 308 50 300 40 q 325 60 315 60 q 363 46 328 60 q 438 32 399 32 q 576 94 525 32 q 626 272 626 156 l 626 299 q 572 458 626 388 q 403 538 518 528 q 378 541 386 539 q 365 549 371 543 q 358 568 358 556 q 404 600 358 597 q 529 796 529 607 q 488 947 529 893 q 368 1001 447 1001 q 249 949 286 1001 q 213 814 213 896 l 213 29 q 202 8 213 17 q 176 0 192 0 q 144 29 144 0 l 144 596 l 38 596 q 10 625 10 596 z "},"à":{"ha":599,"x_min":46,"x_max":513,"o":"m 46 175 q 128 320 46 279 q 369 361 211 361 l 444 361 l 444 397 q 401 541 444 481 q 269 601 357 601 q 171 582 217 601 q 124 563 125 563 q 101 575 110 563 q 93 600 93 588 q 151 644 93 624 q 272 664 208 664 q 454 588 396 664 q 513 397 513 513 l 513 31 q 503 9 513 18 q 479 0 493 0 q 456 9 465 0 q 446 31 446 18 l 446 97 q 238 -8 354 -8 q 99 38 153 -8 q 46 175 46 85 m 114 178 q 151 84 114 115 q 247 53 188 53 q 381 103 318 53 q 444 203 444 154 l 444 306 l 376 306 q 276 301 317 306 q 196 285 236 297 q 135 247 156 274 q 114 178 114 219 m 179 936 q 187 958 179 949 q 207 968 194 968 q 217 965 211 968 l 365 881 q 378 860 378 875 q 369 838 378 847 q 347 828 360 828 q 333 832 342 828 l 194 908 q 179 936 179 918 z "},"á":{"ha":599,"x_min":46,"x_max":513,"o":"m 46 175 q 128 320 46 279 q 369 361 211 361 l 444 361 l 444 397 q 401 541 444 481 q 269 601 357 601 q 171 582 217 601 q 124 563 125 563 q 101 575 110 563 q 93 600 93 588 q 151 644 93 624 q 272 664 208 664 q 454 588 396 664 q 513 397 513 513 l 513 31 q 503 9 513 18 q 479 0 493 0 q 456 9 465 0 q 446 31 446 18 l 446 97 q 238 -8 354 -8 q 99 38 153 -8 q 46 175 46 85 m 114 178 q 151 84 114 115 q 247 53 188 53 q 381 103 318 53 q 444 203 444 154 l 444 306 l 376 306 q 276 301 317 306 q 196 285 236 297 q 135 247 156 274 q 114 178 114 219 m 183 860 q 196 881 183 875 l 344 965 q 356 968 350 968 q 375 958 368 968 q 382 936 382 949 q 367 908 382 918 l 228 832 q 214 828 222 828 q 192 838 201 828 q 183 860 183 847 z "},"â":{"ha":599,"x_min":46,"x_max":513,"o":"m 46 175 q 128 320 46 279 q 369 361 211 361 l 444 361 l 444 397 q 401 541 444 481 q 269 601 357 601 q 171 582 217 601 q 124 563 125 563 q 101 575 110 563 q 93 600 93 588 q 151 644 93 624 q 272 664 208 664 q 454 588 396 664 q 513 397 513 513 l 513 31 q 503 9 513 18 q 479 0 493 0 q 456 9 465 0 q 446 31 446 18 l 446 97 q 238 -8 354 -8 q 99 38 153 -8 q 46 175 46 85 m 100 860 q 115 883 100 875 l 260 961 q 283 968 271 968 q 307 961 296 968 l 451 885 q 467 857 467 876 q 459 838 467 846 q 440 829 451 829 l 428 833 l 283 910 l 139 832 q 133 830 138 832 q 128 828 129 828 q 108 837 117 828 q 100 860 100 846 m 114 178 q 151 84 114 115 q 247 53 188 53 q 381 103 318 53 q 444 203 444 154 l 444 306 l 376 306 q 276 301 317 306 q 196 285 236 297 q 135 247 156 274 q 114 178 114 219 z "},"ã":{"ha":599,"x_min":46,"x_max":513,"o":"m 46 175 q 128 320 46 279 q 369 361 211 361 l 444 361 l 444 397 q 401 541 444 481 q 269 601 357 601 q 171 582 217 601 q 124 563 125 563 q 101 575 110 563 q 93 600 93 588 q 151 644 93 624 q 272 664 208 664 q 454 588 396 664 q 513 397 513 513 l 513 31 q 503 9 513 18 q 479 0 493 0 q 456 9 465 0 q 446 31 446 18 l 446 97 q 238 -8 354 -8 q 99 38 153 -8 q 46 175 46 85 m 69 886 q 112 939 69 917 q 193 961 154 961 q 282 936 228 961 q 372 911 336 911 q 433 933 408 911 q 465 954 458 954 q 482 946 475 954 q 489 928 489 938 q 449 874 489 894 q 372 853 410 853 q 283 878 338 853 q 190 903 229 903 q 126 880 156 903 q 92 857 97 857 q 69 886 69 857 m 114 178 q 151 84 114 115 q 247 53 188 53 q 381 103 318 53 q 444 203 444 154 l 444 306 l 376 306 q 276 301 317 306 q 196 285 236 297 q 135 247 156 274 q 114 178 114 219 z "},"ä":{"ha":599,"x_min":46,"x_max":513,"o":"m 46 175 q 128 320 46 279 q 369 361 211 361 l 444 361 l 444 397 q 401 541 444 481 q 269 601 357 601 q 171 582 217 601 q 124 563 125 563 q 101 575 110 563 q 93 600 93 588 q 151 644 93 624 q 272 664 208 664 q 454 588 396 664 q 513 397 513 513 l 513 31 q 503 9 513 18 q 479 0 493 0 q 456 9 465 0 q 446 31 446 18 l 446 97 q 238 -8 354 -8 q 99 38 153 -8 q 46 175 46 85 m 114 178 q 151 84 114 115 q 247 53 188 53 q 381 103 318 53 q 444 203 444 154 l 444 306 l 376 306 q 276 301 317 306 q 196 285 236 297 q 135 247 156 274 q 114 178 114 219 m 166 842 q 159 849 166 842 q 153 875 153 856 q 166 907 153 894 q 199 919 179 919 q 231 907 218 919 q 243 875 243 894 q 231 842 243 856 q 199 829 218 829 q 166 842 179 829 m 328 842 q 322 849 328 842 q 315 875 315 856 q 328 907 315 894 q 361 919 340 919 q 393 907 381 919 q 406 875 406 894 q 393 842 406 856 q 361 829 381 829 q 328 842 340 829 z "},"å":{"ha":599,"x_min":46,"x_max":513,"o":"m 46 175 q 128 320 46 279 q 369 361 211 361 l 444 361 l 444 397 q 401 541 444 481 q 269 601 357 601 q 171 582 217 601 q 124 563 125 563 q 101 575 110 563 q 93 600 93 588 q 151 644 93 624 q 272 664 208 664 q 454 588 396 664 q 513 397 513 513 l 513 31 q 503 9 513 18 q 479 0 493 0 q 456 9 465 0 q 446 31 446 18 l 446 97 q 238 -8 354 -8 q 99 38 153 -8 q 46 175 46 85 m 114 178 q 151 84 114 115 q 247 53 188 53 q 381 103 318 53 q 444 203 444 154 l 444 306 l 376 306 q 276 301 317 306 q 196 285 236 297 q 135 247 156 274 q 114 178 114 219 m 154 939 q 191 1028 154 990 q 281 1067 228 1067 q 369 1028 331 1067 q 407 939 407 990 q 369 848 407 888 q 281 808 331 808 q 192 847 229 808 q 154 939 154 886 m 193 939 q 219 875 193 904 q 281 846 246 846 q 341 874 315 846 q 367 939 367 903 q 341 998 367 971 q 281 1025 315 1025 q 219 998 246 1025 q 193 939 193 971 z "},"æ":{"ha":1004,"x_min":46,"x_max":951,"o":"m 46 174 q 127 320 46 279 q 367 361 208 361 l 442 361 l 442 399 q 398 543 442 483 q 264 603 354 603 q 167 583 214 603 q 119 564 121 564 q 99 577 108 564 q 90 601 90 590 q 148 645 90 625 q 271 665 206 665 q 482 531 426 665 q 572 627 514 590 q 699 664 631 664 q 874 597 796 664 q 951 396 951 529 q 928 322 951 339 q 835 306 906 306 l 515 306 l 515 247 q 576 107 515 160 q 733 54 638 54 q 817 68 782 54 q 872 96 853 82 q 901 110 892 110 q 922 99 913 110 q 932 76 932 89 q 863 19 932 46 q 718 -8 793 -8 q 573 29 639 -8 q 475 133 507 67 q 370 26 435 61 q 239 -8 306 -8 q 101 38 156 -8 q 46 174 46 85 m 114 175 q 151 84 114 115 q 246 53 188 53 q 381 103 321 53 q 442 203 442 154 l 442 306 l 374 306 q 293 303 326 306 q 223 294 260 301 q 165 272 186 286 q 128 234 143 258 q 114 175 114 210 m 515 363 l 808 363 q 871 372 857 363 q 885 410 885 382 q 833 545 885 488 q 700 603 781 603 q 569 549 622 603 q 515 421 515 496 l 515 363 z "},"ç":{"ha":564,"x_min":68,"x_max":525,"o":"m 68 249 l 68 407 q 134 592 68 521 q 329 664 200 664 q 463 635 408 664 q 517 579 517 607 q 507 556 517 567 q 485 546 497 546 q 460 559 478 546 q 410 586 443 572 q 331 600 376 600 q 187 549 238 600 q 136 407 136 497 l 136 249 q 186 106 136 157 q 332 56 236 56 q 415 69 381 56 q 468 97 450 83 q 494 111 486 111 q 516 101 507 111 q 525 78 525 90 q 476 24 525 51 q 350 -7 426 -3 l 331 -87 q 430 -117 397 -89 q 463 -186 463 -146 q 431 -258 463 -228 q 344 -289 400 -289 q 275 -280 311 -289 q 239 -256 239 -271 q 244 -237 239 -247 q 258 -226 250 -226 l 283 -236 q 336 -244 308 -244 q 411 -189 411 -244 q 318 -128 411 -135 l 272 -125 l 301 -7 q 127 69 186 0 q 68 249 68 139 z "},"è":{"ha":626,"x_min":67,"x_max":575,"o":"m 67 249 l 67 414 q 142 590 67 517 q 322 664 217 664 q 500 592 425 664 q 575 413 575 519 q 566 352 575 375 q 538 319 557 329 q 502 308 518 310 q 457 306 486 306 l 135 306 l 135 247 q 197 107 135 160 q 358 54 260 54 q 443 68 408 54 q 496 96 478 82 q 524 110 514 110 q 546 99 536 110 q 556 76 556 88 q 498 21 556 50 q 356 -8 440 -8 q 147 63 228 -8 q 67 249 67 133 m 135 363 l 431 363 q 493 372 478 363 q 508 413 508 382 q 456 544 508 486 q 322 603 403 603 q 190 549 244 603 q 135 419 135 494 l 135 363 m 219 936 q 227 958 219 949 q 247 968 235 968 q 257 965 251 968 l 406 881 q 418 860 418 875 q 409 838 418 847 q 388 828 400 828 q 374 832 382 828 l 235 908 q 219 936 219 918 z "},"é":{"ha":626,"x_min":67,"x_max":575,"o":"m 67 249 l 67 414 q 142 590 67 517 q 322 664 217 664 q 500 592 425 664 q 575 413 575 519 q 566 352 575 375 q 538 319 557 329 q 502 308 518 310 q 457 306 486 306 l 135 306 l 135 247 q 197 107 135 160 q 358 54 260 54 q 443 68 408 54 q 496 96 478 82 q 524 110 514 110 q 546 99 536 110 q 556 76 556 88 q 498 21 556 50 q 356 -8 440 -8 q 147 63 228 -8 q 67 249 67 133 m 135 363 l 431 363 q 493 372 478 363 q 508 413 508 382 q 456 544 508 486 q 322 603 403 603 q 190 549 244 603 q 135 419 135 494 l 135 363 m 222 860 q 235 881 222 875 l 383 965 q 394 968 389 968 q 414 958 407 968 q 421 936 421 949 q 406 908 421 918 l 267 832 q 253 828 261 828 q 231 838 240 828 q 222 860 222 847 z "},"ê":{"ha":626,"x_min":67,"x_max":575,"o":"m 67 249 l 67 414 q 142 590 67 517 q 322 664 217 664 q 500 592 425 664 q 575 413 575 519 q 566 352 575 375 q 538 319 557 329 q 502 308 518 310 q 457 306 486 306 l 135 306 l 135 247 q 197 107 135 160 q 358 54 260 54 q 443 68 408 54 q 496 96 478 82 q 524 110 514 110 q 546 99 536 110 q 556 76 556 88 q 498 21 556 50 q 356 -8 440 -8 q 147 63 228 -8 q 67 249 67 133 m 135 363 l 431 363 q 493 372 478 363 q 508 413 508 382 q 456 544 508 486 q 322 603 403 603 q 190 549 244 603 q 135 419 135 494 l 135 363 m 138 860 q 153 883 138 875 l 297 961 q 321 968 308 968 q 344 961 333 968 l 489 885 q 504 857 504 876 q 497 838 504 846 q 478 829 489 829 l 465 833 l 321 910 l 176 832 q 171 830 175 832 q 165 828 167 828 q 146 837 154 828 q 138 860 138 846 z "},"ë":{"ha":626,"x_min":67,"x_max":575,"o":"m 67 249 l 67 414 q 142 590 67 517 q 322 664 217 664 q 500 592 425 664 q 575 413 575 519 q 566 352 575 375 q 538 319 557 329 q 502 308 518 310 q 457 306 486 306 l 135 306 l 135 247 q 197 107 135 160 q 358 54 260 54 q 443 68 408 54 q 496 96 478 82 q 524 110 514 110 q 546 99 536 110 q 556 76 556 88 q 498 21 556 50 q 356 -8 440 -8 q 147 63 228 -8 q 67 249 67 133 m 135 363 l 431 363 q 493 372 478 363 q 508 413 508 382 q 456 544 508 486 q 322 603 403 603 q 190 549 244 603 q 135 419 135 494 l 135 363 m 208 842 q 201 849 208 842 q 194 875 194 856 q 208 907 194 894 q 240 919 221 919 q 272 907 260 919 q 285 875 285 894 q 272 842 285 856 q 240 829 260 829 q 208 842 221 829 m 369 842 q 363 849 369 842 q 357 875 357 856 q 369 907 357 894 q 403 919 382 919 q 435 907 422 919 q 447 875 447 894 q 435 842 447 856 q 403 829 422 829 q 369 842 382 829 z "},"ì":{"ha":251,"x_min":21,"x_max":219,"o":"m 21 936 q 28 958 21 949 q 49 968 36 968 q 58 965 53 968 l 207 881 q 219 860 219 875 q 210 838 219 847 q 189 828 201 828 q 175 832 183 828 l 36 908 q 21 936 21 918 m 92 31 l 92 628 q 125 656 92 656 q 160 628 160 656 l 160 31 q 149 10 160 19 q 125 0 139 0 q 101 9 111 0 q 92 31 92 18 z "},"í":{"ha":251,"x_min":28,"x_max":226,"o":"m 28 860 q 40 881 28 875 l 189 965 q 200 968 194 968 q 219 958 213 968 q 226 936 226 949 q 211 908 226 918 l 72 832 q 58 828 67 828 q 37 838 46 828 q 28 860 28 847 m 92 31 l 92 628 q 125 656 92 656 q 160 628 160 656 l 160 31 q 149 10 160 19 q 125 0 139 0 q 101 9 111 0 q 92 31 92 18 z "},"î":{"ha":251,"x_min":-58,"x_max":308,"o":"m -58 860 q -43 883 -58 875 l 101 961 q 125 968 113 968 q 149 961 138 968 l 293 885 q 308 857 308 876 q 301 838 308 846 q 282 829 293 829 l 269 833 l 125 910 l -19 832 q -25 830 -21 832 q -31 828 -29 828 q -50 837 -42 828 q -58 860 -58 846 m 92 31 l 92 628 q 125 656 92 656 q 160 628 160 656 l 160 31 q 149 10 160 19 q 125 0 139 0 q 101 9 111 0 q 92 31 92 18 z "},"ï":{"ha":251,"x_min":0,"x_max":253,"o":"m 13 842 q 7 849 13 842 q 0 875 0 856 q 13 907 0 894 q 46 919 26 919 q 78 907 65 919 q 90 875 90 894 q 78 842 90 856 q 46 829 65 829 q 13 842 26 829 m 92 31 l 92 628 q 125 656 92 656 q 160 628 160 656 l 160 31 q 149 10 160 19 q 125 0 139 0 q 101 9 111 0 q 92 31 92 18 m 175 842 q 169 849 175 842 q 163 875 163 856 q 175 907 163 894 q 208 919 188 919 q 240 907 228 919 q 253 875 253 894 q 240 842 253 856 q 208 829 228 829 q 175 842 188 829 z "},"ð":{"ha":660,"x_min":67,"x_max":576,"o":"m 67 249 l 67 410 q 139 588 67 513 q 313 664 211 664 q 433 632 375 664 q 508 547 490 600 q 400 869 490 746 l 274 797 q 260 792 268 792 q 240 802 249 792 q 231 825 231 813 q 244 847 231 842 l 363 915 q 193 997 285 997 q 174 1026 174 1001 q 215 1064 174 1064 q 424 951 324 1064 l 529 1013 q 540 1015 538 1015 q 561 1006 551 1015 q 571 985 571 996 q 557 961 571 969 l 458 904 q 576 503 576 738 l 576 249 q 499 69 576 147 q 321 -8 422 -8 q 142 69 218 -8 q 67 249 67 146 m 135 249 q 190 115 135 174 q 321 56 244 56 q 453 115 397 56 q 508 249 508 174 l 508 415 q 452 544 508 488 q 319 600 396 600 q 189 542 243 600 q 135 410 135 483 l 135 249 z "},"ñ":{"ha":678,"x_min":92,"x_max":593,"o":"m 92 31 l 92 628 q 125 656 92 656 q 149 648 139 656 q 158 628 158 640 l 158 558 q 231 633 182 603 q 344 664 279 664 q 519 589 446 664 q 593 410 593 514 l 593 31 q 558 0 593 0 q 525 31 525 0 l 525 410 q 469 542 525 483 q 339 600 414 600 q 214 548 268 600 q 160 410 160 496 l 160 31 q 149 10 160 19 q 125 0 139 0 q 101 9 111 0 q 92 31 92 18 m 126 886 q 169 939 126 917 q 250 961 211 961 q 339 936 285 961 q 429 911 393 911 q 490 933 465 911 q 522 954 515 954 q 539 946 532 954 q 546 928 546 938 q 506 874 546 894 q 429 853 467 853 q 340 878 394 853 q 247 903 286 903 q 183 880 213 903 q 149 857 154 857 q 126 886 126 857 z "},"ò":{"ha":640,"x_min":65,"x_max":575,"o":"m 65 249 l 65 410 q 140 588 65 513 q 319 664 215 664 q 499 589 422 664 q 575 410 575 514 l 575 249 q 498 69 575 147 q 319 -8 421 -8 q 142 69 218 -8 q 65 249 65 146 m 133 249 q 188 115 133 174 q 319 56 243 56 q 451 115 396 56 q 507 249 507 174 l 507 410 q 451 542 507 483 q 319 600 396 600 q 188 542 243 600 q 133 410 133 483 l 133 249 m 218 936 q 226 958 218 949 q 246 968 233 968 q 256 965 250 968 l 404 881 q 417 860 417 875 q 408 838 417 847 q 386 828 399 828 q 372 832 381 828 l 233 908 q 218 936 218 918 z "},"ó":{"ha":640,"x_min":65,"x_max":575,"o":"m 65 249 l 65 410 q 140 588 65 513 q 319 664 215 664 q 499 589 422 664 q 575 410 575 514 l 575 249 q 498 69 575 147 q 319 -8 421 -8 q 142 69 218 -8 q 65 249 65 146 m 133 249 q 188 115 133 174 q 319 56 243 56 q 451 115 396 56 q 507 249 507 174 l 507 410 q 451 542 507 483 q 319 600 396 600 q 188 542 243 600 q 133 410 133 483 l 133 249 m 221 860 q 233 881 221 875 l 382 965 q 393 968 388 968 q 413 958 406 968 q 419 936 419 949 q 404 908 419 918 l 265 832 q 251 828 258 828 q 230 838 239 828 q 221 860 221 847 z "},"ô":{"ha":640,"x_min":65,"x_max":575,"o":"m 65 249 l 65 410 q 140 588 65 513 q 319 664 215 664 q 499 589 422 664 q 575 410 575 514 l 575 249 q 498 69 575 147 q 319 -8 421 -8 q 142 69 218 -8 q 65 249 65 146 m 133 249 q 188 115 133 174 q 319 56 243 56 q 451 115 396 56 q 507 249 507 174 l 507 410 q 451 542 507 483 q 319 600 396 600 q 188 542 243 600 q 133 410 133 483 l 133 249 m 136 860 q 151 883 136 875 l 296 961 q 319 968 307 968 q 343 961 332 968 l 488 885 q 503 857 503 876 q 495 838 503 846 q 476 829 488 829 l 464 833 l 319 910 l 175 832 q 169 830 174 832 q 164 828 165 828 q 144 837 153 828 q 136 860 136 846 z "},"õ":{"ha":640,"x_min":65,"x_max":575,"o":"m 65 249 l 65 410 q 140 588 65 513 q 319 664 215 664 q 499 589 422 664 q 575 410 575 514 l 575 249 q 498 69 575 147 q 319 -8 421 -8 q 142 69 218 -8 q 65 249 65 146 m 111 886 q 153 939 111 917 q 235 961 196 961 q 324 936 269 961 q 414 911 378 911 q 475 933 450 911 q 507 954 500 954 q 524 946 517 954 q 531 928 531 938 q 491 874 531 894 q 414 853 451 853 q 325 878 379 853 q 232 903 271 903 q 168 880 197 903 q 133 857 139 857 q 111 886 111 857 m 133 249 q 188 115 133 174 q 319 56 243 56 q 451 115 396 56 q 507 249 507 174 l 507 410 q 451 542 507 483 q 319 600 396 600 q 188 542 243 600 q 133 410 133 483 l 133 249 z "},"ö":{"ha":640,"x_min":65,"x_max":575,"o":"m 65 249 l 65 410 q 140 588 65 513 q 319 664 215 664 q 499 589 422 664 q 575 410 575 514 l 575 249 q 498 69 575 147 q 319 -8 421 -8 q 142 69 218 -8 q 65 249 65 146 m 133 249 q 188 115 133 174 q 319 56 243 56 q 451 115 396 56 q 507 249 507 174 l 507 410 q 451 542 507 483 q 319 600 396 600 q 188 542 243 600 q 133 410 133 483 l 133 249 m 206 842 q 200 849 206 842 q 193 875 193 856 q 206 907 193 894 q 239 919 219 919 q 271 907 258 919 q 283 875 283 894 q 271 842 283 856 q 239 829 258 829 q 206 842 219 829 m 368 842 q 362 849 368 842 q 356 875 356 856 q 368 907 356 894 q 401 919 381 919 q 433 907 421 919 q 446 875 446 894 q 433 842 446 856 q 401 829 421 829 q 368 842 381 829 z "},"÷":{"ha":636,"x_min":67,"x_max":569,"o":"m 75 311 q 71 315 75 311 q 67 333 67 319 q 75 356 67 347 q 96 365 83 365 l 539 365 q 560 356 550 365 q 569 333 569 347 q 560 312 569 321 q 539 303 551 303 l 96 303 q 75 311 83 303 m 249 108 q 268 153 249 135 q 314 172 288 172 q 358 153 339 172 q 376 108 376 135 q 358 65 376 83 q 314 46 339 46 q 268 65 288 46 q 249 108 249 83 m 249 558 q 268 603 249 585 q 314 622 288 622 q 358 603 339 622 q 376 558 376 585 q 358 515 376 533 q 314 496 339 496 q 268 515 288 496 q 249 558 249 533 z "},"ø":{"ha":640,"x_min":65,"x_max":575,"o":"m 65 249 l 65 410 q 140 588 65 513 q 319 664 215 664 q 447 628 386 664 l 485 696 q 504 707 490 707 q 523 699 514 707 q 532 679 532 690 q 526 661 532 671 l 490 596 q 575 410 575 521 l 575 249 q 498 69 575 147 q 319 -8 421 -8 q 183 33 247 -8 l 150 -29 q 126 -44 142 -44 q 109 -37 117 -44 q 101 -21 101 -31 q 106 -7 101 -14 l 144 65 q 65 249 65 142 m 133 249 q 178 126 133 182 l 417 571 q 319 600 372 600 q 188 542 243 600 q 133 410 133 483 l 133 249 m 215 90 q 319 56 261 56 q 451 115 396 56 q 507 249 507 174 l 507 410 q 457 535 507 478 l 215 90 z "},"ù":{"ha":678,"x_min":85,"x_max":593,"o":"m 85 246 l 85 626 q 95 647 85 638 q 119 656 106 656 q 142 647 132 656 q 153 626 153 638 l 153 246 q 208 113 153 171 q 339 56 263 56 q 470 113 415 56 q 525 246 525 171 l 525 628 q 535 647 525 639 q 560 656 546 656 q 583 647 574 656 q 593 628 593 639 l 593 246 q 518 67 593 143 q 339 -8 443 -8 q 160 68 235 -8 q 85 246 85 144 m 236 936 q 244 958 236 949 q 264 968 251 968 q 274 965 268 968 l 422 881 q 435 860 435 875 q 426 838 435 847 q 404 828 417 828 q 390 832 399 828 l 251 908 q 236 936 236 918 z "},"ú":{"ha":678,"x_min":85,"x_max":593,"o":"m 85 246 l 85 626 q 95 647 85 638 q 119 656 106 656 q 142 647 132 656 q 153 626 153 638 l 153 246 q 208 113 153 171 q 339 56 263 56 q 470 113 415 56 q 525 246 525 171 l 525 628 q 535 647 525 639 q 560 656 546 656 q 583 647 574 656 q 593 628 593 639 l 593 246 q 518 67 593 143 q 339 -8 443 -8 q 160 68 235 -8 q 85 246 85 144 m 242 860 q 254 881 242 875 l 403 965 q 414 968 408 968 q 433 958 426 968 q 440 936 440 949 q 425 908 440 918 l 286 832 q 272 828 281 828 q 251 838 260 828 q 242 860 242 847 z "},"û":{"ha":678,"x_min":85,"x_max":593,"o":"m 85 246 l 85 626 q 95 647 85 638 q 119 656 106 656 q 142 647 132 656 q 153 626 153 638 l 153 246 q 208 113 153 171 q 339 56 263 56 q 470 113 415 56 q 525 246 525 171 l 525 628 q 535 647 525 639 q 560 656 546 656 q 583 647 574 656 q 593 628 593 639 l 593 246 q 518 67 593 143 q 339 -8 443 -8 q 160 68 235 -8 q 85 246 85 144 m 156 860 q 171 883 156 875 l 315 961 q 339 968 326 968 q 363 961 351 968 l 507 885 q 522 857 522 876 q 515 838 522 846 q 496 829 507 829 l 483 833 l 339 910 l 194 832 q 189 830 193 832 q 183 828 185 828 q 164 837 172 828 q 156 860 156 846 z "},"ü":{"ha":678,"x_min":85,"x_max":593,"o":"m 85 246 l 85 626 q 95 647 85 638 q 119 656 106 656 q 142 647 132 656 q 153 626 153 638 l 153 246 q 208 113 153 171 q 339 56 263 56 q 470 113 415 56 q 525 246 525 171 l 525 628 q 535 647 525 639 q 560 656 546 656 q 583 647 574 656 q 593 628 593 639 l 593 246 q 518 67 593 143 q 339 -8 443 -8 q 160 68 235 -8 q 85 246 85 144 m 226 842 q 219 849 226 842 q 213 875 213 856 q 226 907 213 894 q 258 919 239 919 q 290 907 278 919 q 303 875 303 894 q 290 842 303 856 q 258 829 278 829 q 226 842 239 829 m 388 842 q 381 849 388 842 q 375 875 375 856 q 388 907 375 894 q 421 919 400 919 q 453 907 440 919 q 465 875 465 894 q 453 842 465 856 q 421 829 440 829 q 388 842 400 829 z "},"ý":{"ha":567,"x_min":24,"x_max":542,"o":"m 24 632 q 36 656 24 646 q 64 665 49 665 q 90 647 86 665 l 286 113 l 476 647 q 503 665 486 665 q 529 656 517 665 q 542 632 542 646 q 540 621 542 625 l 321 22 l 292 -56 q 261 -130 283 -78 q 221 -208 239 -182 q 176 -266 203 -233 q 120 -312 150 -299 q 57 -326 90 -326 q 25 -294 25 -326 q 50 -262 25 -262 q 251 22 165 -262 l 26 621 q 24 632 24 629 m 192 860 q 204 881 192 875 l 353 965 q 364 968 358 968 q 383 958 376 968 q 390 936 390 949 q 375 908 390 918 l 236 832 q 222 828 231 828 q 201 838 210 828 q 192 860 192 847 z "},"þ":{"ha":660,"x_min":92,"x_max":594,"o":"m 92 -296 l 92 1035 q 101 1056 92 1047 q 125 1064 111 1064 q 150 1056 140 1064 q 160 1035 160 1047 l 160 558 q 233 634 185 604 q 344 664 281 664 q 521 590 447 664 q 594 410 594 515 l 594 249 q 520 69 594 147 q 347 -8 446 -8 q 235 22 286 -8 q 160 97 183 53 l 160 -296 q 149 -317 160 -307 q 125 -326 139 -326 q 101 -317 111 -326 q 92 -296 92 -308 m 160 201 q 215 108 160 161 q 342 56 271 56 q 471 115 415 56 q 526 249 526 174 l 526 410 q 470 542 526 483 q 339 600 414 600 q 214 548 268 600 q 160 410 160 496 l 160 201 z "},"ÿ":{"ha":567,"x_min":24,"x_max":542,"o":"m 24 632 q 36 656 24 646 q 64 665 49 665 q 90 647 86 665 l 286 113 l 476 647 q 503 665 486 665 q 529 656 517 665 q 542 632 542 646 q 540 621 542 625 l 321 22 l 292 -56 q 261 -130 283 -78 q 221 -208 239 -182 q 176 -266 203 -233 q 120 -312 150 -299 q 57 -326 90 -326 q 25 -294 25 -326 q 50 -262 25 -262 q 251 22 165 -262 l 26 621 q 24 632 24 629 m 172 842 q 165 849 172 842 q 158 875 158 856 q 172 907 158 894 q 204 919 185 919 q 236 907 224 919 q 249 875 249 894 q 236 842 249 856 q 204 829 224 829 q 172 842 185 829 m 333 842 q 327 849 333 842 q 321 875 321 856 q 333 907 321 894 q 367 919 346 919 q 399 907 386 919 q 411 875 411 894 q 399 842 411 856 q 367 829 386 829 q 333 842 346 829 z "},"Ā":{"ha":736,"x_min":32,"x_max":704,"o":"m 32 31 q 33 39 32 36 l 331 999 q 369 1024 339 1024 q 408 999 400 1024 l 703 39 q 703 35 703 38 q 704 31 704 33 q 692 9 704 18 q 664 0 679 0 q 636 21 642 0 l 568 242 l 168 242 l 101 21 q 71 0 94 0 q 44 8 56 0 q 32 31 32 17 m 186 306 l 549 306 l 369 899 l 186 306 m 189 1276 q 218 1307 189 1307 l 519 1307 q 540 1298 531 1307 q 550 1276 550 1289 q 541 1256 550 1264 q 519 1249 532 1249 l 218 1249 q 189 1276 189 1249 z "},"ā":{"ha":599,"x_min":46,"x_max":513,"o":"m 46 175 q 128 320 46 279 q 369 361 211 361 l 444 361 l 444 397 q 401 541 444 481 q 269 601 357 601 q 171 582 217 601 q 124 563 125 563 q 101 575 110 563 q 93 600 93 588 q 151 644 93 624 q 272 664 208 664 q 454 588 396 664 q 513 397 513 513 l 513 31 q 503 9 513 18 q 479 0 493 0 q 456 9 465 0 q 446 31 446 18 l 446 97 q 238 -8 354 -8 q 99 38 153 -8 q 46 175 46 85 m 111 919 q 140 950 111 950 l 442 950 q 463 941 453 950 q 472 919 472 932 q 463 899 472 907 q 442 892 454 892 l 140 892 q 111 919 111 892 m 114 178 q 151 84 114 115 q 247 53 188 53 q 381 103 318 53 q 444 203 444 154 l 444 306 l 376 306 q 276 301 317 306 q 196 285 236 297 q 135 247 156 274 q 114 178 114 219 z "},"Ă":{"ha":736,"x_min":32,"x_max":704,"o":"m 32 31 q 33 39 32 36 l 331 999 q 369 1024 339 1024 q 408 999 400 1024 l 703 39 q 703 35 703 38 q 704 31 704 33 q 692 9 704 18 q 664 0 679 0 q 636 21 642 0 l 568 242 l 168 242 l 101 21 q 71 0 94 0 q 44 8 56 0 q 32 31 32 17 m 186 306 l 549 306 l 369 899 l 186 306 m 213 1346 l 265 1346 q 296 1265 265 1299 q 369 1232 326 1232 q 442 1265 411 1232 q 472 1346 472 1299 l 525 1346 q 478 1236 525 1283 q 369 1189 431 1189 q 260 1235 307 1189 q 213 1346 213 1282 z "},"ă":{"ha":599,"x_min":46,"x_max":513,"o":"m 46 175 q 128 320 46 279 q 369 361 211 361 l 444 361 l 444 397 q 401 541 444 481 q 269 601 357 601 q 171 582 217 601 q 124 563 125 563 q 101 575 110 563 q 93 600 93 588 q 151 644 93 624 q 272 664 208 664 q 454 588 396 664 q 513 397 513 513 l 513 31 q 503 9 513 18 q 479 0 493 0 q 456 9 465 0 q 446 31 446 18 l 446 97 q 238 -8 354 -8 q 99 38 153 -8 q 46 175 46 85 m 114 178 q 151 84 114 115 q 247 53 188 53 q 381 103 318 53 q 444 203 444 154 l 444 306 l 376 306 q 276 301 317 306 q 196 285 236 297 q 135 247 156 274 q 114 178 114 219 m 136 989 l 189 989 q 219 908 189 942 q 293 875 250 875 q 365 908 335 875 q 396 989 396 942 l 449 989 q 401 879 449 926 q 293 832 354 832 q 183 878 231 832 q 136 989 136 925 z "},"Ą":{"ha":736,"x_min":32,"x_max":704,"o":"m 32 31 q 33 39 32 36 l 331 999 q 369 1024 339 1024 q 408 999 400 1024 l 703 39 q 703 35 703 38 q 704 31 704 33 q 682 4 704 14 q 581 -172 581 -90 q 668 -232 581 -232 q 693 -254 693 -232 q 660 -275 693 -275 q 571 -251 608 -275 q 533 -176 533 -228 q 636 21 533 -71 l 568 242 l 168 242 l 101 21 q 71 0 94 0 q 44 8 56 0 q 32 31 32 17 m 186 306 l 549 306 l 369 899 l 186 306 z "},"ą":{"ha":599,"x_min":46,"x_max":513,"o":"m 46 175 q 128 320 46 279 q 369 361 211 361 l 444 361 l 444 397 q 401 541 444 481 q 269 601 357 601 q 171 582 217 601 q 124 563 125 563 q 101 575 110 563 q 93 600 93 588 q 151 644 93 624 q 272 664 208 664 q 454 588 396 664 q 513 397 513 513 l 513 31 q 494 3 513 10 q 394 -172 394 -87 q 482 -232 394 -232 q 507 -254 507 -232 q 474 -275 507 -275 q 385 -251 422 -275 q 347 -176 347 -228 q 447 19 347 -74 q 446 31 446 22 l 446 97 q 238 -8 354 -8 q 99 38 153 -8 q 46 175 46 85 m 114 178 q 151 84 114 115 q 247 53 188 53 q 381 103 318 53 q 444 203 444 154 l 444 306 l 376 306 q 276 301 317 306 q 196 285 236 297 q 135 247 156 274 q 114 178 114 219 z "},"Ć":{"ha":718,"x_min":100,"x_max":660,"o":"m 100 283 l 100 724 q 178 944 100 874 q 383 1015 257 1015 q 585 949 511 1015 q 660 790 660 883 q 651 754 660 764 q 625 744 643 744 q 590 774 590 744 q 580 828 589 803 q 551 884 571 854 q 488 931 531 914 q 383 949 444 949 q 169 724 169 949 l 169 283 q 388 58 169 58 q 474 71 438 58 q 531 99 511 83 q 565 144 551 115 q 582 189 578 172 q 590 235 586 206 q 624 264 593 264 q 651 254 643 264 q 660 217 660 244 q 584 58 660 125 q 379 -8 508 -8 q 177 63 254 -8 q 100 283 100 133 m 283 1217 q 296 1238 283 1232 l 444 1322 q 456 1325 450 1325 q 475 1315 468 1325 q 482 1293 482 1306 q 467 1265 482 1275 l 328 1189 q 314 1185 322 1185 q 292 1194 301 1185 q 283 1217 283 1204 z "},"ć":{"ha":564,"x_min":68,"x_max":525,"o":"m 68 249 l 68 407 q 134 592 68 521 q 329 664 200 664 q 463 635 408 664 q 517 579 517 607 q 507 556 517 567 q 485 546 497 546 q 460 559 478 546 q 410 586 443 572 q 331 600 376 600 q 187 549 238 600 q 136 407 136 497 l 136 249 q 186 106 136 157 q 332 56 236 56 q 415 69 381 56 q 468 97 450 83 q 494 111 486 111 q 516 101 507 111 q 525 78 525 90 q 469 20 525 49 q 329 -8 413 -8 q 135 63 201 -8 q 68 249 68 133 m 200 860 q 213 881 200 875 l 361 965 q 372 968 367 968 q 392 958 385 968 q 399 936 399 949 q 383 908 399 918 l 244 832 q 231 828 239 828 q 209 838 218 828 q 200 860 200 847 z "},"Ĉ":{"ha":718,"x_min":100,"x_max":660,"o":"m 100 283 l 100 724 q 178 944 100 874 q 383 1015 257 1015 q 585 949 511 1015 q 660 790 660 883 q 651 754 660 764 q 625 744 643 744 q 590 774 590 744 q 580 828 589 803 q 551 884 571 854 q 488 931 531 914 q 383 949 444 949 q 169 724 169 949 l 169 283 q 388 58 169 58 q 474 71 438 58 q 531 99 511 83 q 565 144 551 115 q 582 189 578 172 q 590 235 586 206 q 624 264 593 264 q 651 254 643 264 q 660 217 660 244 q 584 58 660 125 q 379 -8 508 -8 q 177 63 254 -8 q 100 283 100 133 m 196 1217 q 211 1240 196 1233 l 356 1318 q 379 1325 367 1325 q 403 1318 392 1325 l 547 1242 q 563 1214 563 1233 q 555 1194 563 1203 q 536 1186 547 1186 l 524 1190 l 379 1267 l 235 1189 q 229 1187 233 1189 q 224 1185 225 1185 q 204 1194 213 1185 q 196 1217 196 1203 z "},"ĉ":{"ha":564,"x_min":68,"x_max":525,"o":"m 68 249 l 68 407 q 134 592 68 521 q 329 664 200 664 q 463 635 408 664 q 517 579 517 607 q 507 556 517 567 q 485 546 497 546 q 460 559 478 546 q 410 586 443 572 q 331 600 376 600 q 187 549 238 600 q 136 407 136 497 l 136 249 q 186 106 136 157 q 332 56 236 56 q 415 69 381 56 q 468 97 450 83 q 494 111 486 111 q 516 101 507 111 q 525 78 525 90 q 469 20 525 49 q 329 -8 413 -8 q 135 63 201 -8 q 68 249 68 133 m 115 860 q 131 883 115 875 l 275 961 q 299 968 286 968 q 322 961 311 968 l 467 885 q 482 857 482 876 q 474 838 482 846 q 456 829 467 829 l 443 833 l 299 910 l 154 832 q 149 830 153 832 q 143 828 144 828 q 124 837 132 828 q 115 860 115 846 z "},"Ċ":{"ha":718,"x_min":100,"x_max":660,"o":"m 100 283 l 100 724 q 178 944 100 874 q 383 1015 257 1015 q 585 949 511 1015 q 660 790 660 883 q 651 754 660 764 q 625 744 643 744 q 590 774 590 744 q 580 828 589 803 q 551 884 571 854 q 488 931 531 914 q 383 949 444 949 q 169 724 169 949 l 169 283 q 388 58 169 58 q 474 71 438 58 q 531 99 511 83 q 565 144 551 115 q 582 189 578 172 q 590 235 586 206 q 624 264 593 264 q 651 254 643 264 q 660 217 660 244 q 584 58 660 125 q 379 -8 508 -8 q 177 63 254 -8 q 100 283 100 133 m 347 1199 q 340 1206 347 1199 q 333 1232 333 1213 q 347 1264 333 1251 q 379 1276 360 1276 q 412 1264 399 1276 q 425 1232 425 1251 q 412 1199 425 1213 q 379 1186 399 1186 q 347 1199 360 1186 z "},"ċ":{"ha":564,"x_min":68,"x_max":525,"o":"m 68 249 l 68 407 q 134 592 68 521 q 329 664 200 664 q 463 635 408 664 q 517 579 517 607 q 507 556 517 567 q 485 546 497 546 q 460 559 478 546 q 410 586 443 572 q 331 600 376 600 q 187 549 238 600 q 136 407 136 497 l 136 249 q 186 106 136 157 q 332 56 236 56 q 415 69 381 56 q 468 97 450 83 q 494 111 486 111 q 516 101 507 111 q 525 78 525 90 q 469 20 525 49 q 329 -8 413 -8 q 135 63 201 -8 q 68 249 68 133 m 265 842 q 258 849 265 842 q 251 875 251 856 q 265 907 251 894 q 297 919 278 919 q 330 907 317 919 q 343 875 343 894 q 330 842 343 856 q 297 829 317 829 q 265 842 278 829 z "},"Č":{"ha":718,"x_min":100,"x_max":660,"o":"m 100 283 l 100 724 q 178 944 100 874 q 383 1015 257 1015 q 585 949 511 1015 q 660 790 660 883 q 651 754 660 764 q 625 744 643 744 q 590 774 590 744 q 580 828 589 803 q 551 884 571 854 q 488 931 531 914 q 383 949 444 949 q 169 724 169 949 l 169 283 q 388 58 169 58 q 474 71 438 58 q 531 99 511 83 q 565 144 551 115 q 582 189 578 172 q 590 235 586 206 q 624 264 593 264 q 651 254 643 264 q 660 217 660 244 q 584 58 660 125 q 379 -8 508 -8 q 177 63 254 -8 q 100 283 100 133 m 196 1346 q 203 1364 196 1356 q 219 1372 210 1372 q 240 1363 231 1372 l 378 1226 l 514 1363 q 536 1372 524 1372 q 553 1364 546 1372 q 560 1346 560 1356 q 546 1319 560 1336 l 406 1186 q 378 1172 389 1172 q 349 1186 363 1172 l 210 1319 q 196 1346 196 1333 z "},"č":{"ha":564,"x_min":68,"x_max":525,"o":"m 68 249 l 68 407 q 134 592 68 521 q 329 664 200 664 q 463 635 408 664 q 517 579 517 607 q 507 556 517 567 q 485 546 497 546 q 460 559 478 546 q 410 586 443 572 q 331 600 376 600 q 187 549 238 600 q 136 407 136 497 l 136 249 q 186 106 136 157 q 332 56 236 56 q 415 69 381 56 q 468 97 450 83 q 494 111 486 111 q 516 101 507 111 q 525 78 525 90 q 469 20 525 49 q 329 -8 413 -8 q 135 63 201 -8 q 68 249 68 133 m 115 989 q 122 1007 115 999 q 139 1015 129 1015 q 160 1006 150 1015 l 297 869 l 433 1006 q 456 1015 443 1015 q 472 1007 465 1015 q 479 989 479 999 q 465 963 479 979 l 325 829 q 297 815 308 815 q 268 829 282 815 l 129 963 q 115 989 115 976 z "},"Ď":{"ha":769,"x_min":110,"x_max":669,"o":"m 110 29 l 110 986 q 119 1006 110 997 q 143 1015 129 1015 l 389 1015 q 592 945 515 1015 q 669 724 669 875 l 669 292 q 592 70 669 140 q 389 0 515 0 l 143 0 q 119 9 129 0 q 110 29 110 18 m 179 67 l 389 67 q 545 123 490 67 q 600 292 600 179 l 600 724 q 545 892 600 836 q 389 949 490 949 l 179 949 l 179 67 m 203 1346 q 210 1364 203 1356 q 226 1372 217 1372 q 247 1363 238 1372 l 385 1226 l 521 1363 q 543 1372 531 1372 q 560 1364 553 1372 q 567 1346 567 1356 q 553 1319 567 1336 l 413 1186 q 385 1172 396 1172 q 356 1186 369 1172 l 217 1319 q 203 1346 203 1333 z "},"ď":{"ha":661,"x_min":67,"x_max":767,"o":"m 67 249 l 67 410 q 140 590 67 515 q 317 664 214 664 q 428 634 381 664 q 501 558 476 604 l 501 1035 q 511 1056 501 1047 q 536 1064 521 1064 q 560 1056 550 1064 q 569 1035 569 1047 l 569 31 q 560 9 569 18 q 536 0 550 0 q 513 10 522 0 q 503 31 503 19 l 503 97 q 427 22 479 53 q 314 -8 375 -8 q 141 69 215 -8 q 67 249 67 147 m 135 249 q 190 115 135 174 q 319 56 246 56 q 446 108 390 56 q 501 201 501 161 l 501 410 q 447 547 501 494 q 321 600 392 600 q 190 542 246 600 q 135 410 135 483 l 135 249 m 654 972 q 670 1013 654 996 q 711 1029 686 1029 q 750 1013 733 1029 q 767 972 767 996 q 715 828 767 936 q 693 813 708 813 q 674 819 683 813 q 665 838 665 826 q 668 847 665 844 l 694 918 q 654 972 654 932 z "},"Đ":{"ha":783,"x_min":1,"x_max":683,"o":"m 9 512 q 5 516 9 512 q 1 533 1 521 q 9 555 1 546 q 29 564 17 564 l 124 564 l 124 986 q 133 1006 124 997 q 157 1015 143 1015 l 403 1015 q 606 945 529 1015 q 683 724 683 875 l 683 292 q 606 70 683 140 q 403 0 529 0 l 157 0 q 133 9 143 0 q 124 29 124 18 l 124 503 l 29 503 q 9 512 17 503 m 193 67 l 403 67 q 559 123 504 67 q 614 292 614 179 l 614 724 q 559 892 614 836 q 403 949 504 949 l 193 949 l 193 564 l 364 564 q 383 555 375 564 q 392 533 392 546 q 383 512 392 521 q 364 503 375 503 l 193 503 l 193 67 z "},"đ":{"ha":661,"x_min":67,"x_max":671,"o":"m 67 249 l 67 410 q 140 590 67 515 q 317 664 214 664 q 428 634 381 664 q 501 558 476 604 l 501 804 l 322 804 q 294 833 294 804 q 302 855 294 846 q 322 864 310 864 l 501 864 l 501 1035 q 511 1056 501 1047 q 536 1064 521 1064 q 560 1056 550 1064 q 569 1035 569 1047 l 569 864 l 643 864 q 663 855 654 864 q 671 833 671 846 q 663 813 671 821 q 643 804 654 804 l 569 804 l 569 31 q 560 9 569 18 q 536 0 550 0 q 513 10 522 0 q 503 31 503 19 l 503 97 q 427 22 479 53 q 314 -8 375 -8 q 141 69 215 -8 q 67 249 67 147 m 135 249 q 190 115 135 174 q 319 56 246 56 q 446 108 390 56 q 501 201 501 161 l 501 410 q 447 547 501 494 q 321 600 392 600 q 190 542 246 600 q 135 410 135 483 l 135 249 z "},"Ē":{"ha":699,"x_min":110,"x_max":667,"o":"m 110 31 l 110 985 q 143 1015 110 1015 l 638 1015 q 667 983 667 1015 q 658 959 667 969 q 638 949 650 949 l 179 949 l 179 540 l 400 540 q 421 531 413 540 q 429 507 429 521 q 400 476 429 476 l 179 476 l 179 67 l 638 67 q 658 56 650 67 q 667 32 667 46 q 638 0 667 0 l 143 0 q 110 31 110 0 m 208 1276 q 238 1307 208 1307 l 539 1307 q 560 1298 550 1307 q 569 1276 569 1289 q 560 1256 569 1264 q 539 1249 551 1249 l 238 1249 q 208 1276 208 1249 z "},"ē":{"ha":626,"x_min":67,"x_max":575,"o":"m 67 249 l 67 414 q 142 590 67 517 q 322 664 217 664 q 500 592 425 664 q 575 413 575 519 q 566 352 575 375 q 538 319 557 329 q 502 308 518 310 q 457 306 486 306 l 135 306 l 135 247 q 197 107 135 160 q 358 54 260 54 q 443 68 408 54 q 496 96 478 82 q 524 110 514 110 q 546 99 536 110 q 556 76 556 88 q 498 21 556 50 q 356 -8 440 -8 q 147 63 228 -8 q 67 249 67 133 m 135 363 l 431 363 q 493 372 478 363 q 508 413 508 382 q 456 544 508 486 q 322 603 403 603 q 190 549 244 603 q 135 419 135 494 l 135 363 m 142 919 q 171 950 142 950 l 472 950 q 493 941 483 950 q 503 919 503 932 q 494 899 503 907 q 472 892 485 892 l 171 892 q 142 919 142 892 z "},"Ĕ":{"ha":699,"x_min":110,"x_max":667,"o":"m 110 31 l 110 985 q 143 1015 110 1015 l 638 1015 q 667 983 667 1015 q 658 959 667 969 q 638 949 650 949 l 179 949 l 179 540 l 400 540 q 421 531 413 540 q 429 507 429 521 q 400 476 429 476 l 179 476 l 179 67 l 638 67 q 658 56 650 67 q 667 32 667 46 q 638 0 667 0 l 143 0 q 110 31 110 0 m 231 1346 l 283 1346 q 314 1265 283 1299 q 388 1232 344 1232 q 460 1265 429 1232 q 490 1346 490 1299 l 543 1346 q 496 1236 543 1283 q 388 1189 449 1189 q 278 1235 325 1189 q 231 1346 231 1282 z "},"ĕ":{"ha":626,"x_min":67,"x_max":575,"o":"m 67 249 l 67 414 q 142 590 67 517 q 322 664 217 664 q 500 592 425 664 q 575 413 575 519 q 566 352 575 375 q 538 319 557 329 q 502 308 518 310 q 457 306 486 306 l 135 306 l 135 247 q 197 107 135 160 q 358 54 260 54 q 443 68 408 54 q 496 96 478 82 q 524 110 514 110 q 546 99 536 110 q 556 76 556 88 q 498 21 556 50 q 356 -8 440 -8 q 147 63 228 -8 q 67 249 67 133 m 135 363 l 431 363 q 493 372 478 363 q 508 413 508 382 q 456 544 508 486 q 322 603 403 603 q 190 549 244 603 q 135 419 135 494 l 135 363 m 164 989 l 217 989 q 247 908 217 942 q 321 875 278 875 q 393 908 363 875 q 424 989 424 942 l 476 989 q 429 879 476 926 q 321 832 382 832 q 211 878 258 832 q 164 989 164 925 z "},"Ė":{"ha":699,"x_min":110,"x_max":667,"o":"m 110 31 l 110 985 q 143 1015 110 1015 l 638 1015 q 667 983 667 1015 q 658 959 667 969 q 638 949 650 949 l 179 949 l 179 540 l 400 540 q 421 531 413 540 q 429 507 429 521 q 400 476 429 476 l 179 476 l 179 67 l 638 67 q 658 56 650 67 q 667 32 667 46 q 638 0 667 0 l 143 0 q 110 31 110 0 m 358 1199 q 351 1206 358 1199 q 344 1232 344 1213 q 358 1264 344 1251 q 390 1276 371 1276 q 423 1264 410 1276 q 436 1232 436 1251 q 423 1199 436 1213 q 390 1186 410 1186 q 358 1199 371 1186 z "},"ė":{"ha":626,"x_min":67,"x_max":575,"o":"m 67 249 l 67 414 q 142 590 67 517 q 322 664 217 664 q 500 592 425 664 q 575 413 575 519 q 566 352 575 375 q 538 319 557 329 q 502 308 518 310 q 457 306 486 306 l 135 306 l 135 247 q 197 107 135 160 q 358 54 260 54 q 443 68 408 54 q 496 96 478 82 q 524 110 514 110 q 546 99 536 110 q 556 76 556 88 q 498 21 556 50 q 356 -8 440 -8 q 147 63 228 -8 q 67 249 67 133 m 135 363 l 431 363 q 493 372 478 363 q 508 413 508 382 q 456 544 508 486 q 322 603 403 603 q 190 549 244 603 q 135 419 135 494 l 135 363 m 288 842 q 282 849 288 842 q 275 875 275 856 q 288 907 275 894 q 321 919 301 919 q 353 907 340 919 q 367 875 367 894 q 353 842 367 856 q 321 829 340 829 q 288 842 301 829 z "},"Ę":{"ha":699,"x_min":110,"x_max":667,"o":"m 110 31 l 110 985 q 143 1015 110 1015 l 638 1015 q 667 983 667 1015 q 658 959 667 969 q 638 949 650 949 l 179 949 l 179 540 l 400 540 q 421 531 413 540 q 429 507 429 521 q 400 476 429 476 l 179 476 l 179 67 l 638 67 q 658 56 650 67 q 667 32 667 46 q 650 3 667 11 q 550 -172 550 -87 q 638 -232 550 -232 q 663 -254 663 -232 q 629 -275 663 -275 q 540 -251 578 -275 q 503 -176 503 -228 q 583 0 503 -83 l 143 0 q 110 31 110 0 z "},"ę":{"ha":626,"x_min":67,"x_max":575,"o":"m 67 249 l 67 414 q 142 590 67 517 q 322 664 217 664 q 500 592 425 664 q 575 413 575 519 q 566 352 575 375 q 538 319 557 329 q 502 308 518 310 q 457 306 486 306 l 135 306 l 135 247 q 197 107 135 160 q 358 54 260 54 q 443 68 408 54 q 496 96 478 82 q 524 110 514 110 q 546 99 536 110 q 556 76 556 88 q 507 25 556 51 q 415 -142 415 -60 q 503 -201 415 -201 q 528 -224 528 -201 q 494 -244 528 -244 q 406 -221 443 -244 q 368 -146 368 -197 q 419 -3 368 -69 q 356 -8 381 -8 q 147 63 228 -8 q 67 249 67 133 m 135 363 l 431 363 q 493 372 478 363 q 508 413 508 382 q 456 544 508 486 q 322 603 403 603 q 190 549 244 603 q 135 419 135 494 l 135 363 z "},"Ě":{"ha":699,"x_min":110,"x_max":667,"o":"m 110 31 l 110 985 q 143 1015 110 1015 l 638 1015 q 667 983 667 1015 q 658 959 667 969 q 638 949 650 949 l 179 949 l 179 540 l 400 540 q 421 531 413 540 q 429 507 429 521 q 400 476 429 476 l 179 476 l 179 67 l 638 67 q 658 56 650 67 q 667 32 667 46 q 638 0 667 0 l 143 0 q 110 31 110 0 m 204 1346 q 211 1364 204 1356 q 228 1372 218 1372 q 249 1363 239 1372 l 386 1226 l 522 1363 q 544 1372 532 1372 q 561 1364 554 1372 q 568 1346 568 1356 q 554 1319 568 1336 l 414 1186 q 386 1172 397 1172 q 357 1186 371 1172 l 218 1319 q 204 1346 204 1333 z "},"ě":{"ha":626,"x_min":67,"x_max":575,"o":"m 67 249 l 67 414 q 142 590 67 517 q 322 664 217 664 q 500 592 425 664 q 575 413 575 519 q 566 352 575 375 q 538 319 557 329 q 502 308 518 310 q 457 306 486 306 l 135 306 l 135 247 q 197 107 135 160 q 358 54 260 54 q 443 68 408 54 q 496 96 478 82 q 524 110 514 110 q 546 99 536 110 q 556 76 556 88 q 498 21 556 50 q 356 -8 440 -8 q 147 63 228 -8 q 67 249 67 133 m 135 363 l 431 363 q 493 372 478 363 q 508 413 508 382 q 456 544 508 486 q 322 603 403 603 q 190 549 244 603 q 135 419 135 494 l 135 363 m 139 989 q 146 1007 139 999 q 163 1015 153 1015 q 183 1006 174 1015 l 321 869 l 457 1006 q 479 1015 467 1015 q 496 1007 489 1015 q 503 989 503 999 q 489 963 503 979 l 349 829 q 321 815 332 815 q 292 829 306 815 l 153 963 q 139 989 139 976 z "},"Ĝ":{"ha":744,"x_min":100,"x_max":660,"o":"m 100 283 l 100 724 q 176 945 100 875 q 378 1015 251 1015 q 583 949 507 1015 q 660 781 660 883 q 625 744 660 744 q 590 774 592 744 q 379 949 567 949 q 169 724 169 949 l 169 283 q 379 58 169 58 q 535 115 481 58 q 590 283 590 171 l 590 469 l 385 469 q 365 479 372 469 q 357 501 357 489 q 365 524 357 514 q 385 533 372 533 l 631 533 q 651 524 643 533 q 660 501 660 514 l 660 283 q 583 62 660 132 q 379 -8 506 -8 q 176 62 251 -8 q 100 283 100 132 m 193 1217 q 208 1240 193 1233 l 353 1318 q 376 1325 364 1325 q 400 1318 389 1325 l 544 1242 q 560 1214 560 1233 q 552 1194 560 1203 q 533 1186 544 1186 l 521 1190 l 376 1267 l 232 1189 q 226 1187 231 1189 q 221 1185 222 1185 q 201 1194 210 1185 q 193 1217 193 1203 z "},"ĝ":{"ha":622,"x_min":39,"x_max":607,"o":"m 39 -144 q 161 8 39 -36 q 81 106 81 35 q 149 204 81 169 q 75 379 75 269 l 75 436 q 139 600 75 536 q 306 664 203 664 q 469 601 407 664 q 517 664 489 640 q 571 688 546 688 q 598 678 589 688 q 607 656 607 668 q 582 628 607 631 q 501 565 533 625 q 538 436 538 517 l 538 379 q 472 214 538 279 q 304 149 407 149 q 194 175 242 149 q 144 114 144 150 q 190 62 144 78 q 299 41 235 46 q 426 25 363 36 q 535 -25 490 14 q 581 -133 581 -64 q 508 -276 581 -225 q 314 -326 436 -326 q 115 -276 192 -326 q 39 -144 39 -226 m 106 -137 q 161 -234 106 -197 q 314 -271 217 -271 q 460 -235 408 -271 q 513 -136 513 -199 q 498 -84 513 -106 q 463 -50 483 -62 q 409 -29 442 -37 q 352 -19 376 -21 q 292 -14 328 -17 l 242 -8 q 106 -137 106 -49 m 142 381 q 186 255 142 304 q 307 206 231 206 q 426 254 382 206 q 471 379 471 303 l 471 436 q 426 559 471 511 q 306 607 382 607 q 185 559 229 607 q 142 436 142 511 l 142 381 m 142 860 q 157 883 142 875 l 301 961 q 325 968 313 968 q 349 961 338 968 l 493 885 q 508 857 508 876 q 501 838 508 846 q 482 829 493 829 l 469 833 l 325 910 l 181 832 q 175 830 179 832 q 169 828 171 828 q 150 837 158 828 q 142 860 142 846 z "},"Ğ":{"ha":744,"x_min":100,"x_max":660,"o":"m 100 283 l 100 724 q 176 945 100 875 q 378 1015 251 1015 q 583 949 507 1015 q 660 781 660 883 q 625 744 660 744 q 590 774 592 744 q 379 949 567 949 q 169 724 169 949 l 169 283 q 379 58 169 58 q 535 115 481 58 q 590 283 590 171 l 590 469 l 385 469 q 365 479 372 469 q 357 501 357 489 q 365 524 357 514 q 385 533 372 533 l 631 533 q 651 524 643 533 q 660 501 660 514 l 660 283 q 583 62 660 132 q 379 -8 506 -8 q 176 62 251 -8 q 100 283 100 132 m 222 1346 l 275 1346 q 306 1265 275 1299 q 379 1232 336 1232 q 451 1265 421 1232 q 482 1346 482 1299 l 535 1346 q 488 1236 535 1283 q 379 1189 440 1189 q 269 1235 317 1189 q 222 1346 222 1282 z "},"ğ":{"ha":622,"x_min":39,"x_max":607,"o":"m 39 -144 q 161 8 39 -36 q 81 106 81 35 q 149 204 81 169 q 75 379 75 269 l 75 436 q 139 600 75 536 q 306 664 203 664 q 469 601 407 664 q 517 664 489 640 q 571 688 546 688 q 598 678 589 688 q 607 656 607 668 q 582 628 607 631 q 501 565 533 625 q 538 436 538 517 l 538 379 q 472 214 538 279 q 304 149 407 149 q 194 175 242 149 q 144 114 144 150 q 190 62 144 78 q 299 41 235 46 q 426 25 363 36 q 535 -25 490 14 q 581 -133 581 -64 q 508 -276 581 -225 q 314 -326 436 -326 q 115 -276 192 -326 q 39 -144 39 -226 m 106 -137 q 161 -234 106 -197 q 314 -271 217 -271 q 460 -235 408 -271 q 513 -136 513 -199 q 498 -84 513 -106 q 463 -50 483 -62 q 409 -29 442 -37 q 352 -19 376 -21 q 292 -14 328 -17 l 242 -8 q 106 -137 106 -49 m 142 381 q 186 255 142 304 q 307 206 231 206 q 426 254 382 206 q 471 379 471 303 l 471 436 q 426 559 471 511 q 306 607 382 607 q 185 559 229 607 q 142 436 142 511 l 142 381 m 168 989 l 221 989 q 251 908 221 942 q 325 875 282 875 q 397 908 367 875 q 428 989 428 942 l 481 989 q 433 879 481 926 q 325 832 386 832 q 215 878 263 832 q 168 989 168 925 z "},"Ġ":{"ha":744,"x_min":100,"x_max":660,"o":"m 100 283 l 100 724 q 176 945 100 875 q 378 1015 251 1015 q 583 949 507 1015 q 660 781 660 883 q 625 744 660 744 q 590 774 592 744 q 379 949 567 949 q 169 724 169 949 l 169 283 q 379 58 169 58 q 535 115 481 58 q 590 283 590 171 l 590 469 l 385 469 q 365 479 372 469 q 357 501 357 489 q 365 524 357 514 q 385 533 372 533 l 631 533 q 651 524 643 533 q 660 501 660 514 l 660 283 q 583 62 660 132 q 379 -8 506 -8 q 176 62 251 -8 q 100 283 100 132 m 347 1199 q 340 1206 347 1199 q 333 1232 333 1213 q 347 1264 333 1251 q 379 1276 360 1276 q 412 1264 399 1276 q 425 1232 425 1251 q 412 1199 425 1213 q 379 1186 399 1186 q 347 1199 360 1186 z "},"ġ":{"ha":622,"x_min":39,"x_max":607,"o":"m 39 -144 q 161 8 39 -36 q 81 106 81 35 q 149 204 81 169 q 75 379 75 269 l 75 436 q 139 600 75 536 q 306 664 203 664 q 469 601 407 664 q 517 664 489 640 q 571 688 546 688 q 598 678 589 688 q 607 656 607 668 q 582 628 607 631 q 501 565 533 625 q 538 436 538 517 l 538 379 q 472 214 538 279 q 304 149 407 149 q 194 175 242 149 q 144 114 144 150 q 190 62 144 78 q 299 41 235 46 q 426 25 363 36 q 535 -25 490 14 q 581 -133 581 -64 q 508 -276 581 -225 q 314 -326 436 -326 q 115 -276 192 -326 q 39 -144 39 -226 m 106 -137 q 161 -234 106 -197 q 314 -271 217 -271 q 460 -235 408 -271 q 513 -136 513 -199 q 498 -84 513 -106 q 463 -50 483 -62 q 409 -29 442 -37 q 352 -19 376 -21 q 292 -14 328 -17 l 242 -8 q 106 -137 106 -49 m 142 381 q 186 255 142 304 q 307 206 231 206 q 426 254 382 206 q 471 379 471 303 l 471 436 q 426 559 471 511 q 306 607 382 607 q 185 559 229 607 q 142 436 142 511 l 142 381 m 291 842 q 284 849 291 842 q 278 875 278 856 q 291 907 278 894 q 324 919 304 919 q 356 907 343 919 q 369 875 369 894 q 356 842 369 856 q 324 829 343 829 q 291 842 304 829 z "},"Ģ":{"ha":744,"x_min":100,"x_max":660,"o":"m 100 283 l 100 724 q 176 945 100 875 q 378 1015 251 1015 q 583 949 507 1015 q 660 781 660 883 q 625 744 660 744 q 590 774 592 744 q 379 949 567 949 q 169 724 169 949 l 169 283 q 379 58 169 58 q 535 115 481 58 q 590 283 590 171 l 590 469 l 385 469 q 365 479 372 469 q 357 501 357 489 q 365 524 357 514 q 385 533 372 533 l 631 533 q 651 524 643 533 q 660 501 660 514 l 660 283 q 583 62 660 132 q 379 -8 506 -8 q 176 62 251 -8 q 100 283 100 132 m 275 -175 q 289 -154 275 -160 l 436 -69 q 447 -67 444 -67 q 467 -76 460 -67 q 475 -99 475 -86 q 458 -126 475 -117 l 319 -203 q 307 -207 314 -207 q 285 -197 294 -207 q 275 -175 275 -187 z "},"ģ":{"ha":622,"x_min":39,"x_max":607,"o":"m 39 -144 q 161 8 39 -36 q 81 106 81 35 q 149 204 81 169 q 75 379 75 269 l 75 436 q 139 600 75 536 q 306 664 203 664 q 469 601 407 664 q 517 664 489 640 q 571 688 546 688 q 598 678 589 688 q 607 656 607 668 q 582 628 607 631 q 501 565 533 625 q 538 436 538 517 l 538 379 q 472 214 538 279 q 304 149 407 149 q 194 175 242 149 q 144 114 144 150 q 190 62 144 78 q 299 41 235 46 q 426 25 363 36 q 535 -25 490 14 q 581 -133 581 -64 q 508 -276 581 -225 q 314 -326 436 -326 q 115 -276 192 -326 q 39 -144 39 -226 m 106 -137 q 161 -234 106 -197 q 314 -271 217 -271 q 460 -235 408 -271 q 513 -136 513 -199 q 498 -84 513 -106 q 463 -50 483 -62 q 409 -29 442 -37 q 352 -19 376 -21 q 292 -14 328 -17 l 242 -8 q 106 -137 106 -49 m 142 381 q 186 255 142 304 q 307 206 231 206 q 426 254 382 206 q 471 379 471 303 l 471 436 q 426 559 471 511 q 306 607 382 607 q 185 559 229 607 q 142 436 142 511 l 142 381 m 214 860 q 226 881 214 875 l 375 965 q 386 968 381 968 q 406 958 399 968 q 413 936 413 949 q 397 908 413 918 l 258 832 q 244 828 253 828 q 223 838 232 828 q 214 860 214 847 m 256 1229 q 307 1374 256 1265 q 329 1389 314 1389 q 348 1382 339 1389 q 357 1364 357 1375 q 354 1354 357 1360 l 328 1283 q 368 1229 368 1271 q 352 1189 368 1206 q 311 1172 336 1172 q 272 1189 289 1172 q 256 1229 256 1206 z "},"Ĥ":{"ha":782,"x_min":110,"x_max":672,"o":"m 110 31 l 110 986 q 144 1015 110 1015 q 179 986 179 1015 l 179 558 l 603 558 l 603 986 q 638 1015 603 1015 q 672 986 672 1015 l 672 31 q 638 0 672 0 q 603 31 603 0 l 603 494 l 179 494 l 179 31 q 144 0 179 0 q 110 31 110 0 m 208 1217 q 224 1240 208 1233 l 368 1318 q 392 1325 379 1325 q 415 1318 404 1325 l 560 1242 q 575 1214 575 1233 q 567 1194 575 1203 q 549 1186 560 1186 l 536 1190 l 392 1267 l 247 1189 q 242 1187 246 1189 q 236 1185 238 1185 q 217 1194 225 1185 q 208 1217 208 1203 z "},"ĥ":{"ha":678,"x_min":-57,"x_max":593,"o":"m -57 1214 q -42 1238 -57 1231 l 103 1315 q 126 1322 114 1322 q 150 1315 139 1322 l 294 1239 q 310 1211 310 1231 q 302 1192 310 1200 q 283 1183 294 1183 l 271 1188 l 126 1264 l -18 1186 q -24 1184 -19 1186 q -29 1182 -28 1182 q -49 1191 -40 1182 q -57 1214 -57 1200 m 92 31 l 92 1035 q 101 1056 92 1047 q 125 1064 111 1064 q 150 1056 140 1064 q 160 1035 160 1047 l 160 558 q 231 633 183 603 q 344 664 279 664 q 519 589 446 664 q 593 410 593 514 l 593 31 q 558 0 593 0 q 525 31 525 0 l 525 410 q 469 542 525 483 q 339 600 414 600 q 214 548 268 600 q 160 410 160 496 l 160 31 q 149 10 160 19 q 125 0 139 0 q 101 9 111 0 q 92 31 92 18 z "},"Ħ":{"ha":785,"x_min":28,"x_max":756,"o":"m 28 781 q 35 802 28 793 q 56 811 43 811 l 111 811 l 111 986 q 146 1015 111 1015 q 181 986 181 1015 l 181 811 l 604 811 l 604 986 q 639 1015 604 1015 q 674 986 674 1015 l 674 811 l 728 811 q 747 802 739 811 q 756 781 756 793 q 747 761 756 769 q 728 753 739 753 l 674 753 l 674 31 q 639 0 674 0 q 604 31 604 0 l 604 494 l 181 494 l 181 31 q 146 0 181 0 q 111 31 111 0 l 111 753 l 56 753 q 35 761 43 753 q 28 781 28 769 m 181 558 l 604 558 l 604 753 l 181 753 l 181 558 z "},"ħ":{"ha":678,"x_min":19,"x_max":593,"o":"m 19 843 q 49 874 19 874 l 92 874 l 92 1035 q 101 1056 92 1047 q 125 1064 111 1064 q 150 1056 140 1064 q 160 1035 160 1047 l 160 874 l 350 874 q 371 865 361 874 q 381 843 381 856 q 372 823 381 831 q 350 815 363 815 l 160 815 l 160 558 q 231 633 183 603 q 344 664 279 664 q 519 589 446 664 q 593 410 593 514 l 593 31 q 558 0 593 0 q 525 31 525 0 l 525 410 q 469 542 525 483 q 339 600 414 600 q 214 548 268 600 q 160 410 160 496 l 160 31 q 149 10 160 19 q 125 0 139 0 q 101 9 111 0 q 92 31 92 18 l 92 815 l 49 815 q 19 843 19 815 z "},"Ĩ":{"ha":289,"x_min":-64,"x_max":356,"o":"m -64 1243 q -22 1296 -64 1274 q 60 1318 21 1318 q 149 1293 94 1318 q 239 1268 203 1268 q 300 1290 275 1268 q 332 1311 325 1311 q 349 1303 342 1311 q 356 1285 356 1294 q 316 1231 356 1251 q 239 1210 276 1210 q 150 1235 204 1210 q 57 1260 96 1260 q -7 1237 22 1260 q -42 1214 -36 1214 q -64 1243 -64 1214 m 110 31 l 110 986 q 144 1015 110 1015 q 179 986 179 1015 l 179 31 q 144 0 179 0 q 110 31 110 0 z "},"ĩ":{"ha":251,"x_min":-86,"x_max":333,"o":"m -86 886 q -44 939 -86 917 q 38 961 -1 961 q 126 936 72 961 q 217 911 181 911 q 278 933 253 911 q 310 954 303 954 q 326 946 319 954 q 333 928 333 938 q 294 874 333 894 q 217 853 254 853 q 128 878 182 853 q 35 903 74 903 q -29 880 0 903 q -64 857 -58 857 q -86 886 -86 857 m 92 31 l 92 628 q 125 656 92 656 q 160 628 160 656 l 160 31 q 149 10 160 19 q 125 0 139 0 q 101 9 111 0 q 92 31 92 18 z "},"Ī":{"ha":289,"x_min":-35,"x_max":326,"o":"m -35 1276 q -6 1307 -35 1307 l 296 1307 q 317 1298 307 1307 q 326 1276 326 1289 q 317 1256 326 1264 q 296 1249 308 1249 l -6 1249 q -35 1276 -35 1249 m 110 31 l 110 986 q 144 1015 110 1015 q 179 986 179 1015 l 179 31 q 144 0 179 0 q 110 31 110 0 z "},"ī":{"ha":251,"x_min":-56,"x_max":306,"o":"m -56 919 q -26 950 -56 950 l 275 950 q 296 941 286 950 q 306 919 306 932 q 297 899 306 907 q 275 892 288 892 l -26 892 q -56 919 -56 892 m 92 31 l 92 628 q 125 656 92 656 q 160 628 160 656 l 160 31 q 149 10 160 19 q 125 0 139 0 q 101 9 111 0 q 92 31 92 18 z "},"Ĭ":{"ha":289,"x_min":-11,"x_max":301,"o":"m -11 1346 l 42 1346 q 72 1265 42 1299 q 146 1232 103 1232 q 218 1265 188 1232 q 249 1346 249 1299 l 301 1346 q 254 1236 301 1283 q 146 1189 207 1189 q 36 1235 83 1189 q -11 1346 -11 1282 m 110 31 l 110 986 q 144 1015 110 1015 q 179 986 179 1015 l 179 31 q 144 0 179 0 q 110 31 110 0 z "},"ĭ":{"ha":251,"x_min":-31,"x_max":282,"o":"m -31 989 l 22 989 q 53 908 22 942 q 126 875 83 875 q 199 908 168 875 q 229 989 229 942 l 282 989 q 235 879 282 926 q 126 832 188 832 q 17 878 64 832 q -31 989 -31 925 m 92 31 l 92 628 q 125 656 92 656 q 160 628 160 656 l 160 31 q 149 10 160 19 q 125 0 139 0 q 101 9 111 0 q 92 31 92 18 z "},"Į":{"ha":290,"x_min":22,"x_max":182,"o":"m 22 -171 q 114 17 22 -71 q 111 31 111 21 l 111 986 q 146 1015 111 1015 q 181 986 181 1015 l 181 31 q 164 4 181 11 q 69 -167 69 -83 q 157 -226 69 -226 q 182 -249 182 -226 q 149 -269 182 -269 q 60 -246 97 -269 q 22 -171 22 -222 z "},"į":{"ha":253,"x_min":-3,"x_max":178,"o":"m -3 -174 q 94 19 -3 -71 q 93 31 93 24 l 93 628 q 126 656 93 656 q 161 628 161 656 l 161 31 q 142 4 161 14 q 44 -169 44 -86 q 132 -229 44 -229 q 157 -251 157 -229 q 124 -272 157 -272 q 35 -249 72 -272 q -3 -174 -3 -225 m 74 914 q 89 948 74 933 q 126 963 104 963 q 163 948 147 963 q 178 914 178 933 q 163 878 178 893 q 126 863 147 863 q 89 878 104 863 q 74 914 74 893 z "},"İ":{"ha":289,"x_min":99,"x_max":190,"o":"m 112 1199 q 105 1206 112 1199 q 99 1232 99 1213 q 112 1264 99 1251 q 144 1276 125 1276 q 177 1264 164 1276 q 190 1232 190 1251 q 177 1199 190 1213 q 144 1186 164 1186 q 112 1199 125 1186 m 110 31 l 110 986 q 144 1015 110 1015 q 179 986 179 1015 l 179 31 q 144 0 179 0 q 110 31 110 0 z "},"ı":{"ha":251,"x_min":92,"x_max":160,"o":"m 92 31 l 92 628 q 125 656 92 656 q 160 628 160 656 l 160 31 q 149 10 160 19 q 125 0 139 0 q 101 9 111 0 q 92 31 92 18 z "},"Ĳ":{"ha":983,"x_min":110,"x_max":878,"o":"m 110 31 l 110 986 q 144 1015 110 1015 q 179 986 179 1015 l 179 31 q 144 0 179 0 q 110 31 110 0 m 318 228 q 353 264 318 264 q 388 235 388 264 q 447 104 389 150 q 599 58 506 58 q 808 283 808 58 l 808 949 l 600 949 q 571 983 571 949 q 600 1015 571 1015 l 844 1015 q 878 985 878 1015 l 878 283 q 802 62 878 132 q 600 -8 726 -8 q 395 58 472 -8 q 318 228 318 125 z "},"ĳ":{"ha":499,"x_min":72,"x_max":424,"o":"m 72 914 q 88 948 72 933 q 125 963 103 963 q 161 948 146 963 q 176 914 176 933 q 161 878 176 893 q 125 863 146 863 q 88 878 103 863 q 72 914 72 893 m 92 31 l 92 628 q 125 656 92 656 q 160 628 160 656 l 160 31 q 149 10 160 19 q 125 0 139 0 q 101 9 111 0 q 92 31 92 18 m 206 -317 q 201 -312 206 -317 q 196 -293 196 -307 q 205 -271 196 -279 q 228 -262 214 -262 q 317 -212 294 -262 q 339 -64 339 -162 l 339 628 q 372 656 339 656 q 407 628 407 656 l 407 -64 q 231 -326 407 -326 q 206 -317 215 -326 m 319 914 q 335 948 319 933 q 372 963 350 963 q 408 948 393 963 q 424 914 424 933 q 408 878 424 893 q 372 863 393 863 q 335 878 350 863 q 319 914 319 893 z "},"Ĵ":{"ha":699,"x_min":33,"x_max":593,"o":"m 33 228 q 68 264 33 264 q 103 235 103 264 q 163 104 104 150 q 314 58 221 58 q 524 283 524 58 l 524 949 l 315 949 q 286 983 286 949 q 315 1015 286 1015 l 560 1015 q 593 985 593 1015 l 593 283 q 517 62 593 132 q 315 -8 442 -8 q 110 58 188 -8 q 33 228 33 125 m 167 1217 q 182 1240 167 1233 l 326 1318 q 350 1325 338 1325 q 374 1318 363 1325 l 518 1242 q 533 1214 533 1233 q 526 1194 533 1203 q 507 1186 518 1186 l 494 1190 l 350 1267 l 206 1189 q 200 1187 204 1189 q 194 1185 196 1185 q 175 1194 183 1185 q 167 1217 167 1203 z "},"ĵ":{"ha":251,"x_min":-57,"x_max":310,"o":"m -57 860 q -42 883 -57 875 l 103 961 q 126 968 114 968 q 150 961 139 968 l 294 885 q 310 857 310 876 q 302 838 310 846 q 283 829 294 829 l 271 833 l 126 910 l -18 832 q -24 830 -19 832 q -29 828 -28 828 q -49 837 -40 828 q -57 860 -57 846 m -42 -317 q -47 -312 -42 -317 q -51 -293 -51 -307 q -42 -271 -51 -279 q -19 -262 -33 -262 q 69 -212 47 -262 q 92 -64 92 -162 l 92 628 q 125 656 92 656 q 160 628 160 656 l 160 -64 q -17 -326 160 -326 q -42 -317 -32 -326 z "},"Ķ":{"ha":714,"x_min":110,"x_max":706,"o":"m 110 31 l 110 986 q 144 1015 110 1015 q 179 986 179 1015 l 179 467 l 606 1004 q 629 1015 613 1015 q 655 1004 643 1015 q 667 979 667 993 q 660 963 667 968 l 350 576 l 700 49 q 706 33 706 43 q 694 9 706 19 q 667 -1 682 -1 q 640 15 650 -1 l 304 518 l 179 363 l 179 31 q 144 0 179 0 q 110 31 110 0 m 257 -175 q 271 -154 257 -160 l 418 -69 q 429 -67 426 -67 q 449 -76 442 -67 q 457 -99 457 -86 q 440 -126 457 -117 l 301 -203 q 289 -207 294 -207 q 267 -197 276 -207 q 257 -175 257 -187 z "},"ķ":{"ha":618,"x_min":92,"x_max":600,"o":"m 92 31 l 92 1035 q 101 1056 92 1047 q 125 1064 111 1064 q 150 1056 140 1064 q 160 1035 160 1047 l 160 336 l 518 650 q 535 657 525 657 q 560 649 549 657 q 571 625 571 640 q 561 603 571 611 l 346 415 l 596 49 q 600 33 600 42 q 590 10 600 21 q 565 -1 579 -1 q 542 13 551 -1 l 297 371 l 160 251 l 160 31 q 149 10 160 19 q 125 0 139 0 q 101 9 111 0 q 92 31 92 18 m 210 -175 q 224 -154 210 -160 l 371 -69 q 382 -67 379 -67 q 402 -76 394 -67 q 410 -99 410 -86 q 393 -126 410 -117 l 254 -203 q 242 -207 247 -207 q 219 -197 229 -207 q 210 -175 210 -187 z "},"ĸ":{"ha":618,"x_min":92,"x_max":600,"o":"m 92 31 l 92 628 q 125 656 92 656 q 160 628 160 656 l 160 336 l 518 650 q 535 657 525 657 q 560 649 549 657 q 571 625 571 640 q 561 603 571 611 l 346 415 l 596 49 q 600 33 600 42 q 590 10 600 21 q 565 -1 579 -1 q 542 13 551 -1 l 297 371 l 160 251 l 160 31 q 149 10 160 19 q 125 0 139 0 q 101 9 111 0 q 92 31 92 18 z "},"Ĺ":{"ha":635,"x_min":110,"x_max":615,"o":"m 110 31 l 110 986 q 144 1015 110 1015 q 179 986 179 1015 l 179 67 l 589 67 q 615 33 615 67 q 589 0 615 0 l 143 0 q 110 31 110 0 m 261 1217 q 274 1238 261 1232 l 422 1322 q 433 1325 428 1325 q 453 1315 446 1325 q 460 1293 460 1306 q 444 1265 460 1275 l 306 1189 q 292 1185 300 1185 q 270 1194 279 1185 q 261 1217 261 1204 z "},"ĺ":{"ha":274,"x_min":42,"x_max":240,"o":"m 42 1154 q 54 1175 42 1169 l 203 1260 q 214 1263 208 1263 q 233 1253 226 1263 q 240 1231 240 1243 q 225 1203 240 1213 l 86 1126 q 72 1122 81 1122 q 51 1132 60 1122 q 42 1154 42 1142 m 103 31 l 103 1035 q 113 1056 103 1047 q 136 1064 122 1064 q 161 1056 151 1064 q 171 1035 171 1047 l 171 31 q 160 10 171 19 q 136 0 150 0 q 113 9 122 0 q 103 31 103 18 z "},"Ļ":{"ha":635,"x_min":110,"x_max":615,"o":"m 110 31 l 110 986 q 144 1015 110 1015 q 179 986 179 1015 l 179 67 l 589 67 q 615 33 615 67 q 589 0 615 0 l 143 0 q 110 31 110 0 m 251 -175 q 265 -154 251 -160 l 413 -69 q 424 -67 421 -67 q 444 -76 436 -67 q 451 -99 451 -86 q 435 -126 451 -117 l 296 -203 q 283 -207 289 -207 q 261 -197 271 -207 q 251 -175 251 -187 z "},"ļ":{"ha":274,"x_min":40,"x_max":240,"o":"m 40 -175 q 54 -154 40 -160 l 201 -69 q 213 -67 210 -67 q 233 -76 225 -67 q 240 -99 240 -86 q 224 -126 240 -117 l 85 -203 q 72 -207 78 -207 q 50 -197 60 -207 q 40 -175 40 -187 m 103 31 l 103 1035 q 113 1056 103 1047 q 136 1064 122 1064 q 161 1056 151 1064 q 171 1035 171 1047 l 171 31 q 160 10 171 19 q 136 0 150 0 q 113 9 122 0 q 103 31 103 18 z "},"Ľ":{"ha":635,"x_min":110,"x_max":615,"o":"m 110 31 l 110 986 q 144 1015 110 1015 q 179 986 179 1015 l 179 67 l 589 67 q 615 33 615 67 q 589 0 615 0 l 143 0 q 110 31 110 0 m 404 972 q 420 1013 404 996 q 461 1029 436 1029 q 500 1013 483 1029 q 517 972 517 996 q 465 828 517 936 q 443 813 458 813 q 424 819 433 813 q 415 838 415 826 q 418 847 415 844 l 444 918 q 404 972 404 932 z "},"ľ":{"ha":274,"x_min":103,"x_max":376,"o":"m 103 31 l 103 1035 q 113 1056 103 1047 q 136 1064 122 1064 q 161 1056 151 1064 q 171 1035 171 1047 l 171 31 q 160 10 171 19 q 136 0 150 0 q 113 9 122 0 q 103 31 103 18 m 264 972 q 280 1013 264 996 q 321 1029 296 1029 q 360 1013 343 1029 q 376 972 376 996 q 325 828 376 936 q 303 813 318 813 q 284 819 293 813 q 275 838 275 826 q 278 847 275 844 l 304 918 q 264 972 264 932 z "},"Ŀ":{"ha":635,"x_min":110,"x_max":615,"o":"m 110 31 l 110 986 q 144 1015 110 1015 q 179 986 179 1015 l 179 67 l 589 67 q 615 33 615 67 q 589 0 615 0 l 143 0 q 110 31 110 0 m 400 585 q 416 624 400 608 q 457 640 432 640 q 497 624 481 640 q 513 585 513 608 q 496 546 513 563 q 457 529 479 529 q 416 546 432 529 q 400 585 400 563 z "},"ŀ":{"ha":415,"x_min":103,"x_max":399,"o":"m 103 31 l 103 1035 q 113 1056 103 1047 q 136 1064 122 1064 q 161 1056 151 1064 q 171 1035 171 1047 l 171 31 q 160 10 171 19 q 136 0 150 0 q 113 9 122 0 q 103 31 103 18 m 286 417 q 302 456 286 440 q 343 472 318 472 q 383 456 367 472 q 399 417 399 439 q 382 378 399 394 q 343 361 365 361 q 302 378 318 361 q 286 417 286 394 z "},"Ł":{"ha":643,"x_min":6,"x_max":624,"o":"m 6 403 q 19 425 6 419 l 118 481 l 118 986 q 153 1015 118 1015 q 188 986 188 1015 l 188 519 l 336 604 q 349 607 340 607 q 370 597 361 607 q 379 575 379 588 q 365 550 379 560 l 188 450 l 188 67 l 597 67 q 624 33 624 67 q 597 0 624 0 l 151 0 q 118 31 118 0 l 118 411 l 47 372 q 35 368 42 368 q 15 378 24 368 q 6 403 6 389 z "},"ł":{"ha":415,"x_min":25,"x_max":394,"o":"m 25 403 q 39 425 25 419 l 165 496 l 165 1035 q 175 1056 165 1047 q 199 1064 185 1064 q 224 1056 214 1064 q 233 1035 233 1047 l 233 535 l 351 601 q 364 604 356 604 q 385 594 376 604 q 394 574 394 585 q 379 549 394 556 l 233 465 l 233 31 q 223 10 233 19 q 199 0 213 0 q 175 9 185 0 q 165 31 165 18 l 165 428 l 67 372 q 54 368 61 368 q 34 378 43 368 q 25 403 25 389 z "},"Ń":{"ha":782,"x_min":110,"x_max":672,"o":"m 110 31 l 110 986 q 144 1015 110 1015 q 201 958 171 1015 l 603 165 l 603 986 q 638 1015 603 1015 q 672 986 672 1015 l 672 31 q 638 0 672 0 q 588 51 615 0 l 179 851 l 179 31 q 144 0 179 0 q 110 31 110 0 m 289 1217 q 301 1238 289 1232 l 450 1322 q 461 1325 456 1325 q 481 1315 474 1325 q 488 1293 488 1306 q 472 1265 488 1275 l 333 1189 q 319 1185 328 1185 q 298 1194 307 1185 q 289 1217 289 1204 z "},"ń":{"ha":678,"x_min":92,"x_max":593,"o":"m 92 31 l 92 628 q 125 656 92 656 q 149 648 139 656 q 158 628 158 640 l 158 558 q 231 633 182 603 q 344 664 279 664 q 519 589 446 664 q 593 410 593 514 l 593 31 q 558 0 593 0 q 525 31 525 0 l 525 410 q 469 542 525 483 q 339 600 414 600 q 214 548 268 600 q 160 410 160 496 l 160 31 q 149 10 160 19 q 125 0 139 0 q 101 9 111 0 q 92 31 92 18 m 238 860 q 250 881 238 875 l 399 965 q 410 968 404 968 q 429 958 422 968 q 436 936 436 949 q 421 908 436 918 l 282 832 q 268 828 275 828 q 247 838 256 828 q 238 860 238 847 z "},"Ņ":{"ha":782,"x_min":110,"x_max":672,"o":"m 110 31 l 110 986 q 144 1015 110 1015 q 201 958 171 1015 l 603 165 l 603 986 q 638 1015 603 1015 q 672 986 672 1015 l 672 31 q 638 0 672 0 q 588 51 615 0 l 179 851 l 179 31 q 144 0 179 0 q 110 31 110 0 m 288 -175 q 301 -154 288 -160 l 449 -69 q 460 -67 457 -67 q 480 -76 472 -67 q 488 -99 488 -86 q 471 -126 488 -117 l 332 -203 q 319 -207 325 -207 q 297 -197 307 -207 q 288 -175 288 -187 z "},"ņ":{"ha":678,"x_min":92,"x_max":593,"o":"m 92 31 l 92 628 q 125 656 92 656 q 149 648 139 656 q 158 628 158 640 l 158 558 q 231 633 182 603 q 344 664 279 664 q 519 589 446 664 q 593 410 593 514 l 593 31 q 558 0 593 0 q 525 31 525 0 l 525 410 q 469 542 525 483 q 339 600 414 600 q 214 548 268 600 q 160 410 160 496 l 160 31 q 149 10 160 19 q 125 0 139 0 q 101 9 111 0 q 92 31 92 18 m 225 -175 q 239 -154 225 -160 l 386 -69 q 397 -67 394 -67 q 417 -76 410 -67 q 425 -99 425 -86 q 408 -126 425 -117 l 269 -203 q 257 -207 264 -207 q 235 -197 244 -207 q 225 -175 225 -187 z "},"Ň":{"ha":782,"x_min":110,"x_max":672,"o":"m 110 31 l 110 986 q 144 1015 110 1015 q 201 958 171 1015 l 603 165 l 603 986 q 638 1015 603 1015 q 672 986 672 1015 l 672 31 q 638 0 672 0 q 588 51 615 0 l 179 851 l 179 31 q 144 0 179 0 q 110 31 110 0 m 208 1346 q 215 1364 208 1356 q 232 1372 222 1372 q 253 1363 243 1372 l 390 1226 l 526 1363 q 549 1372 536 1372 q 565 1364 558 1372 q 572 1346 572 1356 q 558 1319 572 1336 l 418 1186 q 390 1172 401 1172 q 361 1186 375 1172 l 222 1319 q 208 1346 208 1333 z "},"ň":{"ha":678,"x_min":92,"x_max":593,"o":"m 92 31 l 92 628 q 125 656 92 656 q 149 648 139 656 q 158 628 158 640 l 158 558 q 231 633 182 603 q 344 664 279 664 q 519 589 446 664 q 593 410 593 514 l 593 31 q 558 0 593 0 q 525 31 525 0 l 525 410 q 469 542 525 483 q 339 600 414 600 q 214 548 268 600 q 160 410 160 496 l 160 31 q 149 10 160 19 q 125 0 139 0 q 101 9 111 0 q 92 31 92 18 m 151 989 q 158 1007 151 999 q 175 1015 165 1015 q 196 1006 186 1015 l 333 869 l 469 1006 q 492 1015 479 1015 q 508 1007 501 1015 q 515 989 515 999 q 501 963 515 979 l 361 829 q 333 815 344 815 q 304 829 318 815 l 165 963 q 151 989 151 976 z "},"Ŋ":{"ha":783,"x_min":110,"x_max":672,"o":"m 110 31 l 110 986 q 144 1015 110 1015 q 201 958 171 1015 l 603 165 l 603 986 q 638 1015 603 1015 q 672 986 672 1015 l 672 -64 q 497 -326 672 -326 q 472 -317 481 -326 q 463 -293 463 -307 q 472 -271 463 -279 q 493 -262 481 -262 q 583 -213 561 -262 q 604 -64 604 -164 l 604 1 q 588 51 604 19 l 179 851 l 179 31 q 144 0 179 0 q 110 31 110 0 z "},"ŋ":{"ha":679,"x_min":92,"x_max":593,"o":"m 92 31 l 92 628 q 125 656 92 656 q 149 648 139 656 q 158 628 158 640 l 158 558 q 231 633 182 603 q 344 664 279 664 q 519 589 446 664 q 593 410 593 514 l 593 -64 q 417 -326 593 -326 q 392 -317 401 -326 q 382 -293 382 -307 q 391 -271 382 -279 q 414 -262 400 -262 q 503 -212 481 -262 q 525 -64 525 -162 l 525 410 q 469 542 525 483 q 339 600 414 600 q 214 548 268 600 q 160 410 160 496 l 160 31 q 149 10 160 19 q 125 0 139 0 q 101 9 111 0 q 92 31 92 18 z "},"Ō":{"ha":760,"x_min":100,"x_max":660,"o":"m 100 283 l 100 724 q 176 945 100 875 q 379 1015 251 1015 q 583 945 506 1015 q 660 724 660 875 l 660 283 q 583 62 660 132 q 379 -8 506 -8 q 176 62 251 -8 q 100 283 100 132 m 169 283 q 379 58 169 58 q 535 115 481 58 q 590 283 590 171 l 590 724 q 535 892 590 836 q 379 949 481 949 q 169 724 169 949 l 169 283 m 199 1276 q 228 1307 199 1307 l 529 1307 q 550 1298 540 1307 q 560 1276 560 1289 q 551 1256 560 1264 q 529 1249 542 1249 l 228 1249 q 199 1276 199 1249 z "},"ō":{"ha":640,"x_min":65,"x_max":575,"o":"m 65 249 l 65 410 q 140 588 65 513 q 319 664 215 664 q 499 589 422 664 q 575 410 575 514 l 575 249 q 498 69 575 147 q 319 -8 421 -8 q 142 69 218 -8 q 65 249 65 146 m 133 249 q 188 115 133 174 q 319 56 243 56 q 451 115 396 56 q 507 249 507 174 l 507 410 q 451 542 507 483 q 319 600 396 600 q 188 542 243 600 q 133 410 133 483 l 133 249 m 140 919 q 169 950 140 950 l 471 950 q 492 941 482 950 q 501 919 501 932 q 492 899 501 907 q 471 892 483 892 l 169 892 q 140 919 140 892 z "},"Ŏ":{"ha":760,"x_min":100,"x_max":660,"o":"m 100 283 l 100 724 q 176 945 100 875 q 379 1015 251 1015 q 583 945 506 1015 q 660 724 660 875 l 660 283 q 583 62 660 132 q 379 -8 506 -8 q 176 62 251 -8 q 100 283 100 132 m 169 283 q 379 58 169 58 q 535 115 481 58 q 590 283 590 171 l 590 724 q 535 892 590 836 q 379 949 481 949 q 169 724 169 949 l 169 283 m 222 1346 l 275 1346 q 306 1265 275 1299 q 379 1232 336 1232 q 451 1265 421 1232 q 482 1346 482 1299 l 535 1346 q 488 1236 535 1283 q 379 1189 440 1189 q 269 1235 317 1189 q 222 1346 222 1282 z "},"ŏ":{"ha":640,"x_min":65,"x_max":575,"o":"m 65 249 l 65 410 q 140 588 65 513 q 319 664 215 664 q 499 589 422 664 q 575 410 575 514 l 575 249 q 498 69 575 147 q 319 -8 421 -8 q 142 69 218 -8 q 65 249 65 146 m 133 249 q 188 115 133 174 q 319 56 243 56 q 451 115 396 56 q 507 249 507 174 l 507 410 q 451 542 507 483 q 319 600 396 600 q 188 542 243 600 q 133 410 133 483 l 133 249 m 164 989 l 217 989 q 247 908 217 942 q 321 875 278 875 q 393 908 363 875 q 424 989 424 942 l 476 989 q 429 879 476 926 q 321 832 382 832 q 211 878 258 832 q 164 989 164 925 z "},"Ő":{"ha":760,"x_min":100,"x_max":660,"o":"m 100 283 l 100 724 q 176 945 100 875 q 379 1015 251 1015 q 583 945 506 1015 q 660 724 660 875 l 660 283 q 583 62 660 132 q 379 -8 506 -8 q 176 62 251 -8 q 100 283 100 132 m 169 283 q 379 58 169 58 q 535 115 481 58 q 590 283 590 171 l 590 724 q 535 892 590 836 q 379 949 481 949 q 169 724 169 949 l 169 283 m 235 1214 q 246 1232 235 1226 l 383 1321 q 396 1325 389 1325 q 415 1316 407 1325 q 422 1296 422 1307 q 410 1271 422 1281 l 281 1190 q 265 1185 274 1185 q 244 1194 254 1185 q 235 1214 235 1203 m 442 1214 q 451 1232 442 1226 l 590 1321 q 601 1325 594 1325 q 622 1317 614 1325 q 629 1296 629 1308 q 615 1271 629 1281 l 486 1190 q 472 1185 481 1185 q 451 1194 460 1185 q 442 1214 442 1203 z "},"ő":{"ha":640,"x_min":65,"x_max":575,"o":"m 65 249 l 65 410 q 140 588 65 513 q 319 664 215 664 q 499 589 422 664 q 575 410 575 514 l 575 249 q 498 69 575 147 q 319 -8 421 -8 q 142 69 218 -8 q 65 249 65 146 m 133 249 q 188 115 133 174 q 319 56 243 56 q 451 115 396 56 q 507 249 507 174 l 507 410 q 451 542 507 483 q 319 600 396 600 q 188 542 243 600 q 133 410 133 483 l 133 249 m 161 857 q 172 875 161 869 l 310 964 q 322 968 317 968 q 341 959 333 968 q 349 939 349 950 q 336 914 349 925 l 207 833 q 192 828 200 828 q 171 837 181 828 q 161 857 161 846 m 368 857 q 378 875 368 869 l 517 964 q 528 968 521 968 q 548 960 540 968 q 556 939 556 951 q 542 914 556 924 l 413 833 q 399 828 407 828 q 377 837 386 828 q 368 857 368 846 z "},"Œ":{"ha":1169,"x_min":100,"x_max":1138,"o":"m 100 283 l 100 724 q 174 945 100 875 q 374 1015 249 1015 q 594 915 528 1015 l 594 985 q 628 1015 594 1015 l 1110 1015 q 1138 983 1138 1015 q 1110 949 1138 949 l 658 949 l 658 540 l 872 540 q 900 507 900 540 q 872 476 900 476 l 658 476 l 658 67 l 1110 67 q 1138 32 1138 67 q 1110 0 1138 0 l 628 0 q 594 31 594 0 l 594 92 q 374 -8 528 -8 q 174 62 249 -8 q 100 283 100 132 m 169 283 q 379 58 169 58 q 535 115 481 58 q 590 283 590 171 l 590 724 q 535 892 590 836 q 379 949 481 949 q 169 724 169 949 l 169 283 z "},"œ":{"ha":1067,"x_min":65,"x_max":1014,"o":"m 65 249 l 65 410 q 140 588 65 513 q 319 664 215 664 q 449 626 389 664 q 542 526 510 589 q 632 626 572 588 q 763 664 692 664 q 939 592 864 664 q 1014 415 1014 519 q 1006 353 1014 376 q 978 319 997 329 q 942 308 958 310 q 897 306 926 306 l 575 306 l 575 247 q 638 106 575 158 q 803 54 700 54 q 883 68 850 54 q 934 96 917 82 q 963 110 951 110 q 985 100 975 110 q 994 75 994 90 q 935 21 994 50 q 794 -8 876 -8 q 640 28 707 -8 q 540 131 572 65 q 447 30 507 68 q 319 -8 388 -8 q 142 69 218 -8 q 65 249 65 146 m 133 249 q 188 115 133 174 q 319 56 243 56 q 451 115 396 56 q 507 249 507 174 l 507 410 q 451 542 507 483 q 319 600 396 600 q 188 542 243 600 q 133 410 133 483 l 133 249 m 575 363 l 871 363 q 933 372 918 363 q 947 413 947 382 q 894 545 947 488 q 761 603 842 603 q 630 550 685 603 q 575 425 575 497 l 575 363 z "},"Ŕ":{"ha":717,"x_min":110,"x_max":671,"o":"m 110 31 l 110 986 q 118 1007 110 999 q 140 1015 126 1015 l 378 1015 q 590 952 508 1015 q 671 746 671 889 q 444 481 671 513 l 667 50 q 671 33 671 42 q 660 9 671 19 q 633 -1 650 -1 q 590 47 617 -1 l 372 474 l 179 474 l 179 31 q 144 0 179 0 q 110 31 110 0 m 179 538 l 378 538 q 601 744 601 538 q 378 949 601 949 l 179 949 l 179 538 m 294 1217 q 307 1238 294 1232 l 456 1322 q 467 1325 461 1325 q 486 1315 479 1325 q 493 1293 493 1306 q 478 1265 493 1275 l 339 1189 q 325 1185 333 1185 q 303 1194 313 1185 q 294 1217 294 1204 z "},"ŕ":{"ha":443,"x_min":92,"x_max":428,"o":"m 92 31 l 92 628 q 125 656 92 656 q 149 648 139 656 q 158 628 158 640 l 158 557 q 233 633 183 603 q 347 664 282 664 l 397 664 q 419 655 410 664 q 428 632 428 646 q 419 609 428 618 q 397 600 410 600 l 347 600 q 216 544 272 600 q 160 397 160 488 l 160 31 q 149 10 160 19 q 125 0 139 0 q 101 9 111 0 q 92 31 92 18 m 114 860 q 126 881 114 875 l 275 965 q 286 968 281 968 q 306 958 299 968 q 313 936 313 949 q 297 908 313 918 l 158 832 q 144 828 153 828 q 123 838 132 828 q 114 860 114 847 z "},"Ŗ":{"ha":717,"x_min":110,"x_max":671,"o":"m 110 31 l 110 986 q 118 1007 110 999 q 140 1015 126 1015 l 378 1015 q 590 952 508 1015 q 671 746 671 889 q 444 481 671 513 l 667 50 q 671 33 671 42 q 660 9 671 19 q 633 -1 650 -1 q 590 47 617 -1 l 372 474 l 179 474 l 179 31 q 144 0 179 0 q 110 31 110 0 m 179 538 l 378 538 q 601 744 601 538 q 378 949 601 949 l 179 949 l 179 538 m 242 -175 q 256 -154 242 -160 l 403 -69 q 414 -67 411 -67 q 434 -76 426 -67 q 442 -99 442 -86 q 425 -126 442 -117 l 286 -203 q 274 -207 281 -207 q 251 -197 261 -207 q 242 -175 242 -187 z "},"ŗ":{"ha":443,"x_min":-7,"x_max":428,"o":"m -7 -175 q 7 -154 -7 -160 l 154 -69 q 165 -67 163 -67 q 185 -76 178 -67 q 193 -99 193 -86 q 176 -126 193 -117 l 38 -203 q 25 -207 31 -207 q 3 -197 13 -207 q -7 -175 -7 -187 m 92 31 l 92 628 q 125 656 92 656 q 149 648 139 656 q 158 628 158 640 l 158 557 q 233 633 183 603 q 347 664 282 664 l 397 664 q 419 655 410 664 q 428 632 428 646 q 419 609 428 618 q 397 600 410 600 l 347 600 q 216 544 272 600 q 160 397 160 488 l 160 31 q 149 10 160 19 q 125 0 139 0 q 101 9 111 0 q 92 31 92 18 z "},"Ř":{"ha":717,"x_min":110,"x_max":671,"o":"m 110 31 l 110 986 q 118 1007 110 999 q 140 1015 126 1015 l 378 1015 q 590 952 508 1015 q 671 746 671 889 q 444 481 671 513 l 667 50 q 671 33 671 42 q 660 9 671 19 q 633 -1 650 -1 q 590 47 617 -1 l 372 474 l 179 474 l 179 31 q 144 0 179 0 q 110 31 110 0 m 179 538 l 378 538 q 601 744 601 538 q 378 949 601 949 l 179 949 l 179 538 m 201 1346 q 208 1364 201 1356 q 225 1372 215 1372 q 246 1363 236 1372 l 383 1226 l 519 1363 q 542 1372 529 1372 q 558 1364 551 1372 q 565 1346 565 1356 q 551 1319 565 1336 l 411 1186 q 383 1172 394 1172 q 354 1186 368 1172 l 215 1319 q 201 1346 201 1333 z "},"ř":{"ha":443,"x_min":29,"x_max":428,"o":"m 29 989 q 36 1007 29 999 q 53 1015 43 1015 q 74 1006 64 1015 l 211 869 l 347 1006 q 369 1015 357 1015 q 386 1007 379 1015 q 393 989 393 999 q 379 963 393 979 l 239 829 q 211 815 222 815 q 182 829 196 815 l 43 963 q 29 989 29 976 m 92 31 l 92 628 q 125 656 92 656 q 149 648 139 656 q 158 628 158 640 l 158 557 q 233 633 183 603 q 347 664 282 664 l 397 664 q 419 655 410 664 q 428 632 428 646 q 419 609 428 618 q 397 600 410 600 l 347 600 q 216 544 272 600 q 160 397 160 488 l 160 31 q 149 10 160 19 q 125 0 139 0 q 101 9 111 0 q 92 31 92 18 z "},"Ś":{"ha":676,"x_min":54,"x_max":614,"o":"m 54 136 q 65 163 54 150 q 86 175 75 175 q 111 157 96 175 l 149 117 q 216 76 169 94 q 324 58 263 58 q 488 111 431 58 q 544 267 544 164 q 510 396 544 344 q 424 469 475 447 q 312 515 372 492 q 200 562 251 539 q 114 638 149 585 q 79 771 79 690 q 106 894 79 843 q 176 970 132 944 q 266 1006 221 996 q 363 1017 311 1017 q 517 992 446 1017 q 589 938 589 968 q 579 911 589 925 q 557 897 569 897 q 526 910 550 897 q 459 937 503 924 q 361 950 415 950 q 210 910 271 950 q 149 776 149 871 q 174 681 149 719 q 241 622 200 643 q 331 585 282 601 q 431 547 381 568 q 522 496 481 526 q 588 409 563 465 q 614 274 614 353 q 537 62 614 132 q 331 -8 460 -8 q 133 43 211 -8 q 54 136 54 94 m 239 1217 q 251 1238 239 1232 l 400 1322 q 411 1325 406 1325 q 431 1315 424 1325 q 438 1293 438 1306 q 422 1265 438 1275 l 283 1189 q 269 1185 278 1185 q 248 1194 257 1185 q 239 1217 239 1204 z "},"ś":{"ha":526,"x_min":50,"x_max":476,"o":"m 50 86 q 58 108 50 97 q 75 118 65 118 q 97 108 83 118 l 129 86 q 181 63 146 74 q 258 53 215 53 q 374 83 336 53 q 411 160 411 113 q 376 247 411 215 q 290 294 340 279 q 188 325 239 308 q 101 379 136 342 q 65 481 65 417 q 119 608 65 553 q 276 664 172 664 q 398 644 342 664 q 454 601 454 624 q 444 578 454 590 q 424 565 435 565 q 375 584 422 565 q 278 603 328 603 q 166 565 203 603 q 129 482 129 528 q 165 408 129 435 q 251 368 200 382 q 354 337 303 354 q 441 277 406 319 q 476 164 476 235 q 419 38 476 83 q 260 -8 363 -8 q 110 23 171 -8 q 50 86 50 54 m 158 860 q 171 881 158 875 l 319 965 q 331 968 325 968 q 350 958 343 968 q 357 936 357 949 q 342 908 357 918 l 203 832 q 189 828 197 828 q 167 838 176 828 q 158 860 158 847 z "},"Ŝ":{"ha":676,"x_min":54,"x_max":614,"o":"m 54 136 q 65 163 54 150 q 86 175 75 175 q 111 157 96 175 l 149 117 q 216 76 169 94 q 324 58 263 58 q 488 111 431 58 q 544 267 544 164 q 510 396 544 344 q 424 469 475 447 q 312 515 372 492 q 200 562 251 539 q 114 638 149 585 q 79 771 79 690 q 106 894 79 843 q 176 970 132 944 q 266 1006 221 996 q 363 1017 311 1017 q 517 992 446 1017 q 589 938 589 968 q 579 911 589 925 q 557 897 569 897 q 526 910 550 897 q 459 937 503 924 q 361 950 415 950 q 210 910 271 950 q 149 776 149 871 q 174 681 149 719 q 241 622 200 643 q 331 585 282 601 q 431 547 381 568 q 522 496 481 526 q 588 409 563 465 q 614 274 614 353 q 537 62 614 132 q 331 -8 460 -8 q 133 43 211 -8 q 54 136 54 94 m 150 1217 q 165 1240 150 1233 l 310 1318 q 333 1325 321 1325 q 357 1318 346 1325 l 501 1242 q 517 1214 517 1233 q 509 1194 517 1203 q 490 1186 501 1186 l 478 1190 l 333 1267 l 189 1189 q 183 1187 188 1189 q 178 1185 179 1185 q 158 1194 167 1185 q 150 1217 150 1203 z "},"ŝ":{"ha":526,"x_min":50,"x_max":476,"o":"m 50 86 q 58 108 50 97 q 75 118 65 118 q 97 108 83 118 l 129 86 q 181 63 146 74 q 258 53 215 53 q 374 83 336 53 q 411 160 411 113 q 376 247 411 215 q 290 294 340 279 q 188 325 239 308 q 101 379 136 342 q 65 481 65 417 q 119 608 65 553 q 276 664 172 664 q 398 644 342 664 q 454 601 454 624 q 444 578 454 590 q 424 565 435 565 q 375 584 422 565 q 278 603 328 603 q 166 565 203 603 q 129 482 129 528 q 165 408 129 435 q 251 368 200 382 q 354 337 303 354 q 441 277 406 319 q 476 164 476 235 q 419 38 476 83 q 260 -8 363 -8 q 110 23 171 -8 q 50 86 50 54 m 74 860 q 89 883 74 875 l 233 961 q 257 968 244 968 q 281 961 269 968 l 425 885 q 440 857 440 876 q 433 838 440 846 q 414 829 425 829 l 401 833 l 257 910 l 113 832 q 107 830 111 832 q 101 828 103 828 q 82 837 90 828 q 74 860 74 846 z "},"Ş":{"ha":676,"x_min":54,"x_max":614,"o":"m 54 136 q 65 163 54 150 q 86 175 75 175 q 111 157 96 175 l 149 117 q 216 76 169 94 q 324 58 263 58 q 488 111 431 58 q 544 267 544 164 q 510 396 544 344 q 424 469 475 447 q 312 515 372 492 q 200 562 251 539 q 114 638 149 585 q 79 771 79 690 q 106 894 79 843 q 176 970 132 944 q 266 1006 221 996 q 363 1017 311 1017 q 517 992 446 1017 q 589 938 589 968 q 579 911 589 925 q 557 897 569 897 q 526 910 550 897 q 459 937 503 924 q 361 950 415 950 q 210 910 271 950 q 149 776 149 871 q 174 681 149 719 q 241 622 200 643 q 331 585 282 601 q 431 547 381 568 q 522 496 481 526 q 588 409 563 465 q 614 274 614 353 q 555 80 614 149 q 392 -4 496 11 l 371 -87 q 470 -117 438 -89 q 503 -186 503 -146 q 472 -258 503 -228 q 385 -289 440 -289 q 315 -280 351 -289 q 279 -256 279 -271 q 285 -237 279 -247 q 299 -226 292 -226 l 324 -236 q 376 -244 349 -244 q 451 -189 451 -244 q 358 -128 451 -135 l 313 -125 l 342 -8 l 331 -8 q 133 43 211 -8 q 54 136 54 94 z "},"ş":{"ha":526,"x_min":50,"x_max":476,"o":"m 50 86 q 58 108 50 97 q 75 118 65 118 q 97 108 83 118 l 129 86 q 181 63 146 74 q 258 53 215 53 q 374 83 336 53 q 411 160 411 113 q 376 247 411 215 q 290 294 340 279 q 188 325 239 308 q 101 379 136 342 q 65 481 65 417 q 119 608 65 553 q 276 664 172 664 q 398 644 342 664 q 454 601 454 624 q 444 578 454 590 q 424 565 435 565 q 375 584 422 565 q 278 603 328 603 q 166 565 203 603 q 129 482 129 528 q 165 408 129 435 q 251 368 200 382 q 354 337 303 354 q 441 277 406 319 q 476 164 476 235 q 431 47 476 92 q 300 -6 385 3 l 281 -87 q 380 -117 347 -89 q 413 -186 413 -146 q 381 -258 413 -228 q 294 -289 350 -289 q 225 -280 261 -289 q 189 -256 189 -271 q 194 -237 189 -247 q 208 -226 200 -226 l 233 -236 q 286 -244 258 -244 q 361 -189 361 -244 q 268 -128 361 -135 l 222 -125 l 251 -8 q 108 24 165 -7 q 50 86 50 54 z "},"Š":{"ha":676,"x_min":54,"x_max":614,"o":"m 54 136 q 65 163 54 150 q 86 175 75 175 q 111 157 96 175 l 149 117 q 216 76 169 94 q 324 58 263 58 q 488 111 431 58 q 544 267 544 164 q 510 396 544 344 q 424 469 475 447 q 312 515 372 492 q 200 562 251 539 q 114 638 149 585 q 79 771 79 690 q 106 894 79 843 q 176 970 132 944 q 266 1006 221 996 q 363 1017 311 1017 q 517 992 446 1017 q 589 938 589 968 q 579 911 589 925 q 557 897 569 897 q 526 910 550 897 q 459 937 503 924 q 361 950 415 950 q 210 910 271 950 q 149 776 149 871 q 174 681 149 719 q 241 622 200 643 q 331 585 282 601 q 431 547 381 568 q 522 496 481 526 q 588 409 563 465 q 614 274 614 353 q 537 62 614 132 q 331 -8 460 -8 q 133 43 211 -8 q 54 136 54 94 m 151 1346 q 158 1364 151 1356 q 175 1372 165 1372 q 196 1363 186 1372 l 333 1226 l 469 1363 q 492 1372 479 1372 q 508 1364 501 1372 q 515 1346 515 1356 q 501 1319 515 1336 l 361 1186 q 333 1172 344 1172 q 304 1186 318 1172 l 165 1319 q 151 1346 151 1333 z "},"š":{"ha":526,"x_min":50,"x_max":476,"o":"m 50 86 q 58 108 50 97 q 75 118 65 118 q 97 108 83 118 l 129 86 q 181 63 146 74 q 258 53 215 53 q 374 83 336 53 q 411 160 411 113 q 376 247 411 215 q 290 294 340 279 q 188 325 239 308 q 101 379 136 342 q 65 481 65 417 q 119 608 65 553 q 276 664 172 664 q 398 644 342 664 q 454 601 454 624 q 444 578 454 590 q 424 565 435 565 q 375 584 422 565 q 278 603 328 603 q 166 565 203 603 q 129 482 129 528 q 165 408 129 435 q 251 368 200 382 q 354 337 303 354 q 441 277 406 319 q 476 164 476 235 q 419 38 476 83 q 260 -8 363 -8 q 110 23 171 -8 q 50 86 50 54 m 75 989 q 82 1007 75 999 q 99 1015 89 1015 q 119 1006 110 1015 l 257 869 l 393 1006 q 415 1015 403 1015 q 432 1007 425 1015 q 439 989 439 999 q 425 963 439 979 l 285 829 q 257 815 268 815 q 228 829 242 815 l 89 963 q 75 989 75 976 z "},"Ţ":{"ha":650,"x_min":21,"x_max":629,"o":"m 29 958 q 25 963 29 958 q 21 982 21 968 q 29 1006 21 996 q 50 1015 38 1015 l 600 1015 q 629 983 629 1015 q 600 949 629 949 l 361 949 l 361 31 q 326 0 361 0 q 292 31 292 0 l 292 949 l 50 949 q 29 958 38 949 m 225 -175 q 239 -154 225 -160 l 386 -69 q 397 -67 394 -67 q 417 -76 410 -67 q 425 -99 425 -86 q 408 -126 425 -117 l 269 -203 q 257 -207 264 -207 q 235 -197 244 -207 q 225 -175 225 -187 z "},"ţ":{"ha":394,"x_min":88,"x_max":368,"o":"m 88 -175 q 101 -154 88 -160 l 249 -69 q 260 -67 257 -67 q 280 -76 272 -67 q 288 -99 288 -86 q 271 -126 288 -117 l 132 -203 q 119 -207 125 -207 q 97 -197 107 -207 q 88 -175 88 -187 m 89 199 l 89 944 q 99 965 89 957 q 122 974 110 974 q 147 965 136 974 q 157 944 157 957 l 157 656 l 342 656 q 360 647 353 656 q 368 625 368 638 q 360 605 368 614 q 342 596 351 596 l 157 596 l 157 199 q 189 94 157 125 q 300 64 221 64 l 335 64 q 358 55 349 64 q 367 32 367 46 q 358 10 367 19 q 335 0 349 0 l 300 0 q 89 199 89 0 z "},"Ť":{"ha":650,"x_min":21,"x_max":629,"o":"m 29 958 q 25 963 29 958 q 21 982 21 968 q 29 1006 21 996 q 50 1015 38 1015 l 600 1015 q 629 983 629 1015 q 600 949 629 949 l 361 949 l 361 31 q 326 0 361 0 q 292 31 292 0 l 292 949 l 50 949 q 29 958 38 949 m 142 1346 q 149 1364 142 1356 q 165 1372 156 1372 q 186 1363 176 1372 l 324 1226 l 460 1363 q 482 1372 469 1372 q 499 1364 492 1372 q 506 1346 506 1356 q 492 1319 506 1336 l 351 1186 q 324 1172 335 1172 q 294 1186 308 1172 l 156 1319 q 142 1346 142 1333 z "},"ť":{"ha":394,"x_min":89,"x_max":368,"o":"m 89 199 l 89 944 q 99 965 89 957 q 122 974 110 974 q 147 965 136 974 q 157 944 157 957 l 157 656 l 342 656 q 360 647 353 656 q 368 625 368 638 q 360 605 368 614 q 342 596 351 596 l 157 596 l 157 199 q 189 94 157 125 q 300 64 221 64 l 335 64 q 358 55 349 64 q 367 32 367 46 q 358 10 367 19 q 335 0 349 0 l 300 0 q 89 199 89 0 m 254 976 q 270 1017 254 1000 q 311 1033 286 1033 q 350 1017 333 1033 q 367 976 367 1000 q 315 832 367 940 q 293 817 308 817 q 274 824 283 817 q 265 842 265 831 q 268 851 265 849 l 294 922 q 254 976 254 936 z "},"Ŧ":{"ha":653,"x_min":22,"x_max":631,"o":"m 31 958 q 26 963 31 958 q 22 982 22 968 q 31 1006 22 996 q 51 1015 39 1015 l 601 1015 q 631 983 631 1015 q 601 949 631 949 l 363 949 l 363 538 l 553 538 q 582 508 582 538 q 553 476 582 476 l 363 476 l 363 31 q 328 0 363 0 q 293 31 293 0 l 293 476 l 100 476 q 72 507 72 476 q 100 538 72 538 l 293 538 l 293 949 l 51 949 q 31 958 39 949 z "},"ŧ":{"ha":400,"x_min":89,"x_max":368,"o":"m 89 199 l 89 944 q 99 965 89 957 q 122 974 110 974 q 147 965 136 974 q 157 944 157 957 l 157 656 l 342 656 q 360 647 353 656 q 368 625 368 638 q 360 605 368 614 q 342 596 351 596 l 157 596 l 157 444 l 342 444 q 360 435 353 444 q 368 414 368 426 q 360 392 368 401 q 342 383 353 383 l 157 383 l 157 199 q 189 94 157 125 q 300 64 221 64 l 335 64 q 358 55 349 64 q 367 32 367 46 q 358 10 367 19 q 335 0 349 0 l 300 0 q 89 199 89 0 z "},"Ũ":{"ha":774,"x_min":106,"x_max":668,"o":"m 106 283 l 106 986 q 140 1015 106 1015 q 175 986 175 1015 l 175 283 q 230 115 175 171 q 386 58 285 58 q 543 115 488 58 q 599 283 599 171 l 599 986 q 633 1015 599 1015 q 668 986 668 1015 l 668 283 q 591 62 668 132 q 386 -8 514 -8 q 182 62 258 -8 q 106 283 106 132 m 176 1243 q 219 1296 176 1274 q 300 1318 261 1318 q 389 1293 335 1318 q 479 1268 443 1268 q 540 1290 515 1268 q 572 1311 565 1311 q 589 1303 582 1311 q 596 1285 596 1294 q 556 1231 596 1251 q 479 1210 517 1210 q 390 1235 444 1210 q 297 1260 336 1260 q 233 1237 263 1260 q 199 1214 204 1214 q 176 1243 176 1214 z "},"ũ":{"ha":678,"x_min":85,"x_max":593,"o":"m 85 246 l 85 626 q 95 647 85 638 q 119 656 106 656 q 142 647 132 656 q 153 626 153 638 l 153 246 q 208 113 153 171 q 339 56 263 56 q 470 113 415 56 q 525 246 525 171 l 525 628 q 535 647 525 639 q 560 656 546 656 q 583 647 574 656 q 593 628 593 639 l 593 246 q 518 67 593 143 q 339 -8 443 -8 q 160 68 235 -8 q 85 246 85 144 m 129 886 q 172 939 129 917 q 253 961 214 961 q 342 936 288 961 q 432 911 396 911 q 493 933 468 911 q 525 954 518 954 q 542 946 535 954 q 549 928 549 938 q 509 874 549 894 q 432 853 469 853 q 343 878 397 853 q 250 903 289 903 q 186 880 215 903 q 151 857 157 857 q 129 886 129 857 z "},"Ū":{"ha":774,"x_min":106,"x_max":668,"o":"m 106 283 l 106 986 q 140 1015 106 1015 q 175 986 175 1015 l 175 283 q 230 115 175 171 q 386 58 285 58 q 543 115 488 58 q 599 283 599 171 l 599 986 q 633 1015 599 1015 q 668 986 668 1015 l 668 283 q 591 62 668 132 q 386 -8 514 -8 q 182 62 258 -8 q 106 283 106 132 m 206 1276 q 235 1307 206 1307 l 536 1307 q 557 1298 547 1307 q 567 1276 567 1289 q 558 1256 567 1264 q 536 1249 549 1249 l 235 1249 q 206 1276 206 1249 z "},"ū":{"ha":678,"x_min":85,"x_max":593,"o":"m 85 246 l 85 626 q 95 647 85 638 q 119 656 106 656 q 142 647 132 656 q 153 626 153 638 l 153 246 q 208 113 153 171 q 339 56 263 56 q 470 113 415 56 q 525 246 525 171 l 525 628 q 535 647 525 639 q 560 656 546 656 q 583 647 574 656 q 593 628 593 639 l 593 246 q 518 67 593 143 q 339 -8 443 -8 q 160 68 235 -8 q 85 246 85 144 m 158 919 q 188 950 158 950 l 489 950 q 510 941 500 950 q 519 919 519 932 q 510 899 519 907 q 489 892 501 892 l 188 892 q 158 919 158 892 z "},"Ŭ":{"ha":774,"x_min":106,"x_max":668,"o":"m 106 283 l 106 986 q 140 1015 106 1015 q 175 986 175 1015 l 175 283 q 230 115 175 171 q 386 58 285 58 q 543 115 488 58 q 599 283 599 171 l 599 986 q 633 1015 599 1015 q 668 986 668 1015 l 668 283 q 591 62 668 132 q 386 -8 514 -8 q 182 62 258 -8 q 106 283 106 132 m 229 1346 l 282 1346 q 313 1265 282 1299 q 386 1232 343 1232 q 458 1265 428 1232 q 489 1346 489 1299 l 542 1346 q 494 1236 542 1283 q 386 1189 447 1189 q 276 1235 324 1189 q 229 1346 229 1282 z "},"ŭ":{"ha":678,"x_min":85,"x_max":593,"o":"m 85 246 l 85 626 q 95 647 85 638 q 119 656 106 656 q 142 647 132 656 q 153 626 153 638 l 153 246 q 208 113 153 171 q 339 56 263 56 q 470 113 415 56 q 525 246 525 171 l 525 628 q 535 647 525 639 q 560 656 546 656 q 583 647 574 656 q 593 628 593 639 l 593 246 q 518 67 593 143 q 339 -8 443 -8 q 160 68 235 -8 q 85 246 85 144 m 182 989 l 235 989 q 265 908 235 942 q 339 875 296 875 q 411 908 381 875 q 442 989 442 942 l 494 989 q 447 879 494 926 q 339 832 400 832 q 229 878 276 832 q 182 989 182 925 z "},"Ů":{"ha":774,"x_min":106,"x_max":668,"o":"m 106 283 l 106 986 q 140 1015 106 1015 q 175 986 175 1015 l 175 283 q 230 115 175 171 q 386 58 285 58 q 543 115 488 58 q 599 283 599 171 l 599 986 q 633 1015 599 1015 q 668 986 668 1015 l 668 283 q 591 62 668 132 q 386 -8 514 -8 q 182 62 258 -8 q 106 283 106 132 m 260 1296 q 297 1385 260 1347 q 386 1424 333 1424 q 474 1385 436 1424 q 513 1296 513 1347 q 474 1205 513 1244 q 386 1165 436 1165 q 297 1204 335 1165 q 260 1296 260 1243 m 299 1296 q 325 1232 299 1261 q 386 1203 351 1203 q 447 1231 421 1203 q 472 1296 472 1260 q 447 1355 472 1328 q 386 1382 421 1382 q 325 1355 351 1382 q 299 1296 299 1328 z "},"ů":{"ha":678,"x_min":85,"x_max":593,"o":"m 85 246 l 85 626 q 95 647 85 638 q 119 656 106 656 q 142 647 132 656 q 153 626 153 638 l 153 246 q 208 113 153 171 q 339 56 263 56 q 470 113 415 56 q 525 246 525 171 l 525 628 q 535 647 525 639 q 560 656 546 656 q 583 647 574 656 q 593 628 593 639 l 593 246 q 518 67 593 143 q 339 -8 443 -8 q 160 68 235 -8 q 85 246 85 144 m 211 939 q 248 1028 211 990 q 338 1067 285 1067 q 426 1028 388 1067 q 464 939 464 990 q 426 848 464 888 q 338 808 388 808 q 249 847 286 808 q 211 939 211 886 m 250 939 q 276 875 250 904 q 338 846 303 846 q 398 874 372 846 q 424 939 424 903 q 398 998 424 971 q 338 1025 372 1025 q 276 998 303 1025 q 250 939 250 971 z "},"Ű":{"ha":774,"x_min":106,"x_max":668,"o":"m 106 283 l 106 986 q 140 1015 106 1015 q 175 986 175 1015 l 175 283 q 230 115 175 171 q 386 58 285 58 q 543 115 488 58 q 599 283 599 171 l 599 986 q 633 1015 599 1015 q 668 986 668 1015 l 668 283 q 591 62 668 132 q 386 -8 514 -8 q 182 62 258 -8 q 106 283 106 132 m 256 1214 q 267 1232 256 1226 l 404 1321 q 417 1325 411 1325 q 435 1316 428 1325 q 443 1296 443 1307 q 431 1271 443 1281 l 301 1190 q 286 1185 294 1185 q 265 1194 275 1185 q 256 1214 256 1203 m 463 1214 q 472 1232 463 1226 l 611 1321 q 622 1325 615 1325 q 642 1317 635 1325 q 650 1296 650 1308 q 636 1271 650 1281 l 507 1190 q 493 1185 501 1185 q 472 1194 481 1185 q 463 1214 463 1203 z "},"ű":{"ha":678,"x_min":85,"x_max":593,"o":"m 85 246 l 85 626 q 95 647 85 638 q 119 656 106 656 q 142 647 132 656 q 153 626 153 638 l 153 246 q 208 113 153 171 q 339 56 263 56 q 470 113 415 56 q 525 246 525 171 l 525 628 q 535 647 525 639 q 560 656 546 656 q 583 647 574 656 q 593 628 593 639 l 593 246 q 518 67 593 143 q 339 -8 443 -8 q 160 68 235 -8 q 85 246 85 144 m 193 857 q 204 875 193 869 l 342 964 q 354 968 347 968 q 373 959 365 968 q 381 939 381 950 q 368 914 381 925 l 239 833 q 224 828 232 828 q 203 837 213 828 q 193 857 193 846 m 400 857 q 410 875 400 869 l 549 964 q 560 968 553 968 q 580 960 572 968 q 588 939 588 951 q 574 914 588 924 l 444 833 q 431 828 439 828 q 409 837 418 828 q 400 857 400 846 z "},"Ų":{"ha":774,"x_min":106,"x_max":668,"o":"m 106 283 l 106 986 q 140 1015 106 1015 q 175 986 175 1015 l 175 283 q 230 115 175 171 q 386 58 285 58 q 543 115 488 58 q 599 283 599 171 l 599 986 q 633 1015 599 1015 q 668 986 668 1015 l 668 283 q 483 3 668 53 q 383 -172 383 -90 q 471 -232 383 -232 q 496 -254 496 -232 q 463 -275 496 -275 q 374 -251 411 -275 q 336 -176 336 -228 q 410 -7 336 -87 q 386 -8 401 -8 q 182 62 258 -8 q 106 283 106 132 z "},"ų":{"ha":678,"x_min":85,"x_max":593,"o":"m 85 246 l 85 626 q 95 647 85 638 q 119 656 106 656 q 142 647 132 656 q 153 626 153 638 l 153 246 q 208 113 153 171 q 339 56 263 56 q 470 113 415 56 q 525 246 525 171 l 525 628 q 535 647 525 639 q 560 656 546 656 q 583 647 574 656 q 593 628 593 639 l 593 246 q 542 96 593 164 q 414 3 492 28 q 314 -172 314 -90 q 401 -232 314 -232 q 426 -254 426 -232 q 393 -275 426 -275 q 304 -251 342 -275 q 267 -176 267 -228 q 339 -8 267 -87 q 160 68 235 -8 q 85 246 85 144 z "},"Ŵ":{"ha":1058,"x_min":33,"x_max":1025,"o":"m 33 986 q 45 1007 33 999 q 71 1015 57 1015 q 103 994 97 1015 l 349 117 l 490 643 q 528 671 497 671 q 567 643 558 671 l 713 117 l 956 994 q 988 1015 961 1015 q 1013 1007 1001 1015 q 1025 986 1025 999 q 1024 976 1025 981 l 751 17 q 711 -8 743 -8 q 674 17 678 -8 l 531 536 l 388 17 q 349 -8 381 -8 q 310 17 317 -8 l 35 976 q 33 986 33 981 m 346 1217 q 361 1240 346 1233 l 506 1318 q 529 1325 517 1325 q 553 1318 542 1325 l 697 1242 q 713 1214 713 1233 q 705 1194 713 1203 q 686 1186 697 1186 l 674 1190 l 529 1267 l 385 1189 q 379 1187 383 1189 q 374 1185 375 1185 q 354 1194 363 1185 q 346 1217 346 1203 z "},"ŵ":{"ha":918,"x_min":25,"x_max":893,"o":"m 25 625 q 37 648 25 639 q 64 657 49 657 q 92 640 83 657 l 279 119 l 431 597 q 461 618 436 618 q 490 597 485 618 l 638 113 l 829 640 q 856 657 833 657 q 882 649 871 657 q 893 626 893 640 q 888 606 893 614 l 671 10 q 643 -10 663 -10 q 615 8 624 -10 l 461 497 l 308 15 q 278 -10 300 -10 q 247 15 256 -10 l 31 606 q 25 625 25 622 m 276 860 q 292 883 276 875 l 436 961 q 460 968 447 968 q 483 961 472 968 l 628 885 q 643 857 643 876 q 635 838 643 846 q 617 829 628 829 l 604 833 l 460 910 l 315 832 q 310 830 314 832 q 304 828 306 828 q 285 837 293 828 q 276 860 276 846 z "},"Ŷ":{"ha":722,"x_min":29,"x_max":692,"o":"m 29 985 q 39 1007 29 999 q 63 1015 49 1015 q 94 990 81 1015 l 361 456 l 629 990 q 661 1015 642 1015 q 683 1007 674 1015 q 692 985 692 999 q 686 958 692 969 l 397 393 q 396 383 396 390 l 396 31 q 361 0 396 0 q 326 31 326 0 l 326 383 q 324 393 326 388 l 36 958 q 29 985 29 976 m 178 1217 q 193 1240 178 1233 l 338 1318 q 361 1325 349 1325 q 385 1318 374 1325 l 529 1242 q 544 1214 544 1233 q 537 1194 544 1203 q 518 1186 529 1186 l 506 1190 l 361 1267 l 217 1189 q 211 1187 215 1189 q 206 1185 207 1185 q 186 1194 194 1185 q 178 1217 178 1203 z "},"ŷ":{"ha":567,"x_min":24,"x_max":542,"o":"m 24 632 q 36 656 24 646 q 64 665 49 665 q 90 647 86 665 l 286 113 l 476 647 q 503 665 486 665 q 529 656 517 665 q 542 632 542 646 q 540 621 542 625 l 321 22 l 292 -56 q 261 -130 283 -78 q 221 -208 239 -182 q 176 -266 203 -233 q 120 -312 150 -299 q 57 -326 90 -326 q 25 -294 25 -326 q 50 -262 25 -262 q 251 22 165 -262 l 26 621 q 24 632 24 629 m 103 860 q 118 883 103 875 l 263 961 q 286 968 274 968 q 310 961 299 968 l 454 885 q 469 857 469 876 q 462 838 469 846 q 443 829 454 829 l 431 833 l 286 910 l 142 832 q 136 830 140 832 q 131 828 132 828 q 111 837 119 828 q 103 860 103 846 z "},"Ÿ":{"ha":722,"x_min":29,"x_max":692,"o":"m 29 985 q 39 1007 29 999 q 63 1015 49 1015 q 94 990 81 1015 l 361 456 l 629 990 q 661 1015 642 1015 q 683 1007 674 1015 q 692 985 692 999 q 686 958 692 969 l 397 393 q 396 383 396 390 l 396 31 q 361 0 396 0 q 326 31 326 0 l 326 383 q 324 393 326 388 l 36 958 q 29 985 29 976 m 248 1199 q 241 1206 248 1199 q 235 1232 235 1213 q 248 1264 235 1251 q 281 1276 261 1276 q 313 1264 300 1276 q 325 1232 325 1251 q 313 1199 325 1213 q 281 1186 300 1186 q 248 1199 261 1186 m 410 1199 q 403 1206 410 1199 q 397 1232 397 1213 q 410 1264 397 1251 q 443 1276 422 1276 q 475 1264 463 1276 q 488 1232 488 1251 q 475 1199 488 1213 q 443 1186 463 1186 q 410 1199 422 1186 z "},"Ź":{"ha":658,"x_min":36,"x_max":624,"o":"m 36 28 q 43 51 36 42 l 518 949 l 81 949 q 51 982 51 949 q 81 1015 51 1015 l 579 1015 q 608 990 608 1015 q 600 961 608 975 l 126 67 l 594 67 q 624 33 624 67 q 594 0 624 0 l 65 0 q 36 28 36 0 m 224 1217 q 236 1238 224 1232 l 385 1322 q 396 1325 390 1325 q 415 1315 408 1325 q 422 1293 422 1306 q 407 1265 422 1275 l 268 1189 q 254 1185 261 1185 q 233 1194 242 1185 q 224 1217 224 1204 z "},"ź":{"ha":546,"x_min":35,"x_max":511,"o":"m 35 28 q 44 54 35 42 l 400 593 l 78 593 q 57 602 65 593 q 49 624 49 611 q 57 647 49 638 q 78 656 65 656 l 467 656 q 488 647 479 656 q 496 626 496 639 q 488 603 496 614 l 131 64 l 482 64 q 503 54 494 64 q 511 31 511 44 q 503 9 511 18 q 482 0 494 0 l 65 0 q 44 8 53 0 q 35 28 35 17 m 175 860 q 188 881 175 875 l 336 965 q 347 968 342 968 q 367 958 360 968 q 374 936 374 949 q 358 908 374 918 l 219 832 q 206 828 214 828 q 184 838 193 828 q 175 860 175 847 z "},"Ż":{"ha":658,"x_min":36,"x_max":624,"o":"m 36 28 q 43 51 36 42 l 518 949 l 81 949 q 51 982 51 949 q 81 1015 51 1015 l 579 1015 q 608 990 608 1015 q 600 961 608 975 l 126 67 l 594 67 q 624 33 624 67 q 594 0 624 0 l 65 0 q 36 28 36 0 m 288 1199 q 282 1206 288 1199 q 275 1232 275 1213 q 288 1264 275 1251 q 321 1276 301 1276 q 353 1264 340 1276 q 367 1232 367 1251 q 353 1199 367 1213 q 321 1186 340 1186 q 288 1199 301 1186 z "},"ż":{"ha":546,"x_min":35,"x_max":511,"o":"m 35 28 q 44 54 35 42 l 400 593 l 78 593 q 57 602 65 593 q 49 624 49 611 q 57 647 49 638 q 78 656 65 656 l 467 656 q 488 647 479 656 q 496 626 496 639 q 488 603 496 614 l 131 64 l 482 64 q 503 54 494 64 q 511 31 511 44 q 503 9 511 18 q 482 0 494 0 l 65 0 q 44 8 53 0 q 35 28 35 17 m 234 842 q 227 849 234 842 q 221 875 221 856 q 234 907 221 894 q 267 919 247 919 q 299 907 286 919 q 313 875 313 894 q 299 842 313 856 q 267 829 286 829 q 234 842 247 829 z "},"Ž":{"ha":658,"x_min":36,"x_max":624,"o":"m 36 28 q 43 51 36 42 l 518 949 l 81 949 q 51 982 51 949 q 81 1015 51 1015 l 579 1015 q 608 990 608 1015 q 600 961 608 975 l 126 67 l 594 67 q 624 33 624 67 q 594 0 624 0 l 65 0 q 36 28 36 0 m 135 1346 q 142 1364 135 1356 q 158 1372 149 1372 q 179 1363 169 1372 l 317 1226 l 453 1363 q 475 1372 463 1372 q 492 1364 485 1372 q 499 1346 499 1356 q 485 1319 499 1336 l 344 1186 q 317 1172 328 1172 q 288 1186 301 1172 l 149 1319 q 135 1346 135 1333 z "},"ž":{"ha":546,"x_min":35,"x_max":511,"o":"m 35 28 q 44 54 35 42 l 400 593 l 78 593 q 57 602 65 593 q 49 624 49 611 q 57 647 49 638 q 78 656 65 656 l 467 656 q 488 647 479 656 q 496 626 496 639 q 488 603 496 614 l 131 64 l 482 64 q 503 54 494 64 q 511 31 511 44 q 503 9 511 18 q 482 0 494 0 l 65 0 q 44 8 53 0 q 35 28 35 17 m 85 989 q 92 1007 85 999 q 108 1015 99 1015 q 129 1006 119 1015 l 267 869 l 403 1006 q 425 1015 413 1015 q 442 1007 435 1015 q 449 989 449 999 q 435 963 449 979 l 294 829 q 267 815 278 815 q 238 829 251 815 l 99 963 q 85 989 85 976 z "},"ƒ":{"ha":467,"x_min":-106,"x_max":500,"o":"m -106 -160 q -96 -134 -106 -144 q -72 -124 -86 -124 l -44 -124 q 71 78 42 -124 l 174 814 q 272 992 188 917 q 460 1067 357 1067 l 475 1067 q 500 1036 500 1067 q 491 1011 500 1021 q 468 1001 482 1001 l 453 1001 q 315 945 376 1001 q 242 814 253 889 l 207 567 l 413 567 q 439 540 439 567 q 430 517 439 526 q 407 507 421 507 l 197 507 l 138 78 q -50 -190 100 -190 l -79 -190 q -99 -181 -92 -190 q -106 -160 -106 -172 z "},"Ǽ":{"ha":968,"x_min":106,"x_max":931,"o":"m 106 38 l 106 724 q 182 945 106 875 q 385 1015 258 1015 l 903 1015 q 931 983 931 1015 q 903 949 931 949 l 575 949 l 575 540 l 789 540 q 810 531 801 540 q 818 507 818 521 q 789 476 818 476 l 575 476 l 575 67 l 903 67 q 931 32 931 67 q 903 0 931 0 l 539 0 q 506 31 506 0 l 506 476 l 174 476 l 174 38 q 139 0 174 0 q 106 38 106 0 m 174 540 l 506 540 l 506 949 l 385 949 q 228 892 283 949 q 174 724 174 836 l 174 540 m 401 1215 q 414 1236 401 1231 l 563 1321 q 574 1324 568 1324 q 593 1314 586 1324 q 600 1292 600 1304 q 585 1264 600 1274 l 446 1188 q 432 1183 439 1183 q 410 1193 419 1183 q 401 1215 401 1203 z "},"ǽ":{"ha":1004,"x_min":46,"x_max":951,"o":"m 46 174 q 127 320 46 279 q 367 361 208 361 l 442 361 l 442 399 q 398 543 442 483 q 264 603 354 603 q 167 583 214 603 q 119 564 121 564 q 99 577 108 564 q 90 601 90 590 q 148 645 90 625 q 271 665 206 665 q 482 531 426 665 q 572 627 514 590 q 699 664 631 664 q 874 597 796 664 q 951 396 951 529 q 928 322 951 339 q 835 306 906 306 l 515 306 l 515 247 q 576 107 515 160 q 733 54 638 54 q 817 68 782 54 q 872 96 853 82 q 901 110 892 110 q 922 99 913 110 q 932 76 932 89 q 863 19 932 46 q 718 -8 793 -8 q 573 29 639 -8 q 475 133 507 67 q 370 26 435 61 q 239 -8 306 -8 q 101 38 156 -8 q 46 174 46 85 m 114 175 q 151 84 114 115 q 246 53 188 53 q 381 103 321 53 q 442 203 442 154 l 442 306 l 374 306 q 293 303 326 306 q 223 294 260 301 q 165 272 186 286 q 128 234 143 258 q 114 175 114 210 m 404 860 q 417 881 404 875 l 565 965 q 576 968 571 968 q 596 958 589 968 q 603 936 603 949 q 588 908 603 918 l 449 832 q 435 828 442 828 q 413 838 422 828 q 404 860 404 847 m 515 363 l 808 363 q 871 372 857 363 q 885 410 885 382 q 833 545 885 488 q 700 603 781 603 q 569 549 622 603 q 515 421 515 496 l 515 363 z "},"Ǿ":{"ha":760,"x_min":83,"x_max":678,"o":"m 83 -6 q 86 10 83 4 l 138 111 q 100 283 100 179 l 100 724 q 176 945 100 875 q 379 1015 251 1015 q 571 954 500 1015 l 622 1053 q 646 1067 629 1067 q 667 1058 657 1067 q 678 1035 678 1049 q 672 1019 678 1026 l 614 906 q 660 724 660 836 l 660 283 q 583 62 660 132 q 379 -8 506 -8 q 178 60 247 -8 l 140 -14 q 111 -32 131 -32 q 92 -24 100 -32 q 83 -6 83 -17 m 169 283 q 181 193 169 235 l 538 889 q 379 949 483 949 q 169 724 169 949 l 169 283 m 213 126 q 379 58 267 58 q 535 115 481 58 q 590 283 590 171 l 590 724 q 574 828 590 783 l 213 126 m 283 1217 q 296 1238 283 1232 l 444 1322 q 456 1325 450 1325 q 475 1315 468 1325 q 482 1293 482 1306 q 467 1265 482 1275 l 328 1189 q 314 1185 322 1185 q 292 1194 301 1185 q 283 1217 283 1204 z "},"ǿ":{"ha":640,"x_min":65,"x_max":575,"o":"m 65 249 l 65 410 q 140 588 65 513 q 319 664 215 664 q 447 628 386 664 l 485 696 q 504 707 490 707 q 523 699 514 707 q 532 679 532 690 q 526 661 532 671 l 490 596 q 575 410 575 521 l 575 249 q 498 69 575 147 q 319 -8 421 -8 q 183 33 247 -8 l 150 -29 q 126 -44 142 -44 q 109 -37 117 -44 q 101 -21 101 -31 q 106 -7 101 -14 l 144 65 q 65 249 65 142 m 133 249 q 178 126 133 182 l 417 571 q 319 600 372 600 q 188 542 243 600 q 133 410 133 483 l 133 249 m 215 90 q 319 56 261 56 q 451 115 396 56 q 507 249 507 174 l 507 410 q 457 535 507 478 l 215 90 m 228 860 q 240 881 228 875 l 389 965 q 400 968 394 968 q 419 958 413 968 q 426 936 426 949 q 411 908 426 918 l 272 832 q 258 828 267 828 q 237 838 246 828 q 228 860 228 847 z "},"Ș":{"ha":676,"x_min":54,"x_max":614,"o":"m 54 136 q 65 163 54 150 q 86 175 75 175 q 111 157 96 175 l 149 117 q 216 76 169 94 q 324 58 263 58 q 488 111 431 58 q 544 267 544 164 q 510 396 544 344 q 424 469 475 447 q 312 515 372 492 q 200 562 251 539 q 114 638 149 585 q 79 771 79 690 q 106 894 79 843 q 176 970 132 944 q 266 1006 221 996 q 363 1017 311 1017 q 517 992 446 1017 q 589 938 589 968 q 579 911 589 925 q 557 897 569 897 q 526 910 550 897 q 459 937 503 924 q 361 950 415 950 q 210 910 271 950 q 149 776 149 871 q 174 681 149 719 q 241 622 200 643 q 331 585 282 601 q 431 547 381 568 q 522 496 481 526 q 588 409 563 465 q 614 274 614 353 q 537 62 614 132 q 331 -8 460 -8 q 133 43 211 -8 q 54 136 54 94 m 253 -175 q 267 -154 253 -160 l 414 -69 q 425 -67 422 -67 q 445 -76 438 -67 q 453 -99 453 -86 q 436 -126 453 -117 l 297 -203 q 285 -207 292 -207 q 263 -197 272 -207 q 253 -175 253 -187 z "},"ș":{"ha":526,"x_min":50,"x_max":476,"o":"m 50 86 q 58 108 50 97 q 75 118 65 118 q 97 108 83 118 l 129 86 q 181 63 146 74 q 258 53 215 53 q 374 83 336 53 q 411 160 411 113 q 376 247 411 215 q 290 294 340 279 q 188 325 239 308 q 101 379 136 342 q 65 481 65 417 q 119 608 65 553 q 276 664 172 664 q 398 644 342 664 q 454 601 454 624 q 444 578 454 590 q 424 565 435 565 q 375 584 422 565 q 278 603 328 603 q 166 565 203 603 q 129 482 129 528 q 165 408 129 435 q 251 368 200 382 q 354 337 303 354 q 441 277 406 319 q 476 164 476 235 q 419 38 476 83 q 260 -8 363 -8 q 110 23 171 -8 q 50 86 50 54 m 165 -175 q 179 -154 165 -160 l 326 -69 q 338 -67 335 -67 q 358 -76 350 -67 q 365 -99 365 -86 q 349 -126 365 -117 l 210 -203 q 197 -207 203 -207 q 175 -197 185 -207 q 165 -175 165 -187 z "},"ȷ":{"ha":251,"x_min":-51,"x_max":160,"o":"m -42 -317 q -47 -312 -42 -317 q -51 -293 -51 -307 q -42 -271 -51 -279 q -19 -262 -33 -262 q 69 -212 47 -262 q 92 -64 92 -162 l 92 628 q 125 656 92 656 q 160 628 160 656 l 160 -64 q -17 -326 160 -326 q -42 -317 -32 -326 z "},"ə":{"ha":625,"x_min":51,"x_max":560,"o":"m 51 243 q 60 303 51 281 q 89 336 69 326 q 124 348 108 346 q 169 350 140 350 l 490 350 l 490 408 q 428 549 490 497 q 267 601 367 601 q 183 588 218 601 q 131 560 149 574 q 103 546 113 546 q 81 557 90 546 q 71 579 71 568 q 128 635 71 606 q 271 664 186 664 q 478 593 397 664 q 560 407 560 522 l 560 242 q 484 65 560 139 q 303 -8 408 -8 q 126 64 200 -8 q 51 243 51 136 m 118 243 q 171 111 118 169 q 304 53 224 53 q 436 107 382 53 q 490 236 490 161 l 490 293 l 194 293 q 133 283 147 293 q 118 243 118 274 z "},"ˆ":{"ha":367,"x_min":0,"x_max":367,"o":"m 0 860 q 15 883 0 875 l 160 961 q 183 968 171 968 q 207 961 196 968 l 351 885 q 367 857 367 876 q 359 838 367 846 q 340 829 351 829 l 328 833 l 183 910 l 39 832 q 33 830 38 832 q 28 828 29 828 q 8 837 17 828 q 0 860 0 846 z "},"ˇ":{"ha":390,"x_min":14,"x_max":378,"o":"m 14 989 q 21 1007 14 999 q 38 1015 28 1015 q 58 1006 49 1015 l 196 869 l 332 1006 q 354 1015 342 1015 q 371 1007 364 1015 q 378 989 378 999 q 364 963 378 979 l 224 829 q 196 815 207 815 q 167 829 181 815 l 28 963 q 14 989 14 976 z "},"˘":{"ha":313,"x_min":0,"x_max":313,"o":"m 0 989 l 53 989 q 83 908 53 942 q 157 875 114 875 q 229 908 199 875 q 260 989 260 942 l 313 989 q 265 879 313 926 q 157 832 218 832 q 47 878 94 832 q 0 989 0 925 z "},"˙":{"ha":285,"x_min":104,"x_max":196,"o":"m 117 842 q 111 849 117 842 q 104 875 104 856 q 117 907 104 894 q 150 919 131 919 q 183 907 169 919 q 196 875 196 894 q 183 842 196 856 q 150 829 169 829 q 117 842 131 829 z "},"˚":{"ha":253,"x_min":0,"x_max":253,"o":"m 0 939 q 37 1028 0 990 q 126 1067 74 1067 q 215 1028 176 1067 q 253 939 253 990 q 215 848 253 888 q 126 808 176 808 q 38 847 75 808 q 0 939 0 886 m 39 939 q 65 875 39 904 q 126 846 92 846 q 187 874 161 846 q 213 939 213 903 q 187 998 213 971 q 126 1025 161 1025 q 65 998 92 1025 q 39 939 39 971 z "},"˛":{"ha":160,"x_min":0,"x_max":160,"o":"m 0 -176 q 108 26 0 -71 l 149 4 q 47 -172 47 -90 q 135 -232 47 -232 q 160 -254 160 -232 q 126 -275 160 -275 q 38 -251 75 -275 q 0 -176 0 -228 z "},"˜":{"ha":419,"x_min":0,"x_max":419,"o":"m 0 886 q 42 939 0 917 q 124 961 85 961 q 213 936 158 961 q 303 911 267 911 q 364 933 339 911 q 396 954 389 954 q 413 946 406 954 q 419 928 419 938 q 380 874 419 894 q 303 853 340 853 q 214 878 268 853 q 121 903 160 903 q 57 880 86 903 q 22 857 28 857 q 0 886 0 857 z "},"˝":{"ha":394,"x_min":0,"x_max":394,"o":"m 0 857 q 11 875 0 869 l 149 964 q 161 968 156 968 q 180 959 172 968 q 188 939 188 950 q 175 914 188 925 l 46 833 q 31 828 39 828 q 10 837 19 828 q 0 857 0 846 m 207 857 q 217 875 207 869 l 356 964 q 367 968 360 968 q 387 960 379 968 q 394 939 394 951 q 381 914 394 924 l 251 833 q 238 828 246 828 q 216 837 225 828 q 207 857 207 846 z "},"π":{"ha":667,"x_min":92,"x_max":575,"o":"m 92 29 l 92 626 q 125 656 92 656 l 542 656 q 575 626 575 656 l 575 29 q 540 0 575 0 q 506 29 506 0 l 506 590 l 163 590 l 163 29 q 128 0 163 0 q 92 29 92 0 z "},"Ẁ":{"ha":1058,"x_min":33,"x_max":1025,"o":"m 33 986 q 45 1007 33 999 q 71 1015 57 1015 q 103 994 97 1015 l 349 117 l 490 643 q 528 671 497 671 q 567 643 558 671 l 713 117 l 956 994 q 988 1015 961 1015 q 1013 1007 1001 1015 q 1025 986 1025 999 q 1024 976 1025 981 l 751 17 q 711 -8 743 -8 q 674 17 678 -8 l 531 536 l 388 17 q 349 -8 381 -8 q 310 17 317 -8 l 35 976 q 33 986 33 981 m 426 1293 q 434 1315 426 1306 q 454 1325 442 1325 q 464 1322 458 1325 l 613 1238 q 625 1217 625 1232 q 616 1194 625 1204 q 594 1185 607 1185 q 581 1189 589 1185 l 442 1265 q 426 1293 426 1275 z "},"ẁ":{"ha":918,"x_min":25,"x_max":893,"o":"m 25 625 q 37 648 25 639 q 64 657 49 657 q 92 640 83 657 l 279 119 l 431 597 q 461 618 436 618 q 490 597 485 618 l 638 113 l 829 640 q 856 657 833 657 q 882 649 871 657 q 893 626 893 640 q 888 606 893 614 l 671 10 q 643 -10 663 -10 q 615 8 624 -10 l 461 497 l 308 15 q 278 -10 300 -10 q 247 15 256 -10 l 31 606 q 25 625 25 622 m 354 936 q 362 958 354 949 q 382 968 369 968 q 392 965 386 968 l 540 881 q 553 860 553 875 q 544 838 553 847 q 522 828 535 828 q 508 832 517 828 l 369 908 q 354 936 354 918 z "},"Ẃ":{"ha":1058,"x_min":33,"x_max":1025,"o":"m 33 986 q 45 1007 33 999 q 71 1015 57 1015 q 103 994 97 1015 l 349 117 l 490 643 q 528 671 497 671 q 567 643 558 671 l 713 117 l 956 994 q 988 1015 961 1015 q 1013 1007 1001 1015 q 1025 986 1025 999 q 1024 976 1025 981 l 751 17 q 711 -8 743 -8 q 674 17 678 -8 l 531 536 l 388 17 q 349 -8 381 -8 q 310 17 317 -8 l 35 976 q 33 986 33 981 m 433 1217 q 446 1238 433 1232 l 594 1322 q 606 1325 600 1325 q 625 1315 618 1325 q 632 1293 632 1306 q 617 1265 632 1275 l 478 1189 q 464 1185 472 1185 q 442 1194 451 1185 q 433 1217 433 1204 z "},"ẃ":{"ha":918,"x_min":25,"x_max":893,"o":"m 25 625 q 37 648 25 639 q 64 657 49 657 q 92 640 83 657 l 279 119 l 431 597 q 461 618 436 618 q 490 597 485 618 l 638 113 l 829 640 q 856 657 833 657 q 882 649 871 657 q 893 626 893 640 q 888 606 893 614 l 671 10 q 643 -10 663 -10 q 615 8 624 -10 l 461 497 l 308 15 q 278 -10 300 -10 q 247 15 256 -10 l 31 606 q 25 625 25 622 m 364 860 q 376 881 364 875 l 525 965 q 536 968 531 968 q 556 958 549 968 q 563 936 563 949 q 547 908 563 918 l 408 832 q 394 828 403 828 q 373 838 382 828 q 364 860 364 847 z "},"Ẅ":{"ha":1058,"x_min":33,"x_max":1025,"o":"m 33 986 q 45 1007 33 999 q 71 1015 57 1015 q 103 994 97 1015 l 349 117 l 490 643 q 528 671 497 671 q 567 643 558 671 l 713 117 l 956 994 q 988 1015 961 1015 q 1013 1007 1001 1015 q 1025 986 1025 999 q 1024 976 1025 981 l 751 17 q 711 -8 743 -8 q 674 17 678 -8 l 531 536 l 388 17 q 349 -8 381 -8 q 310 17 317 -8 l 35 976 q 33 986 33 981 m 416 1199 q 409 1206 416 1199 q 403 1232 403 1213 q 416 1264 403 1251 q 449 1276 429 1276 q 481 1264 468 1276 q 493 1232 493 1251 q 481 1199 493 1213 q 449 1186 468 1186 q 416 1199 429 1186 m 578 1199 q 572 1206 578 1199 q 565 1232 565 1213 q 578 1264 565 1251 q 611 1276 590 1276 q 643 1264 631 1276 q 656 1232 656 1251 q 643 1199 656 1213 q 611 1186 631 1186 q 578 1199 590 1186 z "},"ẅ":{"ha":918,"x_min":25,"x_max":893,"o":"m 25 625 q 37 648 25 639 q 64 657 49 657 q 92 640 83 657 l 279 119 l 431 597 q 461 618 436 618 q 490 597 485 618 l 638 113 l 829 640 q 856 657 833 657 q 882 649 871 657 q 893 626 893 640 q 888 606 893 614 l 671 10 q 643 -10 663 -10 q 615 8 624 -10 l 461 497 l 308 15 q 278 -10 300 -10 q 247 15 256 -10 l 31 606 q 25 625 25 622 m 347 842 q 340 849 347 842 q 333 875 333 856 q 347 907 333 894 q 379 919 360 919 q 411 907 399 919 q 424 875 424 894 q 411 842 424 856 q 379 829 399 829 q 347 842 360 829 m 508 842 q 502 849 508 842 q 496 875 496 856 q 508 907 496 894 q 542 919 521 919 q 574 907 561 919 q 586 875 586 894 q 574 842 586 856 q 542 829 561 829 q 508 842 521 829 z "},"Ỳ":{"ha":722,"x_min":29,"x_max":692,"o":"m 29 985 q 39 1007 29 999 q 63 1015 49 1015 q 94 990 81 1015 l 361 456 l 629 990 q 661 1015 642 1015 q 683 1007 674 1015 q 692 985 692 999 q 686 958 692 969 l 397 393 q 396 383 396 390 l 396 31 q 361 0 396 0 q 326 31 326 0 l 326 383 q 324 393 326 388 l 36 958 q 29 985 29 976 m 258 1293 q 266 1315 258 1306 q 286 1325 274 1325 q 296 1322 290 1325 l 444 1238 q 457 1217 457 1232 q 448 1194 457 1204 q 426 1185 439 1185 q 413 1189 421 1185 l 274 1265 q 258 1293 258 1275 z "},"ỳ":{"ha":567,"x_min":24,"x_max":542,"o":"m 24 632 q 36 656 24 646 q 64 665 49 665 q 90 647 86 665 l 286 113 l 476 647 q 503 665 486 665 q 529 656 517 665 q 542 632 542 646 q 540 621 542 625 l 321 22 l 292 -56 q 261 -130 283 -78 q 221 -208 239 -182 q 176 -266 203 -233 q 120 -312 150 -299 q 57 -326 90 -326 q 25 -294 25 -326 q 50 -262 25 -262 q 251 22 165 -262 l 26 621 q 24 632 24 629 m 178 936 q 185 958 178 949 q 206 968 193 968 q 215 965 210 968 l 364 881 q 376 860 376 875 q 367 838 376 847 q 346 828 358 828 q 332 832 340 828 l 193 908 q 178 936 178 918 z "},"–":{"ha":639,"x_min":68,"x_max":571,"o":"m 76 311 q 72 315 76 311 q 68 333 68 319 q 76 356 68 347 q 97 365 85 365 l 542 365 q 562 356 553 365 q 571 333 571 347 q 562 311 571 319 q 542 303 553 303 l 97 303 q 76 311 85 303 z "},"—":{"ha":1028,"x_min":68,"x_max":961,"o":"m 76 311 q 72 315 76 311 q 68 333 68 319 q 76 356 68 347 q 97 365 85 365 l 931 365 q 951 356 942 365 q 961 333 961 347 q 952 312 961 321 q 931 303 943 303 l 97 303 q 76 311 85 303 z "},"‘":{"ha":215,"x_min":50,"x_max":163,"o":"m 50 869 q 101 1014 50 906 q 124 1029 108 1029 q 142 1022 133 1029 q 151 1004 151 1015 q 149 994 151 1000 l 122 924 q 163 869 163 911 q 147 829 163 846 q 106 813 131 813 q 67 829 83 813 q 50 869 50 846 z "},"’":{"ha":214,"x_min":54,"x_max":167,"o":"m 54 972 q 71 1013 54 996 q 111 1029 88 1029 q 151 1013 135 1029 q 167 972 167 996 q 117 828 167 932 q 94 813 108 813 q 75 819 83 813 q 67 838 67 826 q 68 847 67 844 l 94 918 q 54 972 54 932 z "},"‚":{"ha":229,"x_min":58,"x_max":171,"o":"m 58 49 q 74 89 58 72 q 115 106 90 106 q 154 88 138 106 q 171 49 171 71 q 119 -96 171 13 q 97 -111 113 -111 q 78 -104 88 -111 q 69 -87 69 -97 q 72 -76 69 -81 l 97 -6 q 58 49 58 7 z "},"“":{"ha":413,"x_min":51,"x_max":360,"o":"m 51 869 q 101 1014 51 910 q 124 1029 110 1029 q 143 1022 135 1029 q 151 1004 151 1015 q 150 994 151 997 l 124 924 q 151 903 140 918 q 163 869 163 888 q 147 829 163 846 q 107 813 131 813 q 67 829 83 813 q 51 869 51 846 m 247 869 q 299 1014 247 906 q 321 1029 306 1029 q 340 1022 331 1029 q 349 1004 349 1015 q 346 994 349 997 l 321 924 q 349 903 338 918 q 360 869 360 888 q 344 829 360 846 q 303 813 328 813 q 264 829 281 813 q 247 869 247 846 z "},"”":{"ha":411,"x_min":54,"x_max":364,"o":"m 54 972 q 70 1013 54 996 q 111 1029 86 1029 q 151 1013 135 1029 q 167 972 167 996 q 115 828 167 936 q 94 813 108 813 q 75 819 83 813 q 67 838 67 826 q 68 847 67 844 l 94 918 q 54 972 54 932 m 251 972 q 267 1013 251 996 q 308 1029 283 1029 q 347 1013 331 1029 q 364 972 364 996 q 313 828 364 936 q 290 813 306 813 q 272 819 281 813 q 263 838 263 826 q 265 847 263 844 l 290 918 q 251 972 251 933 z "},"„":{"ha":426,"x_min":58,"x_max":367,"o":"m 58 49 q 74 89 58 72 q 115 106 90 106 q 154 88 138 106 q 171 49 171 71 q 119 -96 171 13 q 97 -111 113 -111 q 78 -104 88 -111 q 69 -87 69 -97 q 72 -76 69 -81 l 97 -6 q 58 49 58 7 m 256 49 q 272 89 256 72 q 311 106 288 106 q 350 89 333 106 q 367 49 367 72 q 317 -96 367 8 q 294 -111 310 -111 q 275 -104 283 -111 q 267 -87 267 -97 q 268 -76 267 -81 l 294 -6 q 256 49 256 6 z "},"†":{"ha":567,"x_min":32,"x_max":535,"o":"m 32 631 q 60 663 32 663 l 247 654 l 247 986 q 258 1006 247 997 q 282 1015 268 1015 q 306 1006 296 1015 q 317 986 317 997 l 317 654 l 504 663 q 526 653 517 663 q 535 631 535 644 q 526 609 535 618 q 504 600 517 600 l 317 608 l 317 1 q 306 -20 317 -11 q 282 -29 296 -29 q 258 -20 268 -29 q 247 1 247 -11 l 247 608 l 60 600 q 32 631 32 600 z "},"‡":{"ha":607,"x_min":51,"x_max":556,"o":"m 60 312 q 56 316 60 312 q 51 335 51 321 q 60 357 51 349 q 81 365 68 365 l 268 357 l 268 608 l 81 600 q 60 608 68 600 q 51 631 51 617 q 60 653 51 644 q 81 663 68 663 l 268 654 l 268 986 q 278 1006 268 997 q 303 1015 289 1015 q 327 1006 317 1015 q 338 986 338 997 l 338 654 l 525 663 q 546 653 536 663 q 556 631 556 644 q 547 609 556 618 q 525 600 538 600 l 338 608 l 338 357 l 525 365 q 547 356 538 365 q 556 335 556 347 q 546 313 556 322 q 525 303 536 303 l 338 311 l 338 1 q 327 -20 338 -11 q 303 -29 317 -29 q 278 -20 289 -29 q 268 1 268 -11 l 268 311 l 81 303 q 60 312 68 303 z "},"•":{"ha":428,"x_min":74,"x_max":354,"o":"m 74 417 q 116 512 74 471 q 215 553 158 553 q 313 512 271 553 q 354 417 354 471 q 313 320 354 361 q 215 279 271 279 q 116 320 158 279 q 74 417 74 361 z "},"…":{"ha":726,"x_min":58,"x_max":668,"o":"m 74 8 q 66 17 74 8 q 58 49 58 25 q 74 89 58 72 q 115 106 90 106 q 154 88 138 106 q 171 49 171 71 q 154 9 171 26 q 115 -8 138 -8 q 74 8 90 -8 m 323 8 q 315 17 323 8 q 307 49 307 25 q 323 89 307 72 q 364 106 339 106 q 403 88 386 106 q 419 49 419 71 q 403 9 419 26 q 364 -8 386 -8 q 323 8 339 -8 m 572 8 q 564 17 572 8 q 556 49 556 25 q 572 89 556 72 q 613 106 588 106 q 651 88 635 106 q 668 49 668 71 q 651 9 668 26 q 613 -8 635 -8 q 572 8 588 -8 z "},"‰":{"ha":1458,"x_min":60,"x_max":1403,"o":"m 60 649 l 60 863 q 105 978 60 940 q 225 1015 150 1015 q 345 978 300 1015 q 390 863 390 940 l 390 649 q 345 533 390 569 q 225 496 300 496 q 105 533 150 496 q 60 649 60 569 m 118 649 q 225 549 118 549 q 333 649 333 549 l 333 863 q 225 963 333 963 q 118 863 118 963 l 118 649 m 237 -24 q 232 -19 237 -24 q 228 -6 228 -15 q 231 10 228 4 l 768 1053 q 790 1067 774 1067 q 812 1058 801 1067 q 822 1035 822 1049 q 818 1019 822 1028 l 285 -14 q 257 -32 276 -32 q 237 -24 246 -32 m 649 149 l 649 363 q 694 478 649 440 q 814 515 739 515 q 934 478 889 515 q 979 363 979 440 l 979 149 q 934 33 979 69 q 814 -4 889 -4 q 694 33 739 -4 q 649 149 649 69 m 707 149 q 814 49 707 49 q 922 149 922 49 l 922 363 q 814 463 922 463 q 707 363 707 463 l 707 149 m 1072 149 l 1072 363 q 1117 478 1072 440 q 1238 515 1163 515 q 1358 478 1313 515 q 1403 363 1403 440 l 1403 149 q 1358 33 1403 69 q 1238 -4 1313 -4 q 1117 33 1163 -4 q 1072 149 1072 69 m 1131 149 q 1238 49 1131 49 q 1346 149 1346 49 l 1346 363 q 1238 463 1346 463 q 1131 363 1131 463 l 1131 149 z "},"‹":{"ha":310,"x_min":51,"x_max":254,"o":"m 63 354 q 51 385 51 372 q 63 415 51 397 l 190 654 q 218 668 200 668 q 243 658 232 668 q 254 635 254 647 q 250 621 254 628 l 122 385 l 250 150 q 254 136 254 144 q 242 113 254 124 q 215 103 231 103 q 190 117 199 103 l 63 354 z "},"›":{"ha":310,"x_min":56,"x_max":258,"o":"m 56 136 q 60 150 56 144 l 188 385 l 60 621 q 56 635 56 628 q 67 658 56 647 q 92 668 78 668 q 119 654 113 668 l 249 415 q 258 385 258 396 q 249 354 258 374 l 119 117 q 94 103 111 103 q 68 113 81 103 q 56 136 56 124 z "},"⁄":{"ha":211,"x_min":-192,"x_max":403,"o":"m -183 -24 q -187 -19 -183 -24 q -192 -6 -192 -15 q -189 10 -192 4 l 349 1053 q 371 1067 354 1067 q 392 1058 382 1067 q 403 1035 403 1049 q 399 1019 403 1028 l -135 -14 q -162 -32 -143 -32 q -183 -24 -174 -32 z "},"⁰":{"ha":464,"x_min":67,"x_max":397,"o":"m 67 649 l 67 863 q 112 978 67 940 q 232 1015 157 1015 q 352 978 307 1015 q 397 863 397 940 l 397 649 q 352 533 397 569 q 232 496 307 496 q 112 533 157 496 q 67 649 67 569 m 125 649 q 232 549 125 549 q 340 649 340 549 l 340 863 q 232 963 340 963 q 125 863 125 963 l 125 649 z "},"⁴":{"ha":389,"x_min":22,"x_max":364,"o":"m 22 642 q 25 654 22 646 l 221 997 q 247 1015 229 1015 q 266 1008 257 1015 q 275 992 275 1001 q 272 982 275 988 l 96 674 l 242 674 l 242 794 q 269 814 242 814 q 299 794 299 814 l 299 674 l 342 674 q 364 646 364 674 q 357 628 364 636 q 342 619 350 619 l 299 619 l 299 521 q 269 500 299 500 q 242 521 242 500 l 242 619 l 43 619 q 22 642 22 619 z "},"⁵":{"ha":419,"x_min":43,"x_max":374,"o":"m 43 614 q 72 646 43 646 q 101 621 101 646 q 204 549 104 549 q 317 647 317 549 l 317 661 q 208 758 317 758 l 100 758 q 71 779 71 758 q 72 810 71 797 l 89 994 q 106 1015 92 1015 l 326 1015 q 346 989 346 1015 q 326 963 346 963 l 139 963 l 125 807 l 208 807 q 328 772 283 807 q 374 661 374 736 l 374 647 q 328 533 374 569 q 210 496 283 496 q 88 531 133 496 q 43 614 43 565 z "},"⁶":{"ha":453,"x_min":65,"x_max":397,"o":"m 65 678 l 65 863 q 111 978 65 940 q 233 1015 157 1015 q 353 978 310 1015 q 397 893 397 942 q 369 867 397 867 q 340 890 340 867 q 309 942 340 922 q 232 963 278 963 q 124 863 124 963 l 124 761 q 240 806 160 806 q 397 664 397 806 l 397 649 q 352 533 397 569 q 232 496 307 496 q 106 538 147 496 q 65 678 65 581 m 124 646 q 232 546 124 546 q 340 646 340 546 l 340 661 q 231 758 340 758 q 124 668 124 758 l 124 646 z "},"⁷":{"ha":400,"x_min":40,"x_max":371,"o":"m 40 888 l 40 994 q 49 1008 40 1001 q 67 1015 57 1015 l 344 1015 q 362 1008 353 1015 q 371 994 371 1001 l 371 929 q 363 901 371 915 l 133 508 q 114 499 128 499 q 90 506 100 499 q 79 526 79 514 q 82 538 79 529 l 314 924 l 314 963 l 99 963 l 99 888 q 90 873 99 879 q 69 867 81 867 q 40 888 40 867 z "},"⁸":{"ha":439,"x_min":54,"x_max":385,"o":"m 54 640 l 54 649 q 140 781 54 750 q 69 892 69 807 q 219 1015 69 1015 q 369 892 369 1015 q 299 781 369 806 q 385 649 385 751 l 385 640 q 340 531 385 567 q 219 496 294 496 q 100 531 146 496 q 54 640 54 567 m 113 646 q 221 544 113 544 q 328 646 328 544 l 328 657 q 219 756 328 756 q 113 657 113 756 l 113 646 m 126 885 q 219 806 126 806 q 313 885 313 806 q 219 965 313 965 q 126 885 126 965 z "},"⁹":{"ha":454,"x_min":56,"x_max":388,"o":"m 56 618 q 83 643 56 643 q 113 621 113 643 q 144 569 113 589 q 221 549 175 549 q 331 649 331 549 l 331 749 q 213 706 292 706 q 56 847 56 706 l 56 863 q 101 978 56 940 q 222 1015 146 1015 q 342 978 297 1015 q 388 863 388 940 l 388 649 q 219 496 388 496 q 99 532 143 496 q 56 618 56 568 m 114 849 q 222 753 114 753 q 331 843 331 753 l 331 864 q 222 965 331 965 q 114 864 114 965 l 114 849 z "},"₀":{"ha":464,"x_min":67,"x_max":397,"o":"m 67 149 l 67 363 q 112 478 67 440 q 232 515 157 515 q 352 478 307 515 q 397 363 397 440 l 397 149 q 352 33 397 69 q 232 -4 307 -4 q 112 33 157 -4 q 67 149 67 69 m 125 149 q 232 49 125 49 q 340 149 340 49 l 340 363 q 232 463 340 463 q 125 363 125 463 l 125 149 z "},"₁":{"ha":226,"x_min":29,"x_max":153,"o":"m 29 404 q 40 428 29 417 l 108 507 q 129 515 119 515 q 145 509 138 515 q 153 494 153 503 l 153 21 q 125 0 153 0 q 96 21 96 0 l 96 428 l 65 389 q 51 381 60 381 q 29 404 29 381 z "},"₂":{"ha":421,"x_min":49,"x_max":375,"o":"m 49 21 l 49 89 q 90 166 49 128 q 181 231 131 204 q 272 297 231 258 q 313 375 313 336 q 285 435 313 410 q 210 461 258 461 q 143 441 168 461 q 118 383 118 421 q 110 368 118 375 q 88 361 101 361 q 61 394 61 361 q 104 481 61 447 q 211 515 147 515 q 324 476 279 515 q 369 378 369 436 q 342 299 369 336 q 277 236 315 263 q 200 187 239 210 q 134 139 161 164 q 107 90 107 114 l 107 53 l 354 53 q 369 45 363 53 q 375 26 375 38 q 369 8 375 17 q 354 0 363 0 l 75 0 q 57 6 65 0 q 49 21 49 13 z "},"₃":{"ha":429,"x_min":44,"x_max":375,"o":"m 44 115 q 51 136 44 131 q 71 142 57 142 q 101 119 101 142 q 127 71 101 93 q 208 49 153 49 q 319 147 319 49 l 319 160 q 210 246 319 246 q 188 269 188 246 q 210 294 188 294 q 281 313 257 294 q 304 379 304 332 q 213 464 304 464 q 138 443 160 464 q 115 394 115 422 q 88 369 115 369 q 64 376 69 369 q 58 399 58 382 q 94 478 58 442 q 214 515 131 515 q 360 390 360 515 q 296 272 360 299 q 375 160 375 243 l 375 147 q 329 33 375 69 q 210 -4 283 -4 q 88 33 132 -4 q 44 115 44 69 z "},"₄":{"ha":389,"x_min":22,"x_max":364,"o":"m 22 142 q 25 154 22 146 l 221 497 q 247 515 229 515 q 266 508 257 515 q 275 492 275 501 q 272 482 275 488 l 96 174 l 242 174 l 242 294 q 269 314 242 314 q 299 294 299 314 l 299 174 l 342 174 q 364 146 364 174 q 357 128 364 136 q 342 119 350 119 l 299 119 l 299 21 q 269 0 299 0 q 242 21 242 0 l 242 119 l 43 119 q 22 142 22 119 z "},"₅":{"ha":419,"x_min":43,"x_max":374,"o":"m 43 114 q 72 146 43 146 q 101 121 101 146 q 204 49 104 49 q 317 147 317 49 l 317 161 q 208 258 317 258 l 100 258 q 71 279 71 258 q 72 310 71 297 l 89 494 q 106 515 92 515 l 326 515 q 346 489 346 515 q 326 463 346 463 l 139 463 l 125 307 l 208 307 q 328 272 283 307 q 374 161 374 236 l 374 147 q 328 33 374 69 q 210 -4 283 -4 q 88 31 133 -4 q 43 114 43 67 z "},"₆":{"ha":453,"x_min":65,"x_max":397,"o":"m 65 178 l 65 363 q 111 478 65 440 q 233 515 157 515 q 353 478 310 515 q 397 393 397 442 q 369 367 397 367 q 340 390 340 367 q 309 442 340 422 q 232 463 278 463 q 124 363 124 463 l 124 261 q 240 306 160 306 q 397 164 397 306 l 397 149 q 352 33 397 69 q 232 -4 307 -4 q 106 38 147 -4 q 65 178 65 81 m 124 146 q 232 46 124 46 q 340 146 340 46 l 340 161 q 231 258 340 258 q 124 168 124 258 l 124 146 z "},"₇":{"ha":400,"x_min":40,"x_max":371,"o":"m 40 388 l 40 494 q 49 508 40 501 q 67 515 57 515 l 344 515 q 362 508 353 515 q 371 494 371 501 l 371 429 q 363 401 371 415 l 133 8 q 114 -1 128 -1 q 90 6 100 -1 q 79 26 79 14 q 82 38 79 29 l 314 424 l 314 463 l 99 463 l 99 388 q 90 373 99 379 q 69 367 81 367 q 40 388 40 367 z "},"₈":{"ha":439,"x_min":54,"x_max":385,"o":"m 54 140 l 54 150 q 140 281 54 250 q 69 392 69 307 q 219 515 69 515 q 369 392 369 515 q 299 281 369 306 q 385 150 385 251 l 385 140 q 340 31 385 67 q 219 -4 294 -4 q 100 31 146 -4 q 54 140 54 67 m 113 146 q 221 44 113 44 q 328 146 328 44 l 328 157 q 219 256 328 256 q 113 157 113 256 l 113 146 m 126 385 q 219 306 126 306 q 313 385 313 306 q 219 465 313 465 q 126 385 126 465 z "},"₉":{"ha":454,"x_min":56,"x_max":388,"o":"m 56 118 q 83 143 56 143 q 113 121 113 143 q 144 69 113 89 q 221 49 175 49 q 331 149 331 49 l 331 249 q 213 206 292 206 q 56 347 56 206 l 56 363 q 101 478 56 440 q 222 515 146 515 q 342 478 297 515 q 388 363 388 440 l 388 149 q 219 -4 388 -4 q 99 32 143 -4 q 56 118 56 68 m 114 349 q 222 253 114 253 q 331 343 331 253 l 331 364 q 222 465 331 465 q 114 364 114 465 l 114 349 z "},"€":{"ha":796,"x_min":49,"x_max":728,"o":"m 49 388 q 76 419 49 419 l 169 419 l 169 561 l 76 561 q 49 590 49 561 q 76 622 49 622 l 169 622 l 169 724 q 245 945 169 875 q 447 1015 321 1015 q 651 949 575 1015 q 728 781 728 883 q 693 744 728 744 q 658 774 658 744 q 601 903 658 857 q 449 949 543 949 q 239 724 239 949 l 239 622 l 499 622 q 520 613 511 622 q 529 590 529 603 q 520 569 529 578 q 499 561 511 561 l 239 561 l 239 419 l 499 419 q 519 410 510 419 q 529 389 529 401 q 520 367 529 376 q 499 358 511 358 l 239 358 l 239 279 q 293 115 239 172 q 449 58 347 58 q 601 104 543 58 q 658 235 658 150 q 693 264 661 264 q 728 228 728 264 q 651 58 728 125 q 447 -8 575 -8 q 245 63 321 -8 q 169 279 169 133 l 169 358 l 76 358 q 49 388 49 358 z "},"™":{"ha":851,"x_min":58,"x_max":751,"o":"m 58 1040 q 78 1067 58 1067 l 344 1067 q 364 1040 364 1067 q 344 1011 364 1011 l 240 1011 l 240 678 q 211 656 240 656 q 182 678 182 656 l 182 1011 l 78 1011 q 58 1040 58 1011 m 403 678 l 403 1038 q 432 1067 403 1067 q 476 1028 458 1067 l 576 793 l 679 1028 q 724 1067 696 1067 q 751 1038 751 1067 l 751 678 q 724 656 751 656 q 694 678 694 656 l 694 943 l 599 721 q 576 704 592 704 q 557 721 563 704 l 461 946 l 461 678 q 432 656 461 656 q 403 678 403 656 z "},"Ω":{"ha":750,"x_min":79,"x_max":671,"o":"m 88 10 q 83 15 88 10 q 79 33 79 19 q 88 56 79 47 q 108 65 97 65 l 256 65 l 256 115 q 96 389 96 174 l 96 724 q 172 945 96 875 q 375 1015 249 1015 q 578 945 503 1015 q 654 724 654 875 l 654 389 q 496 115 654 175 l 496 65 l 643 65 q 663 56 654 65 q 671 33 671 47 q 663 10 671 19 q 643 0 656 0 l 439 0 l 439 171 q 585 389 585 203 l 585 724 q 375 949 585 949 q 167 724 167 949 l 167 389 q 313 171 167 200 l 313 0 l 108 0 q 88 10 96 0 z "},"℮":{"ha":747,"x_min":76,"x_max":679,"o":"m 76 289 l 76 374 q 169 577 76 490 q 386 664 261 664 q 592 592 506 664 q 679 413 679 519 q 670 353 679 376 q 642 322 661 331 q 606 310 622 313 q 563 307 590 307 l 211 307 l 211 249 q 269 103 211 157 q 421 50 326 50 q 513 59 472 50 q 571 80 553 68 q 606 101 589 92 q 632 110 622 110 q 651 99 642 110 q 660 76 660 88 q 632 42 660 61 q 547 7 604 22 q 419 -8 489 -8 q 172 74 268 -8 q 76 289 76 156 m 211 361 l 482 361 q 544 371 529 361 q 560 411 560 381 q 511 548 560 489 q 386 607 463 607 q 261 552 311 607 q 211 418 211 497 l 211 361 z "},"⅓":{"ha":867,"x_min":50,"x_max":815,"o":"m 50 904 q 61 928 50 917 l 129 1007 q 150 1015 140 1015 q 166 1009 158 1015 q 174 994 174 1003 l 174 521 q 146 500 174 500 q 117 521 117 500 l 117 928 l 86 889 q 72 881 81 881 q 50 904 50 881 m 87 -24 q 82 -19 87 -24 q 78 -6 78 -15 q 81 10 78 4 l 618 1053 q 640 1067 624 1067 q 662 1058 651 1067 q 672 1035 672 1049 q 668 1019 672 1028 l 135 -14 q 107 -32 126 -32 q 87 -24 96 -32 m 485 115 q 491 136 485 131 q 511 142 497 142 q 542 119 542 142 q 567 71 542 93 q 649 49 593 49 q 760 147 760 49 l 760 160 q 650 246 760 246 q 628 269 628 246 q 650 294 628 294 q 721 313 697 294 q 744 379 744 332 q 653 464 744 464 q 578 443 600 464 q 556 394 556 422 q 528 369 556 369 q 504 376 510 369 q 499 399 499 382 q 535 478 499 442 q 654 515 571 515 q 800 390 800 515 q 736 272 800 299 q 815 160 815 243 l 815 147 q 769 33 815 69 q 650 -4 724 -4 q 528 33 572 -4 q 485 115 485 69 z "},"⅔":{"ha":1022,"x_min":54,"x_max":969,"o":"m 54 521 l 54 589 q 95 666 54 628 q 186 731 136 704 q 277 797 236 758 q 318 875 318 836 q 291 935 318 910 q 215 961 264 961 q 149 941 174 961 q 124 883 124 921 q 115 868 124 875 q 93 861 107 861 q 67 894 67 861 q 110 981 67 947 q 217 1015 153 1015 q 330 976 285 1015 q 375 878 375 936 q 348 799 375 836 q 283 736 321 763 q 206 687 244 710 q 140 639 167 664 q 113 589 113 614 l 113 553 l 360 553 q 374 545 368 553 q 381 526 381 538 q 374 508 381 515 q 360 500 368 500 l 81 500 q 63 506 71 500 q 54 521 54 513 m 253 -24 q 249 -19 253 -24 q 244 -6 244 -15 q 247 10 244 4 l 785 1053 q 807 1067 790 1067 q 828 1058 818 1067 q 839 1035 839 1049 q 835 1019 839 1028 l 301 -14 q 274 -32 293 -32 q 253 -24 263 -32 m 639 115 q 645 136 639 131 q 665 142 651 142 q 696 119 696 142 q 722 71 696 93 q 803 49 747 49 q 914 147 914 49 l 914 160 q 804 246 914 246 q 782 269 782 246 q 804 294 782 294 q 875 313 851 294 q 899 379 899 332 q 807 464 899 464 q 732 443 754 464 q 710 394 710 422 q 682 369 710 369 q 658 376 664 369 q 653 399 653 382 q 689 478 653 442 q 808 515 725 515 q 954 390 954 515 q 890 272 954 299 q 969 160 969 243 l 969 147 q 924 33 969 69 q 804 -4 878 -4 q 683 33 726 -4 q 639 115 639 69 z "}}}
